<?xml version="1.0" encoding="UTF-8"?>
<svg xmlns="http://www.w3.org/2000/svg" version="1.1" viewBox="0 0 206.5 206.8">
  <defs>
    <style>
      .cls-1 {
        fill: #ff2476;
      }

      .cls-2 {
        stroke-width: 6.8px;
      }

      .cls-2, .cls-3 {
        fill: none;
        stroke: #ff2376;
        stroke-miterlimit: 10;
      }

      .cls-3 {
        stroke-width: 6.8px;
      }

      .cls-4 {
        fill: #fffdee;
      }
    </style>
  </defs>
  <!-- Generator: Adobe Illustrator 28.7.1, SVG Export Plug-In . SVG Version: 1.2.0 Build 142)  -->
  <g>
    <g id="Layer_1">
      <g>
        <rect class="cls-4" x="3.1" y="3.4" width="199.7" height="200" rx="9.8" ry="9.8"/>
        <polyline class="cls-2" points="5.1 200.3 5.8 199.3 7 197.8 8.2 196.1 9.3 195 10.2 193.5 11.7 191.7 13 190.5 14.1 189.1 15.5 187.8 16.7 186.2 17.9 184.9 19.3 183.5 21.4 181.2 22.7 179.8 25.4 177.4 27.1 175.3 28.3 174.2 29.6 172.9 31.3 171 32.7 169.4 34.7 167.7 35.9 166.6 36.9 165.8 37.7 164.6 39 163.5 39.6 162.6 41 161.2 42 159.9 43.1 158.4 44.5 156.9 45.7 155.7 47.7 153.7 48.7 152.8 50.6 151.5 52.6 149.6 55.3 147.3 56.4 146.4 58.6 144.4 59.9 143.5 61.5 142.2 63.4 140.9 64.7 139.9 63.5 138.4 62.2 136.6 61.5 134.8 60.3 132 59.4 129.7 58.7 127.9 58.2 125.5 57.6 123.5 57.1 121.4 56.5 119 55.8 116.9 55.3 114.6 54.5 112.4 54.1 110.4 53.4 108.4 52.9 106.5 52.6 105.3 52.3 103.2 51.4 99.9 51.1 98.5 50.7 97 50.8 95.1 50.3 92.1 50.3 90 50.4 88 50.8 85.6 51 83.5 51.4 81.5 51.9 79.4 52.4 77.6 52.9 75.8 53.4 74.1 53.8 72.3 54.5 70.8 55.1 69.4 56.1 67.7 57.1 66.1 58 64.5 59.6 62.6 60.7 60.9 62.2 59.3 63.4 58.2 65 57.1 66.3 56.7 67.6 56.7 68.8 56.7 69.9 56.7 71.5 56.7 72.4 57.2 73.7 57.8 74.6 58.4 75.6 59.2 76.5 59.8 77.2 60.4 78.2 61 78.9 61.8 79.4 62.6 80.3 63.2 80.8 64.1 81.6 64.9 82.2 65.8 82.7 66.8 83.4 68.1 84.1 69.5 84.5 70.4 84.9 71.6 85.7 72.9 86.2 74.1 86.5 75.3 87.1 76.7 87.6 78 87.9 79.1 88.3 80.7 88.8 82 89.4 83.4 89.6 84.5 89.6 85.2 90.1 86.1 90.4 87.1 90.8 88.3 91.3 89.4 91.6 90.5 91.9 91.9 91.9 93.1 92.3 94.8 92.8 96.4 92.8 97.5 93.4 99 93.4 100.1 93.7 101.5 93.7 102.6 94 103.8 94 105 94.6 106.5 94.9 108.1 95.3 109.5 95.7 110.9 96 112.2 96.4 113.7 96.8 114.9 97.2 117.2 97.2 118.4 97.2 119.9 97.2 121 98.5 120.3 99.4 120 100.2 119.7 100.9 119.7 102 119.7 103 119.7 103 117.9 103 116.1 103 114.4 103 112.3 103.4 110.5 103.4 108.8 103.4 107.1 103.4 105.4 103.4 103.2 103.4 100.5 103.8 98.3 103.8 96.4 103.8 94.6 104.2 92.5 104.6 90.5 104.9 87.9 105.2 85.7 105.7 83.5 106.4 81.2 106.7 79.2 107.1 77.7 107.6 75.7 108 73.3 108.6 71.4 109.6 68.9 110.8 65.9 111.9 63.8 113.5 61.2 115 59.2 116.2 57.6 118.3 56.1 120.7 54.8 122.7 54.3 124.2 53.9 125.5 53.9 126.8 53.9 127.9 53.9 129.4 54.4 131 54.8 132.2 55.4 133.4 56.3 134.5 57.3 136 58.6 136.8 59.9 137.8 61.5 138.7 62.7 139.6 64.1 140.1 65.2 141 66.8 141.7 68.3 142.4 69.7 143.1 71.5 143.4 73.1 143.7 74.9 143.7 76.9 144.2 78.9 144.2 80.4 144.2 82 144.5 83.9 144.9 85.9 145.2 88.1 145.2 90.3 145.2 92 145.2 94.4 145.2 96 144.9 98.7 144.9 100.5 144.7 102.4 144.3 104.4 144 106.2 143.7 108.4 143.6 111 143.3 113 143.1 116.3 143 118.1 142.5 120.5 141.8 123.3 141.5 124.8 140.9 127.2 140.3 129.4 139.4 132.5 139 134 138.3 135.8 137.5 138.4 136.9 141 138.1 141.7 141 143.9 143.5 145.5 146.4 147.7 148.7 149.3 152.3 152.2 155.4 154.8 159 158.2 163.8 162.4 168.2 166.3 171.5 169.3 175.9 173.1 179.6 177.4 183.9 181.9 187.4 186.4 191.8 192 195.5 197.1 198.3 202"/>
        <polygon class="cls-2" points="73.2 133.9 75 132.6 76.9 131.2 78.6 129.8 80.6 128.4 82.6 127.1 84.8 125.8 85.9 124.6 85.4 122.2 85 118.8 84.4 114.9 83.7 111.2 82.6 106.7 81.6 103 80.6 99.6 79.1 96.1 77.5 92.9 76 90.1 73.9 89.2 71.7 89.2 69.6 90.7 68.1 91.6 66.8 93.4 66 95.5 65.5 98 65.5 101.1 66 103.3 66.4 106.9 67 109.8 67.4 113 67.8 115.7 68.5 118.1 69 120.7 69.8 123.3 69.9 125.6 70.8 127.3 71.2 129.1 72.1 131.1 73.2 133.9"/>
        <polygon class="cls-2" points="113.9 123.1 115.7 124.4 117 125.3 118.6 126.4 120.4 127.7 121.5 128.7 122.8 129.5 124.3 130.6 126.9 132.4 127.6 129.7 128.3 126.8 129 124 129.5 121.4 130.2 117.8 130.7 115.2 131.2 112.9 131.8 110 132.3 107 133 103.8 133.6 101.3 134 98.7 134 96.1 133.5 94.5 132.6 92.8 131.1 91.4 129.2 90.6 126.4 90.6 124.9 91.1 123.1 91.5 121.8 92.7 121 94.2 120.2 95.6 119.9 97.5 119.5 99.3 119.1 101.8 118.5 105 117.9 107.9 117.3 110.7 116.6 113.6 116 116.1 115.5 118.7 115.1 120.5 113.9 123.1"/>
        <path class="cls-3" d="M18,3.4h170.6c8,0,14.6,6.5,14.6,14.6v170.8c0,8.1-6.5,14.6-14.6,14.6H18c-8,0-14.6-6.5-14.6-14.6V18c0-8.1,6.5-14.6,14.6-14.6Z"/>
        <polyline class="cls-2" points="65.5 164.7 68.1 160.6 71.9 158.9 75.7 157.7 78.2 157.7 82 157.7"/>
        <polyline class="cls-2" points="115.8 157.7 118.8 157.7 122.7 157.7 126.2 157.7 129.2 159.5 131.9 161.2 134 163.6"/>
        <ellipse class="cls-1" cx="78.1" cy="169.8" rx="7.2" ry="7.2"/>
        <ellipse class="cls-1" cx="123.5" cy="169.8" rx="7.2" ry="7.2"/>
      </g>
    </g>
  </g>
</svg>