<?xml version="1.0" encoding="UTF-8"?>
<svg xmlns="http://www.w3.org/2000/svg" version="1.1" viewBox="0 0 206.8 205.5">
  <defs>
    <style>
      .cls-1 {
        fill: #fffdee;
      }

      .cls-2 {
        fill: #ff8a20;
      }
    </style>
  </defs>
  <!-- Generator: Adobe Illustrator 28.7.1, SVG Export Plug-In . SVG Version: 1.2.0 Build 142)  -->
  <g>
    <g id="Layer_1">
      <g id="Layer_1-2" data-name="Layer_1">
        <g>
          <path class="cls-1" d="M14.3,2.2h178.2c6,0,10.9,4.8,10.9,10.8v177c0,6-4.9,10.8-10.9,10.8H14.3c-6,0-10.9-4.8-10.9-10.8V13c0-6,4.9-10.8,10.9-10.8Z"/>
          <path d="M192.5,2.2c2.9,0,5.6,1.1,7.6,3.1s3.2,4.7,3.2,7.6v177c0,2.9-1.1,5.6-3.2,7.6-2,2-4.8,3.1-7.6,3.1H14.3c-2.9,0-5.6-1.1-7.6-3.1-2-2-3.2-4.7-3.2-7.6V13c0-2.9,1.1-5.6,3.2-7.6s4.8-3.1,7.6-3.1h178.2M192.5,2.1H14.3C8.3,2.1,3.4,7,3.4,13v177c0,6,4.9,10.8,10.9,10.8h178.2c6,0,10.9-4.9,10.9-10.8V13c0-6-4.9-10.8-10.9-10.8h0Z"/>
          <polygon class="cls-2" points="195.7 202.4 193 197.6 189.4 192.8 185.1 187.3 181.6 183 177.3 178.5 173.7 174.4 169.5 170.7 166.1 167.7 161.8 163.8 157.1 159.7 153.4 156.4 150.3 153.9 146.9 151.1 144.4 149.4 141.8 147.2 139.2 145.7 136.4 143.6 133.3 141.7 134.5 136.6 135.9 132 136.4 130.7 137.9 125.5 138.4 123.3 138.8 121.7 139.4 118.9 139.9 117 140.2 111.8 140.5 110 140.6 107.2 140.9 104.9 141.6 101.4 141.7 99.7 141.7 97.6 142.1 95.2 142.1 87.8 141.7 85.9 141.4 83.9 141 81.9 141 78.7 140.6 76.7 140.6 74.8 140.2 73.1 140 71.9 139.5 70.7 138.2 67.9 137.2 66.2 136.9 65.3 136.2 64.3 135.2 63.1 134 61.3 133.5 60.4 132.1 59.3 131.4 58.4 130.5 57.9 130.1 57.6 128.5 57.3 127.6 57 124.6 57 123.6 57.2 122.2 57.5 120.3 58.6 118.7 59.7 117.7 60.9 116.4 62.7 114.9 65.1 114 66.9 112.9 69.8 111.9 72.1 111.4 73.6 110.5 78.3 110.1 79.4 109.9 81.4 108.6 85.7 108.4 87.9 107.7 92.7 107.2 94.4 107.2 98.2 106.8 100.2 106.8 110.2 106.4 112 106.4 122.2 100.9 122.2 100 122.7 93.9 125.4 93.9 116.8 93.6 115 93.2 113.7 92.9 112.3 92.5 110.9 92.3 109.7 91.7 108 91.5 106.8 90.8 105.1 90.8 103.5 90.4 102.3 90.4 101.2 90.1 99.9 90.1 99 89.5 97.5 89.5 96.3 89.1 95 88.6 92.9 88.6 91.5 88.5 90.7 87.9 88.9 87.3 87.5 87.1 86.8 86.4 85.5 86.4 84.2 86.3 83.8 85.8 82.7 85.2 81.1 84.9 79.5 84.5 78.5 84.2 77.5 83.5 76.1 83.1 74.7 82.8 73.9 82 72.5 80.6 69.2 79.8 67.9 79.4 67.1 79.1 66.6 78.2 65.7 77.9 65.1 77 64.6 76.2 63.4 75.1 62.6 73.7 61.5 72.2 60.5 70.7 59.8 66.6 59.8 65.6 60.5 64.6 61.4 63.4 62.6 62.2 64.4 60.9 66 60 67.5 58.1 70.6 57.1 72.8 56.7 74.7 56.1 76.2 55.7 78 54.7 81.7 54.1 85.5 53.8 87.8 53.8 89.6 53.8 91.3 54.2 94.4 54.1 95.9 54.5 97.1 54.7 98.6 55.6 101.9 56.2 105.1 57.5 109 57.8 110.9 58.6 113.2 59 115.1 59.9 117.4 62 126.1 62.7 127.8 63.4 129.9 64.7 132.7 65.3 134.1 66.3 135.6 69.7 139.6 63.6 144 61.9 145.4 60.8 146.1 58.6 148.1 57.5 149 52.6 153.2 50.8 154.5 50 155.2 45.6 159.6 43.4 162.6 42.1 163.8 41.5 164.7 40.4 165.7 39.5 167.1 38.1 168.1 36.9 169.2 35 170.7 32 174.2 29.7 176.5 27.7 178.8 25.1 181.1 23.8 182.4 21.6 184.9 20.3 186.1 19.3 187.1 18 188.8 16.5 190.2 15.4 191.6 14.2 192.8 12.9 194.2 12 195.9 10.8 197.1 9.5 198.8 8.5 200.1 7.8 200.9 2.4 197.1 3.3 195.8 4.4 194.5 5.8 192.5 6.6 191.7 7.6 190.2 9.3 188.1 10.5 186.9 11.8 185.4 13 184.3 14.2 182.7 15.6 181.2 16.9 180 19 177.7 20.5 176.2 23 174 24.8 171.8 27.2 169.5 30.6 165.7 32.6 164.1 33.9 162.8 34.5 162.3 35.2 161.3 36.5 160.1 37.2 159.2 38.5 158 40.7 155 43.4 152.3 45.6 150.1 46.8 149.1 48.5 147.9 54.3 143 56.8 140.7 58 139.9 60 138.3 59.3 137.3 58.5 135.2 57.1 132.3 56.4 130.1 55.5 127.9 53.4 119.2 52.5 116.8 52.1 114.8 51.3 112.4 51 110.6 49.6 106.7 49.4 105.2 49 103.4 48.1 99.8 47.9 98.7 47.3 96.9 47.4 94.6 47 91.5 47.1 89.3 47.2 87.1 47.8 82.4 48.2 80.1 49.2 76.3 49.7 74.2 50.3 72.7 50.7 70.8 52.3 67.2 54.3 64 55.3 62.2 56.9 60.3 58.2 58.4 60 56.5 61.5 55.2 63.6 53.6 65.9 53 72.5 53 74 53.9 75.6 54.7 76.6 55.3 78.8 57 79.3 57.4 80.4 58 81.6 59.3 82 59.8 82.9 60.5 83.6 61.7 84.3 62.4 85.3 63.9 85.7 64.8 86.7 66.4 88.1 69.7 88.9 71.2 89.5 72.9 89.7 73.7 90.4 74.9 90.9 76.4 91.4 78 91.6 79.3 92 80.2 92.7 81.8 93.1 83.7 93.3 84.2 93.7 85.4 94.1 86.6 95.1 89.1 95.4 91.3 95.4 92.1 95.6 93.3 96.2 95.3 96.2 96.3 96.9 97.8 96.9 99.1 97.1 100.4 97.1 101.5 97.5 102.7 97.5 103.7 97.9 104.8 98.2 106.5 98.8 108.1 99 109.4 99.5 110.8 99.7 112.2 99.7 111.2 100.1 109.4 100.2 99.3 100.6 97.3 100.6 93.6 101.1 91.3 101.8 87 102 84.5 103.3 80 103.5 78 104.1 76.3 105 71.8 105.7 69.6 106.7 67.3 107.9 63.9 109.1 61.6 110.9 58.8 112.5 56.7 114.1 54.7 116.8 52.9 119.6 51.3 122.1 50.6 124 50.2 128.6 50.2 130.4 50.8 132.3 51.2 134.2 52.2 135.8 53.4 136.9 54.6 138.7 56 139.7 57.8 140.7 59.2 141.7 60.5 142.8 62.3 143.3 63.3 144.2 65 145.7 68.1 146.6 70.3 146.8 72.1 147.2 74 147.2 76.1 147.6 78.1 147.6 81.1 148 82.8 148.3 84.8 148.8 87.2 148.7 95.9 148.3 98.3 148.3 100 148.2 102.5 147.5 106 147.2 108 147.1 110.8 146.8 112.7 146.5 118.1 146 120.5 145.3 123.2 145 124.8 143.7 129.5 142.8 132.8 142.3 134.2 140.9 138.6 143.1 140.2 145.8 141.9 148.5 144.1 151 145.8 154.6 148.7 157.8 151.4 161.5 154.7 170.6 162.7 174 165.7 178.6 169.8 182.3 174 186.7 178.7 190.3 183.1 194.7 188.7 198.7 194.1 201.5 199 195.7 202.4"/>
          <path class="cls-2" d="M71.8,138.3l-2.6-6.7-1-2.4-.4-1.5-1-2.1v-2.5c-.1,0-.8-2.3-.8-2.3l-1.2-5.1-.5-3-.3-3-.7-3.2-.3-3.3-.5-2.3v-3.8l.7-3.4,1-2.5,2-2.7,2-1.2,2.9-2h4l3.8,1.6,2.1,3.8,1.7,3.5,1.6,3.9,1,3.4,1,3.8,1.1,4.7.7,3.8.6,4,.4,3.2.8,3.9-2.6,2.8-2.6,1.5-1.9,1.2-1.8,1.3-1.7,1.4-7.2,5.2ZM74.5,127.2l.3.7h.2c0-.1,1.8-1.6,1.8-1.6l2.1-1.5,2.1-1.4,1.3-.8-.2-.8-.4-3.2-.6-3.8-.7-3.6-1.1-4.4-1.9-6.7-1.4-3.2-1.6-3.1-.9-1.7-.4-.2h-.4l-1.4,1-.9.5-.6.9-.5,1.4-.4,1.9v2.4l.5,2.3.3,3.2.7,3.1.3,3.1.5,2.5,1.2,4.8.9,2.8v2.1c0,0,.8,1.6.8,1.6l.4,1.6Z"/>
          <path class="cls-2" d="M129,137l-7.8-5.6-1.4-.7-1.4-1.2-1.5-1.2-3-2-3.9-3,2.1-4.6.3-1.6,2.5-10.6,1.1-6,.5-2.5.3-1.9.5-2.6,1-1.6.9-2,2.6-2.2,2.5-.6,1.9-.5h3.9l2.9,1.1,2.5,2.2,1.3,2.5.7,2.4v3.5s-.5,3-.5,3l-1.3,5.6-.6,2.9-.5,3-.5,2.3-1.2,6.3-2,8.2-2,7.4ZM123.6,125.1l1.4.8,1.4-5.9,1.2-6.1.5-2.3.5-2.8.6-3.1,1.3-5.6.3-2.3v-1.7l-.3-.8-.5-.9-.7-.6-.7-.3h-1.7l-2.2.5-.2.2-.6,1.2-.5.8-.3,1.4-.3,1.9-1.1,5.7-.5,2.9-.6,2.8-1.9,7.9-.4,2.1-.3.6,2.6,1.7,1.8,1.4.9.8Z"/>
          <path class="cls-2" d="M188.8,205.5H18c-9.9,0-18-8-18-17.9V17.9C0,8,8.1,0,18,0h170.8c9.9,0,18,8,18,17.9v169.7c0,9.9-8.1,17.9-18,17.9ZM18,6.8c-6.2,0-11.2,5-11.2,11.1v169.7c0,6.1,5,11.1,11.2,11.1h170.8c6.2,0,11.2-5,11.2-11.1V17.9c0-6.1-5-11.1-11.2-11.1H18Z"/>
          <polygon class="cls-2" points="68.5 165.4 62.7 162 65.8 157 71 154.7 75.3 153.4 82.1 153.4 82.1 160 76.3 160 73.2 161 70.4 162.2 68.5 165.4"/>
          <polygon class="cls-2" points="131.8 164.8 129.8 162.8 127.6 161.3 125.5 160 116 160 116 153.4 127.3 153.4 131.2 155.7 134.2 157.6 136.6 160.2 131.8 164.8"/>
          <ellipse class="cls-2" cx="78.2" cy="168.7" rx="7.2" ry="7.1"/>
          <ellipse class="cls-2" cx="123.7" cy="168.7" rx="7.2" ry="7.1"/>
        </g>
      </g>
    </g>
  </g>
</svg>