<?xml version="1.0" encoding="UTF-8"?><svg id="Layer_1" xmlns="http://www.w3.org/2000/svg" viewBox="0 0 64 64"><defs><style>.cls-1{stroke-width:4px;}.cls-1,.cls-2,.cls-3{stroke:#fedb00;stroke-miterlimit:10;}.cls-1,.cls-3{fill:none;}.cls-4{fill:#fedb00;}.cls-2{fill:#fffdee;}.cls-3{stroke-width:2.067px;}</style></defs><rect class="cls-2" x="2.5" y="2.5" width="60" height="60" rx="9.2526" ry="9.2526"/><polyline class="cls-3" points="2.5 54.6687 2.7156 54.3587 3.0659 53.9195 3.4432 53.4028 3.7666 53.0669 4.063 52.6019 4.5211 52.0593 4.8984 51.6718 5.2487 51.2584 5.6799 50.845 6.0302 50.38 6.4075 49.9666 6.8386 49.5533 7.4854 48.8557 7.8896 48.4165 8.6981 47.6931 9.237 47.0472 9.5873 46.7114 9.9916 46.298 10.5036 45.7296 10.9348 45.2387 11.5546 44.722 11.9049 44.3862 12.2283 44.1278 12.4708 43.7661 12.8481 43.4303 13.0367 43.1719 13.4679 42.7327 13.7643 42.3452 14.1146 41.8801 14.5458 41.4151 14.9231 41.0534 15.5159 40.4333 15.8393 40.175 16.4052 39.7616 17.025 39.1932 17.8604 38.4957 18.1838 38.2115 18.8575 37.6173 19.2617 37.3331 19.7468 36.9197 20.3127 36.5322 20.7169 36.2222 20.3666 35.783 19.9624 35.2146 19.7468 34.672 19.3695 33.8195 19.1 33.1219 18.8844 32.5794 18.7227 31.8301 18.5611 31.2101 18.3994 30.59 18.2107 29.8408 17.9951 29.1949 17.8335 28.4973 17.6179 27.8256 17.4831 27.2314 17.2676 26.6114 17.1059 26.043 17.025 25.6554 16.9172 25.0354 16.6477 24.0278 16.5669 23.5886 16.4322 23.1236 16.4591 22.5552 16.3244 21.6251 16.3244 21.0051 16.3513 20.385 16.4591 19.6358 16.54 18.9899 16.6477 18.3957 16.8094 17.7498 16.9711 17.2072 17.1059 16.6389 17.2676 16.1221 17.4023 15.5796 17.5909 15.1404 17.7796 14.7012 18.1029 14.1845 18.3994 13.6936 18.6689 13.2027 19.1539 12.6344 19.5042 12.0918 19.9624 11.6268 20.3396 11.2909 20.8247 10.9292 21.202 10.8259 21.6004 10.8259 21.9742 10.8259 22.3272 10.8259 22.8047 10.8259 23.0883 10.9809 23.4656 11.1617 23.7351 11.3426 24.0585 11.5751 24.328 11.7818 24.5435 11.9626 24.84 12.1435 25.0555 12.376 25.2172 12.6085 25.4867 12.8152 25.6484 13.0736 25.8909 13.3319 26.0796 13.5903 26.2413 13.9003 26.4568 14.3137 26.6455 14.727 26.7802 15.0112 26.915 15.3729 27.1306 15.7605 27.2922 16.148 27.4 16.5097 27.5887 16.923 27.7234 17.3106 27.8312 17.6464 27.939 18.1373 28.1007 18.5507 28.2624 18.9641 28.3432 19.2999 28.3432 19.5124 28.478 19.7908 28.5857 20.1008 28.7205 20.4625 28.8552 20.7984 28.963 21.1342 29.0439 21.5734 29.0439 21.9409 29.1517 22.4518 29.3133 22.9427 29.3133 23.2946 29.502 23.7436 29.502 24.0709 29.5828 24.4928 29.5828 24.8274 29.6906 25.1904 29.6906 25.5838 29.8523 26.0171 29.9601 26.508 30.0948 26.9472 30.2026 27.3606 30.3104 27.774 30.4182 28.239 30.526 28.6007 30.6608 29.2982 30.6608 29.6646 30.6608 30.1225 30.6608 30.4609 31.065 30.2542 31.3345 30.1508 31.567 30.0561 31.7954 30.0475 32.1276 30.0475 32.4391 30.0475 32.4391 29.5054 32.4391 28.948 32.4391 28.4503 32.4391 27.8133 32.5471 27.2572 32.5471 26.7185 32.5471 26.2009 32.5471 25.7033 32.5471 25.0065 32.5471 24.2103 32.6819 23.5111 32.6819 22.9363 32.6819 22.3988 32.8166 21.7419 32.9244 21.1342 33.0322 20.3592 33.113 19.6616 33.2747 19.0157 33.4903 18.2923 33.5711 17.6981 33.7059 17.2331 33.8406 16.613 33.9754 15.8896 34.164 15.2954 34.4604 14.5462 34.8108 13.6419 35.1611 12.9961 35.6461 12.1952 36.1043 11.5751 36.4815 11.0842 37.1283 10.645 37.8559 10.2317 38.4487 10.0766 38.9069 9.9733 39.3119 9.9733 39.7271 9.9733 40.0594 9.9733 40.5238 10.1283 41.0088 10.2317 41.3591 10.4125 41.7364 10.6967 42.0598 11.0067 42.5179 11.3943 42.7604 11.8076 43.0838 12.2985 43.3533 12.6602 43.6228 13.0736 43.7845 13.4094 44.0539 13.9003 44.2695 14.3653 44.4851 14.8045 44.7007 15.3471 44.7815 15.838 44.8893 16.3805 44.8893 16.9842 45.0241 17.5948 45.0241 18.0592 45.0241 18.5369 45.1319 19.1191 45.2397 19.7391 45.3475 20.4108 45.3475 21.085 45.3475 21.6025 45.3475 22.3192 45.3475 22.8367 45.2397 23.6403 45.2397 24.1828 45.1858 24.777 45.078 25.3971 44.9702 25.9396 44.8893 26.6114 44.8624 27.4123 44.7546 28.0065 44.7007 29.0141 44.6738 29.5824 44.5121 30.3058 44.2965 31.1584 44.2156 31.6234 44.027 32.3468 43.8384 33.0186 43.5689 33.9745 43.4341 34.4137 43.2455 34.9821 43.003 35.783 42.8143 36.558 43.1647 36.7905 44.0539 37.4623 44.8354 37.9273 45.6978 38.6249 46.4254 39.1157 47.5033 39.9941 48.4734 40.795 49.5783 41.8285 51.0335 43.0944 52.3809 44.2828 53.378 45.2129 54.7254 46.3755 55.8572 47.6931 57.1777 49.0624 58.2556 50.4317 59.603 52.1368 60.7348 53.687 61.5972 55.1854"/><polygon class="cls-3" points="23.3325 34.4067 23.865 34.0073 24.4535 33.577 24.986 33.1468 25.5746 32.7166 26.1912 32.3171 26.8638 31.9177 27.2001 31.5489 27.06 30.8114 26.9199 29.7973 26.7517 28.5989 26.5275 27.4619 26.1912 26.0791 25.8829 24.9729 25.5746 23.9281 25.1262 22.8525 24.6497 21.8692 24.1733 21.0088 23.5287 20.7322 22.8583 20.7322 22.2114 21.1932 21.763 21.4697 21.3706 22.0229 21.1184 22.6682 20.9783 23.4364 20.9783 24.3936 21.1184 25.065 21.2305 26.1406 21.4267 27.0317 21.5388 28.0151 21.6789 28.8447 21.8751 29.5822 22.0433 30.3812 22.2955 31.1494 22.3235 31.8562 22.5758 32.3786 22.7159 32.9317 22.9962 33.5463 23.3325 34.4067"/><polygon class="cls-3" points="35.7734 31.0893 36.3357 31.5108 36.7107 31.7743 37.2195 32.1167 37.7551 32.5119 38.1032 32.8017 38.5049 33.0388 38.9602 33.3813 39.7368 33.9345 39.9511 33.1178 40.1653 32.2221 40.3795 31.3791 40.5402 30.5888 40.7545 29.4823 40.9151 28.692 41.0758 27.9807 41.2365 27.1114 41.3972 26.1893 41.6114 25.2146 41.7989 24.4506 41.9328 23.6339 41.9328 22.8639 41.7721 22.3694 41.5043 21.8425 41.0223 21.421 40.4599 21.1839 39.5984 21.1839 39.1477 21.3157 38.5853 21.4474 38.1836 21.8162 37.9426 22.264 37.7053 22.6855 37.5944 23.2915 37.4873 23.8447 37.3534 24.6087 37.1659 25.5834 37.0052 26.4528 36.8178 27.3221 36.6035 28.1915 36.4161 28.9554 36.249 29.7458 36.1483 30.299 35.7734 31.0893"/><polyline class="cls-3" points="20.9783 43.8188 21.7482 42.5581 22.9343 42.0242 24.0892 41.6693 24.8383 41.6693 26.014 41.6693"/><polyline class="cls-3" points="36.3656 41.6693 37.2733 41.6693 38.4533 41.6693 39.5425 41.6693 40.4554 42.209 41.2669 42.7428 41.9328 43.4605"/><circle class="cls-4" cx="24.8317" cy="45.3612" r="2.19"/><circle class="cls-4" cx="38.7166" cy="45.3612" r="2.19"/><rect class="cls-1" x="2" y="2" width="60" height="60" rx="9.9995" ry="9.9995"/></svg>