<?xml version="1.0" encoding="UTF-8"?>
<svg id="Layer_1" xmlns="http://www.w3.org/2000/svg" version="1.1" viewBox="0 0 64 64">
  <!-- Generator: Adobe Illustrator 29.0.0, SVG Export Plug-In . SVG Version: 2.1.0 Build 186)  -->
  <defs>
    <style>
      .st0 {
        fill: #fffdee;
      }

      .st0, .st1, .st2, .st3 {
        stroke: #00c22d;
        stroke-miterlimit: 10;
      }

      .st1, .st2 {
        stroke-width: 2.1px;
      }

      .st1, .st3 {
        fill: none;
      }

      .st2, .st4 {
        fill: #00c22d;
      }

      .st3 {
        stroke-width: 4px;
      }
    </style>
  </defs>
  <rect class="st0" x="2.5" y="2.5" width="60" height="60" rx="9.3" ry="9.3"/>
  <polyline class="st1" points="2.5 54.7 2.7 54.4 3.1 53.9 3.4 53.4 3.8 53.1 4.1 52.6 4.5 52.1 4.9 51.7 5.2 51.3 5.7 50.8 6 50.4 6.4 50 6.8 49.6 7.5 48.9 7.9 48.4 8.7 47.7 9.2 47 9.6 46.7 10 46.3 10.5 45.7 10.9 45.2 11.6 44.7 11.9 44.4 12.2 44.1 12.5 43.8 12.8 43.4 13 43.2 13.5 42.7 13.8 42.3 14.1 41.9 14.5 41.4 14.9 41.1 15.5 40.4 15.8 40.2 16.4 39.8 17 39.2 17.9 38.5 18.2 38.2 18.9 37.6 19.3 37.3 19.7 36.9 20.3 36.5 20.7 36.2 20.4 35.8 20 35.2 19.7 34.7 19.4 33.8 19.1 33.1 18.9 32.6 18.7 31.8 18.6 31.2 18.4 30.6 18.2 29.8 18 29.2 17.8 28.5 17.6 27.8 17.5 27.2 17.3 26.6 17.1 26 17 25.7 16.9 25 16.6 24 16.6 23.6 16.4 23.1 16.5 22.6 16.3 21.6 16.3 21 16.4 20.4 16.5 19.6 16.5 19 16.6 18.4 16.8 17.7 17 17.2 17.1 16.6 17.3 16.1 17.4 15.6 17.6 15.1 17.8 14.7 18.1 14.2 18.4 13.7 18.7 13.2 19.2 12.6 19.5 12.1 20 11.6 20.3 11.3 20.8 10.9 21.2 10.8 21.6 10.8 22 10.8 22.3 10.8 22.8 10.8 23.1 11 23.5 11.2 23.7 11.3 24.1 11.6 24.3 11.8 24.5 12 24.8 12.1 25.1 12.4 25.2 12.6 25.5 12.8 25.6 13.1 25.9 13.3 26.1 13.6 26.2 13.9 26.5 14.3 26.6 14.7 26.8 15 26.9 15.4 27.1 15.8 27.3 16.1 27.4 16.5 27.6 16.9 27.7 17.3 27.8 17.6 27.9 18.1 28.1 18.6 28.3 19 28.3 19.3 28.3 19.5 28.5 19.8 28.6 20.1 28.7 20.5 28.9 20.8 29 21.1 29 21.6 29 21.9 29.2 22.5 29.3 22.9 29.3 23.3 29.5 23.7 29.5 24.1 29.6 24.5 29.6 24.8 29.7 25.2 29.7 25.6 29.9 26 30 26.5 30.1 26.9 30.2 27.4 30.3 27.8 30.4 28.2 30.5 28.6 30.7 29.3 30.7 29.7 30.7 30.1 30.7 30.5 31.1 30.3 31.3 30.2 31.6 30.1 31.8 30 32.1 30 32.4 30 32.4 29.5 32.4 28.9 32.4 28.5 32.4 27.8 32.5 27.3 32.5 26.7 32.5 26.2 32.5 25.7 32.5 25 32.5 24.2 32.7 23.5 32.7 22.9 32.7 22.4 32.8 21.7 32.9 21.1 33 20.4 33.1 19.7 33.3 19 33.5 18.3 33.6 17.7 33.7 17.2 33.8 16.6 34 15.9 34.2 15.3 34.5 14.5 34.8 13.6 35.2 13 35.6 12.2 36.1 11.6 36.5 11.1 37.1 10.6 37.9 10.2 38.4 10.1 38.9 10 39.3 10 39.7 10 40.1 10 40.5 10.1 41 10.2 41.4 10.4 41.7 10.7 42.1 11 42.5 11.4 42.8 11.8 43.1 12.3 43.4 12.7 43.6 13.1 43.8 13.4 44.1 13.9 44.3 14.4 44.5 14.8 44.7 15.3 44.8 15.8 44.9 16.4 44.9 17 45 17.6 45 18.1 45 18.5 45.1 19.1 45.2 19.7 45.3 20.4 45.3 21.1 45.3 21.6 45.3 22.3 45.3 22.8 45.2 23.6 45.2 24.2 45.2 24.8 45.1 25.4 45 25.9 44.9 26.6 44.9 27.4 44.8 28 44.7 29 44.7 29.6 44.5 30.3 44.3 31.2 44.2 31.6 44 32.3 43.8 33 43.6 34 43.4 34.4 43.2 35 43 35.8 42.8 36.6 43.2 36.8 44.1 37.5 44.8 37.9 45.7 38.6 46.4 39.1 47.5 40 48.5 40.8 49.6 41.8 51 43.1 52.4 44.3 53.4 45.2 54.7 46.4 55.9 47.7 57.2 49.1 58.3 50.4 59.6 52.1 60.7 53.7 61.6 55.2"/>
  <polygon class="st1" points="23.3 34.4 23.9 34 24.5 33.6 25 33.1 25.6 32.7 26.2 32.3 26.9 31.9 27.2 31.5 27.1 30.8 26.9 29.8 26.8 28.6 26.5 27.5 26.2 26.1 25.9 25 25.6 23.9 25.1 22.9 24.6 21.9 24.2 21 23.5 20.7 22.9 20.7 22.2 21.2 21.8 21.5 21.4 22 21.1 22.7 21 23.4 21 24.4 21.1 25.1 21.2 26.1 21.4 27 21.5 28 21.7 28.8 21.9 29.6 22 30.4 22.3 31.1 22.3 31.9 22.6 32.4 22.7 32.9 23 33.5 23.3 34.4"/>
  <polygon class="st1" points="35.8 31.1 36.3 31.5 36.7 31.8 37.2 32.1 37.8 32.5 38.1 32.8 38.5 33 39 33.4 39.7 33.9 40 33.1 40.2 32.2 40.4 31.4 40.5 30.6 40.8 29.5 40.9 28.7 41.1 28 41.2 27.1 41.4 26.2 41.6 25.2 41.8 24.5 41.9 23.6 41.9 22.9 41.8 22.4 41.5 21.8 41 21.4 40.5 21.2 39.6 21.2 39.1 21.3 38.6 21.4 38.2 21.8 37.9 22.3 37.7 22.7 37.6 23.3 37.5 23.8 37.4 24.6 37.2 25.6 37 26.5 36.8 27.3 36.6 28.2 36.4 29 36.2 29.7 36.1 30.3 35.8 31.1"/>
  <polyline class="st1" points="21 43.8 21.7 42.6 22.9 42 24.1 41.7 24.8 41.7 26 41.7"/>
  <polyline class="st2" points="36.4 41.7 37.3 41.7 38.5 41.7 39.5 41.7 40.5 42.2 41.3 42.7 41.9 43.5"/>
  <circle class="st4" cx="24.8" cy="45.4" r="2.2"/>
  <circle class="st4" cx="38.7" cy="45.4" r="2.2"/>
  <rect class="st3" x="2" y="2" width="60" height="60" rx="10" ry="10"/>
</svg>