<?xml version="1.0" encoding="UTF-8"?>
<svg xmlns="http://www.w3.org/2000/svg" version="1.1" viewBox="0 0 206.8 206.8">
  <defs>
    <style>
      .cls-1 {
        fill: #50c8ea;
      }

      .cls-2 {
        fill: #fffdee;
      }
    </style>
  </defs>
  <!-- Generator: Adobe Illustrator 28.7.1, SVG Export Plug-In . SVG Version: 1.2.0 Build 142)  -->
  <g>
    <g id="Layer_1">
      <g id="Layer_1-2" data-name="Layer_1">
        <g>
          <path class="cls-2" d="M16.7,3.5h173.4c7.3,0,13.2,5.9,13.2,13.2v173.4c0,7.3-5.9,13.2-13.2,13.2H16.7c-7.3,0-13.2-5.9-13.2-13.2V16.7c0-7.3,5.9-13.2,13.2-13.2Z"/>
          <path d="M190.1,3.5c3.5,0,6.8,1.4,9.3,3.9,2.5,2.5,3.9,5.8,3.9,9.3v173.4c0,3.5-1.4,6.8-3.9,9.3s-5.8,3.9-9.3,3.9H16.7c-3.5,0-6.8-1.4-9.3-3.9s-3.9-5.8-3.9-9.3V16.7c0-3.5,1.4-6.8,3.9-9.3s5.8-3.9,9.3-3.9h173.4M190.1,3.4H16.7c-7.3,0-13.3,5.9-13.3,13.3v173.4c0,7.3,5.9,13.3,13.3,13.3h173.4c7.3,0,13.3-5.9,13.3-13.3V16.7c0-7.3-5.9-13.3-13.3-13.3h0Z"/>
          <polygon class="cls-1" points="195.6 203.6 192.9 198.9 189.4 194 181.5 184.1 177.2 179.6 173.7 175.5 169.5 171.9 166.1 168.8 157 160.7 153.4 157.4 150.3 154.8 146.9 152 144.5 150.4 141.8 148.2 139.1 146.6 136.4 144.5 133.2 142.7 134.5 137.4 135.9 132.8 136.4 131.5 137.8 126.3 138.4 124.1 138.7 122.5 139.4 119.7 139.8 117.7 140.1 112.5 140.4 110.7 140.5 107.9 140.8 105.6 141.2 103.7 141.5 101.9 141.7 100.2 141.7 98.3 142 95.8 142 88.3 141.7 86.5 141.3 84.4 141 82 141 79.3 140.5 77.3 140.5 75.2 140 72.4 139.5 71.1 138.2 68.4 137.2 66.6 136.8 65.7 136.1 64.6 135.2 63.4 133.5 60.8 132.2 59.7 131.4 58.9 130.6 58.3 130 58 128.5 57.6 127.5 57.3 124.7 57.3 122.2 58 120.3 59 118.8 60.1 117.8 61.3 116.4 63.1 114 67.3 112.9 70.2 112 72.4 111.5 74.1 110.6 78.6 110.2 79.9 109.9 82.2 109.2 84.4 108.7 86.2 108.5 88.3 107.7 93.3 107.3 95 107.3 98.5 106.9 100.8 106.9 110.9 106.5 112.7 106.5 123 101.1 123 100 123.4 93.9 126.7 93.9 117.5 93.6 115.7 93.2 114.4 92.9 113 92.5 111.6 92.2 110.5 91.7 108.7 91.4 107.5 90.7 105.7 90.7 104.2 90.4 103.1 90.4 101.9 90.1 100.5 90.1 99.7 89.5 98.2 89.5 96.9 89.1 95.6 88.6 93.5 88.6 92.1 88.5 91.3 87.8 89.5 87.2 88.1 87 87.4 86.3 86.1 86.3 84.8 86.2 84.4 85.7 83.2 85.1 81.6 84.8 79.9 84.2 78 83.4 76.5 83.1 75.2 82.7 74.4 82 72.9 80.5 69.6 79.4 67.6 79.1 67.1 78.2 66.2 77.8 65.6 77 65 76.1 63.6 75.1 63 74.5 62.5 73.6 61.9 72.7 61.1 72.1 60.8 70.7 60.1 66.9 60.1 66.6 60.2 65.6 60.9 64.7 61.7 63.5 63 62.3 64.8 60.9 66.4 60.1 67.9 58.2 71 57.6 72.2 57.2 73.3 56.7 75.3 56.2 76.7 55.8 78.5 54.7 82.2 54.2 86.1 53.9 88.3 53.8 90.1 53.8 91.9 54.2 95 54.1 96.5 54.5 97.7 54.7 99.2 55.6 102.6 56.2 105.7 56.7 107.3 57.5 109.7 57.9 111.5 58.6 113.7 59.2 115.9 59.9 118.2 62 126.9 63.5 130.7 64.8 133.6 65.3 135 66.3 136.3 69.7 140.6 65.3 143.7 63.7 144.8 61.9 146.3 60.8 147.1 58.7 149 57.6 149.9 54.9 152.2 52.7 154.1 50 156.1 48.2 158.1 47 159.3 45.8 160.6 43.4 163.6 42.2 164.8 41.6 165.7 40.3 166.9 39.5 168.1 38.2 169.1 36.9 170.3 35.1 171.9 32.1 175.2 29.7 177.6 27.7 179.9 25.2 182.3 23.9 183.5 21.7 185.9 20.4 187.3 19.3 188.4 17.9 190.1 16.6 191.4 15.4 192.8 14.2 194 13 195.5 12 197.1 10.8 198.3 9.6 200 8.5 201.2 8 202.1 2.2 198.5 3.2 197 4.3 195.7 5.8 193.7 6.6 192.9 7.6 191.3 9.3 189.3 10.5 188.1 11.7 186.7 13 185.4 14.2 183.9 15.5 182.5 16.8 181.2 19 178.8 20.5 177.3 22.9 175 24.8 172.9 27.2 170.5 30.6 166.8 32.5 165.2 33.7 164 34.5 163.3 35.3 162.3 36.4 161.3 37 160.4 38.4 159 40.7 156.1 42.2 154.5 43.3 153.4 45.4 151.1 48.5 148.8 50.4 147.1 54.3 143.8 56.8 141.6 57.9 140.8 59.9 139.1 59.3 138.2 58.5 136.1 57.2 133.2 55.5 128.7 53.3 120 52.6 117.8 52 115.5 51.3 113.1 50.9 111.3 50.3 109.4 49.5 107.1 49 104 48 100.4 47.9 99.3 47.3 97.5 47.4 95.2 47 92.1 47 89.8 47.1 87.6 47.7 82.9 48.1 80.6 49.2 76.8 49.7 74.5 50.2 73.1 50.7 71 51.5 69.3 52.3 67.7 55.3 62.6 57 60.6 58.1 58.8 60 56.8 61.6 55.4 63.6 54 65.9 53.3 72.5 53.3 74 54.2 75.7 55 76.8 55.7 77.7 56.5 78.8 57.2 79.3 57.6 80.5 58.4 82 60.2 83 60.8 83.6 62 84.3 62.7 85.2 64.1 85.9 65.2 86.7 66.8 88.2 70.1 88.9 71.6 89.6 73.3 89.8 74.1 90.5 75.6 91.4 78.4 91.7 79.8 92.1 80.7 92.8 82.4 93.2 84.4 93.4 84.8 93.7 86 94.2 87.1 95.1 89.7 95.4 91.9 95.4 92.7 95.7 93.9 96.3 95.9 96.3 96.8 96.9 98.3 96.9 99.7 97.2 101.1 97.2 102.1 97.5 103.2 97.5 104.3 98 105.5 98.3 107.2 98.8 108.7 99.1 110 99.5 111.5 99.7 112.4 99.7 111.9 100.1 110.1 100.1 100.2 100.5 97.9 100.5 94.2 101.1 91.9 102.1 84.8 102.6 82.5 103.3 80.4 103.6 78.3 104 76.9 104.9 72.3 105.7 70 106.6 67.7 107.9 64.2 110.9 59.2 112.5 57.1 114.1 55.1 116.9 53.1 119.6 51.6 123.9 50.5 128.7 50.5 130.6 51.1 132.4 51.6 134.2 52.5 136 53.9 136.9 54.8 138.7 56.4 139.8 58 140.8 59.5 141.8 60.9 142.9 62.7 143.3 63.7 144.3 65.4 145.8 68.5 146.6 70.6 147.3 74.6 147.3 76.5 147.8 78.5 147.8 81.7 148 83.3 148.5 85.4 148.8 88.1 148.8 96.4 148.5 98.9 148.5 100.7 148.2 103.1 147.8 105 147.6 106.7 147.3 108.7 147.2 111.5 146.9 113.4 146.5 118.8 146 121.3 145.3 124 145 125.6 143.8 130.3 142.8 133.6 142.3 135 140.9 139.4 143.1 141.1 145.8 142.7 148.6 145 151 146.7 154.6 149.6 157.9 152.3 161.6 155.7 174 166.8 178.7 170.9 182.3 175.1 186.8 179.8 190.4 184.3 194.8 189.9 198.8 195.3 201.6 200.2 195.6 203.6"/>
          <path class="cls-1" d="M71.7,139.2l-2.7-6.8-1-2.2-.4-1.7-1-2v-2.6c-.1,0-.9-2.5-.9-2.5l-.5-2.4-.8-2.7-.4-2.7-.4-3.1-.6-3.1-.4-3.4-.5-2.4v-3.8l.7-3.4,1-2.5,2-2.7,1.9-1.2,2.9-2.2h4.1l3.8,1.8,2,3.8,1.7,3.5,1.6,3.9,1,3.4,1,3.8,1.2,4.8.7,3.8.6,4,.4,3.2.8,4.1-2.6,2.8-2.6,1.5-1.9,1.2-1.8,1.3-1.7,1.4-7.3,5.3ZM74.5,128l.3.6h.1c0,0,1.8-1.6,1.8-1.6l2.1-1.5,2.1-1.4,1.3-.8-.2-.9-.4-3.2-.6-3.8-.7-3.6-1.1-4.4-1-3.6-.9-3.1-1.4-3.2-1.6-3.1-.9-1.7-.4-.2h-.3l-1.5,1.1-.9.5-.6.9-.5,1.4-.4,1.9v2.4l.5,2.2.4,3.4.6,3,.4,3.2.4,2.4.7,2.5.5,2.4.9,2.8v2c0,0,.8,1.4.8,1.4l.4,1.9Z"/>
          <path class="cls-1" d="M129,138.1l-6.7-4.8-1.3-1-1.4-.8-1.3-1.2-1.6-1.1-1.8-1.2-3-2.2-2.3-1.6,2.2-4.7.3-1.6,2.5-10.7,1.1-6.1.5-2.5.3-1.9.5-2.6,1.1-1.7,1-1.9,2.4-2.2,2.5-.6,1.9-.6h4.1l2.9,1.3,2.5,2.2,1.3,2.5.7,2.4v3.5s-.5,3-.5,3l-.6,2.5-.7,3-.5,3-2.3,11.5-.6,2.6-3.4,13.3ZM123.7,125.9l1.3.7,1.4-5.9,1.2-6.1,1.1-5.2.5-3.1,1.3-5.6.3-2.3v-1.7l-.3-.8-.5-.9-.7-.6-.7-.3h-1.5l-1.3.4-.9.2-.2.2-.6,1.2-.5.8-.3,1.3-.3,1.9-1.1,5.7-.5,3-.6,2.8-1.9,8-.4,2.1-.2.5.7.5,1.7,1.1,2.1,1.5.8.7Z"/>
          <path class="cls-1" d="M188.8,206.8H18c-9.9,0-18-8.1-18-18V18C0,8.1,8.1,0,18,0h170.8c9.9,0,18,8.1,18,18v170.8c0,9.9-8.1,18-18,18ZM18,6.8c-6.2,0-11.2,5-11.2,11.2v170.8c0,6.2,5,11.2,11.2,11.2h170.8c6.2,0,11.2-5,11.2-11.2V18c0-6.2-5-11.2-11.2-11.2H18Z"/>
          <polygon class="cls-1" points="68.5 166.5 62.7 162.9 65.8 157.9 71 155.7 75.3 154.3 82.1 154.3 82.1 161.1 76.3 161.1 73.2 162.1 70.4 163.3 68.5 166.5"/>
          <polygon class="cls-1" points="131.7 165.9 129.8 163.8 127.6 162.4 125.5 161.1 116 161.1 116 154.3 127.3 154.3 131.3 156.7 134.2 158.6 136.7 161.3 131.7 165.9"/>
          <circle class="cls-1" cx="78.2" cy="169.8" r="7.2"/>
          <circle class="cls-1" cx="123.7" cy="169.8" r="7.2"/>
        </g>
      </g>
    </g>
  </g>
</svg>