<?xml version="1.0" encoding="UTF-8"?>
<svg xmlns="http://www.w3.org/2000/svg" version="1.1" viewBox="0 0 202.8 200.1">
  <defs>
    <style>
      .cls-1 {
        fill: #1174b9;
      }

      .cls-2 {
        fill: #fffdee;
      }
    </style>
  </defs>
  <!-- Generator: Adobe Illustrator 28.7.1, SVG Export Plug-In . SVG Version: 1.2.0 Build 142)  -->
  <g>
    <g id="Layer_1">
      <g id="Layer_1-2" data-name="Layer_1">
        <g>
          <path class="cls-2" d="M22.1,0h158.8c11.4,0,20.6,9.1,20.6,20.3v159.4c0,11.2-9.2,20.3-20.6,20.3H22.1c-11.4,0-20.6-9.1-20.6-20.3V20.4C1.4,9.1,10.7,0,22.1,0Z"/>
          <polygon class="cls-1" points="191.9 197.1 189.2 192.4 185.8 187.7 181.5 182.4 178.1 178.2 173.9 173.9 170.4 169.9 166.2 166.3 163 163.3 158.7 159.6 153.9 155.5 150.5 152.3 147.5 149.9 144.1 147.2 141.6 145.5 139.1 143.4 136.5 141.9 133.7 139.8 130.7 137.9 132 132.9 133.7 127.3 135.2 122.2 135.8 120.2 136 118.5 137.2 113.9 137.2 112.3 137.5 108.6 137.8 107.1 137.8 104.4 138.2 102.2 138.8 98.6 139 97 139 95.1 139.3 92.8 139.3 85.5 139 83.7 138.6 81.7 138.3 79.3 138.3 76.8 137.8 74.8 137.8 72.8 137.3 70.1 136.2 67.5 135.6 66.2 134.6 64.5 134.2 63.6 133.6 62.7 132.5 61.3 131 58.9 128.9 57 128 56.4 127.6 56.1 126.1 55.8 125.1 55.5 122.4 55.5 121.2 55.8 119.8 56.1 116.4 58.2 115.6 59.2 114.2 61.1 112.7 63.5 111.8 65.2 110.7 68 109.8 70.2 109.3 71.8 108.9 74 108 77.4 107.7 79.6 107 81.8 106.6 83.5 106.4 85.6 105.6 90.3 105.2 92 105.2 95.4 104.8 97.6 104.8 107.4 104.5 109 104.5 119.1 99 119.1 98 119.4 92.1 122.6 92.1 113.7 91.8 111.9 90 105.2 89.7 104 89 102.4 89 100.8 88.7 99.7 88.7 98.6 88.4 97.3 88.4 96.5 87.8 95.1 87.8 93.8 87.4 92.3 87 90.4 87 89.3 86.8 88.5 85.4 84.6 84.7 83.1 84.7 82.2 84.6 81.7 83.5 79 83.2 77.4 82.8 76.5 82.5 75.4 81.9 74 81.1 71.9 80.4 70.7 79.9 69.4 79.6 68.8 78.9 67.4 78.4 66.2 78 65.5 77.5 65 76.5 63.7 76.3 63.5 75.6 63 74.6 61.7 73.9 61.2 70.6 58.9 69.3 58.2 65.6 58.2 65.4 58.3 64.4 59 62.2 61 61.2 62.7 59.6 64.4 58.9 65.7 57 68.7 56 71.1 55.1 74.2 54.7 76 53.6 79.6 53.1 83.3 52.8 85.5 52.7 87.3 52.7 88.9 53.1 92 53 93.4 53.4 94.5 53.6 96 54.5 99.3 55.1 102.4 55.6 103.9 56.3 106 56.8 107.8 57.5 110.2 58 112.2 58.7 114.3 60.3 120.7 60.8 122.8 62.3 126.5 64 130.5 65 131.9 68.2 135.9 64 139 62.4 140.1 60.7 141.6 59.5 142.4 53.9 147.2 51.6 149.2 49.8 150.4 49.1 151.1 44.8 155.4 43.7 156.8 42.5 158.2 41.4 159.4 40.7 160.4 39.5 161.4 38.7 162.7 37.3 163.7 36.2 164.7 34.4 166.3 33.1 167.7 31.4 169.5 30 170.9 29 171.9 27.3 174 24.6 176.3 19.9 181.2 18.8 182.4 17.4 184 16.2 185.1 15 186.6 13.9 187.8 12.7 189.2 11.7 190.8 10.5 191.9 9.4 193.4 7.6 195.7 2.4 191.7 4.2 189.4 5.5 187.5 6.5 186.6 7.3 185.2 9.2 183.2 10.2 182.1 11.6 180.5 12.8 179.4 14 177.9 15.2 176.6 20.2 171.4 22.5 169.4 24.4 167.2 25.5 166.1 26.7 164.9 30 161.4 33.7 158.1 34.5 157 35.7 156 36.2 155.2 37.8 153.7 38.6 152.7 40 150.9 44.6 146.2 45.9 145.1 47.7 143.9 49.6 142.2 55.6 137.1 56.8 136.3 58.8 134.6 58.2 133.7 57.3 131.7 56.2 129 54.4 124.8 53.9 122.2 52.3 116 51.6 113.8 51.1 111.8 50.4 109.6 49.9 107.9 49.2 105.8 48.6 103.6 48.5 102.5 48.1 100.7 47.1 97.2 47 96.1 46.4 94.4 46.5 92.2 46.1 89.1 46.1 87 46.2 84.8 46.5 82.4 47.2 78 48.3 74.3 48.8 72.3 49.9 68.7 51.3 65.5 53.2 62.3 54.2 60.6 55.8 58.7 57 56.8 60.4 53.7 62.4 52.3 64.6 51.6 71.1 51.6 72.6 52.5 74.1 53.3 76.2 54.7 77.6 55.7 79 56.5 80.4 58.2 81.3 58.9 82 60 82.7 60.9 83.5 62 84.3 63.3 84.9 64.5 85.6 66 86.1 67.1 86.4 67.9 87.2 69.3 88.1 71.6 88.8 73.2 89.1 74.4 89.6 75.6 89.9 77.2 90.9 79.8 91.3 81.4 91.3 81.7 91.9 83.2 93.2 86.9 93.6 88.7 93.6 89.8 93.8 90.9 94.4 92.8 94.4 93.7 95 95.1 95 96.5 95.3 97.8 95.3 98.9 95.6 100 95.6 101 96.1 102 96.4 103.8 97.2 106.6 97.5 107.8 97.9 109.3 97.9 108.2 98.2 106.6 98.2 97 98.6 94.8 98.6 91.2 99.2 88.9 99.8 84.7 100.1 82.1 100.6 79.9 101.3 77.9 101.6 75.8 102.5 72.5 103 70 103.7 67.8 104.6 65.5 105.9 62.2 107.1 60 108.8 57.4 110.3 55.3 111.8 53.2 114.5 51.6 117.4 49.9 119.7 49.4 121.4 48.9 126.1 48.9 127.9 49.5 129.8 49.9 131.8 51 133.2 52.1 134.3 53.1 136 54.5 138 57.7 138.9 58.8 140 60.4 140.5 61.6 141.5 63.2 142.2 64.8 143.7 68.3 144.4 72.2 144.4 74 144.9 76 144.9 79 145.1 80.6 145.6 82.7 145.9 85.3 145.9 93.4 145.6 95.7 145.6 97.5 145.3 99.7 144.7 103.3 144.4 105.1 144.4 107.7 144 109.7 143.8 112.6 143.8 114.7 142.4 119.9 142.2 121.6 141.6 123.9 139.6 130.6 138.2 135 140.3 136.5 143.1 138.1 145.7 140.2 148.2 142 151.6 144.8 155 147.4 158.4 150.6 163 154.6 167.4 158.4 170.6 161.4 175.2 165.3 178.8 169.5 183.2 173.9 186.7 178.2 191.1 183.7 194.9 188.9 197.7 193.7 191.9 197.1"/>
          <path class="cls-1" d="M70.5,134.8l-2.7-6.6-1-2.2-.4-1.7-.9-2v-2.4c-.1,0-.8-2.3-.8-2.3l-1.3-5.1-.4-2.7-.4-3-.6-3-.4-3.3-.4-2.3v-3.8s.5-2.9.5-2.9l1.1-2.7,1.9-2.6,4.8-3.2h3.8l3.8,1.6,2.1,3.8,1.7,3.4,1.5,3.7,1,3.3,1,3.7,1.1,4.6.7,3.8.5,3.8,1.1,6.9-2.3,2.8-4.5,2.7-1.7,1.3-1.9,1.5-1.8,1.3-5.1,3.9ZM73,123.8l.3.6h.2c0-.1,1.7-1.5,1.7-1.5l2.2-1.6,3.4-2v-.6c-.1,0-.6-3.3-.6-3.3l-.5-3.8-.7-3.4-1.1-4.3-1-3.4-.9-3.1-1.3-3.1-1.5-2.9-.9-1.7-.4-.2h-.4l-2.2,1.4-.7,1-.5,1.3-.3,1.9v2.4l.4,2,.4,3.2.6,2.9.8,5.6,1.1,4.6.9,2.8v2c0,0,.8,1.4.8,1.4l.4,1.7Z"/>
          <path class="cls-1" d="M126.5,133.6l-6.3-4.6-1.4-.9-1.6-1-1.1-.9-1.5-1.2-1.7-1.1-5.2-3.8,2.2-4.6.2-1.4.5-2.7,1.3-5.1.6-2.7.5-2.7,1.9-9.6,1-1.9,1.1-1.9,2.3-1.9,4.4-1.2h3.8l2.8,1.3,2.5,2.1,1.3,2.7.7,2v3.5s-.5,2.9-.5,2.9l-.6,2.4-.7,2.9-1,5.7-1,4.7-1.2,6.2-3.3,12.7ZM121.2,121.8l1.4.9.9-3.4,2.7-13.4.5-3,.7-3.1.6-2.3.3-2.2v-1.7l-.3-.8-.4-.8-.7-.5-.8-.3h-1.6l-2.2.6-.3.3-.5.8-.5.9-.3,1.4-.3,1.6-1.1,5.6-.5,2.8-.6,2.9-1.3,5-.5,2.4-.4,2.2-.2.4.7.5,1.7,1.1,2.7,2.1Z"/>
          <path class="cls-1" d="M185.2,200.1H17.6c-9.7,0-17.6-7.8-17.6-17.4V17.5C0,7.9,7.9.1,17.6.1h167.6c9.7,0,17.6,7.8,17.6,17.4v165.2c0,9.6-7.9,17.4-17.6,17.4ZM17.6,6.7c-6.1,0-11,4.8-11,10.8v165.2c0,6,4.9,10.8,11,10.8h167.6c6.1,0,11-4.8,11-10.8V17.5c0-6-4.9-10.8-11-10.8H17.6Z"/>
          <polygon class="cls-1" points="67.2 161.1 61.6 157.7 64.5 152.8 69.7 150.5 73.8 149.3 80.5 149.3 80.5 155.9 74.8 155.9 71.7 156.8 69.1 158 67.2 161.1"/>
          <polygon class="cls-1" points="129.2 160.5 127.3 158.5 125.2 157.1 123.1 155.9 113.8 155.9 113.8 149.3 124.9 149.3 128.7 151.5 131.7 153.5 134 156.1 129.2 160.5"/>
          <ellipse class="cls-1" cx="76.7" cy="164.3" rx="7" ry="6.9"/>
          <ellipse class="cls-1" cx="121.3" cy="164.3" rx="7" ry="6.9"/>
        </g>
      </g>
    </g>
  </g>
</svg>