<?xml version="1.0" encoding="UTF-8"?>
<svg xmlns="http://www.w3.org/2000/svg" version="1.1" viewBox="0 0 205.1 206.8">
  <defs>
    <style>
      .cls-1 {
        fill: #ff2476;
      }

      .cls-2 {
        fill: #ff2376;
      }

      .cls-3 {
        fill: #fffdee;
      }
    </style>
  </defs>
  <!-- Generator: Adobe Illustrator 28.7.1, SVG Export Plug-In . SVG Version: 1.2.0 Build 142)  -->
  <g>
    <g id="Layer_1">
      <g id="Layer_1-2" data-name="Layer_1">
        <g>
          <path class="cls-3" d="M17.1,3.5h174.3c6.6,0,11.9,5.4,11.9,12v175.8c0,6.6-5.3,12-11.9,12H17.1c-6.6,0-11.9-5.4-11.9-12V15.5c0-6.6,5.3-12,11.9-12h0Z"/>
          <path d="M191.4,3.5c3.2,0,6.2,1.2,8.4,3.5s3.5,5.3,3.5,8.5v175.8c0,3.2-1.2,6.2-3.5,8.5-2.2,2.3-5.2,3.5-8.4,3.5H17.1c-3.2,0-6.2-1.2-8.4-3.5s-3.5-5.3-3.5-8.5V15.5c0-3.2,1.2-6.2,3.5-8.5,2.2-2.3,5.2-3.5,8.4-3.5h174.3M191.4,3.4H17.1c-6.6,0-12,5.4-12,12.1v175.8c0,6.7,5.4,12.1,12,12.1h174.3c6.6,0,12-5.4,12-12.1V15.5c0-6.7-5.4-12.1-12-12.1h0Z"/>
          <polygon class="cls-2" points="194 203.6 191.3 198.8 187.8 193.9 183.5 188.5 180.1 184.1 175.8 179.6 172.2 175.5 168 171.7 164.7 168.6 155.6 160.6 152.1 157.3 145.7 152 143.2 150.3 140.6 148.1 138 146.6 132.2 142.3 133.4 137.4 135.2 131.6 136.7 126.3 137.2 124.1 137.5 122.5 138.2 119.8 138.7 117.7 139 112.4 139.3 110.7 139.4 107.9 139.7 105.7 140 103.7 140.4 102 140.5 100.3 140.5 98.2 140.9 95.8 140.9 88.4 140.5 86.4 140.2 84.5 139.8 82.2 139.8 79.2 139.4 77.2 139.4 75.3 139 73.5 138.8 72.3 138.3 71.1 137 68.3 136 66.6 135.7 65.7 134.9 64.6 134 63.3 132.4 60.8 131.1 59.7 130.3 58.8 129.5 58.2 129 58 127.4 57.6 126.5 57.2 123.6 57.2 122.6 57.4 121.2 57.9 119.2 59 117.8 59.9 116.9 61.1 115.5 63.1 114 65.5 113 67.3 111.9 70.1 111.1 72.4 110.5 74.1 110.1 76.3 109.6 78.6 109.3 79.9 108.9 82 108.2 84.4 107.8 86.2 107.2 91.1 106.4 94.9 106.4 98.6 106 100.9 105.9 111.1 105.6 112.6 105.6 122.9 100.3 123 99.1 123.4 93.1 126.6 93.1 117.5 92.8 115.7 92.4 114.4 92.1 113 91.7 111.6 91.5 110.4 90.9 108.6 90.7 107.3 90 105.6 90 104.2 89.6 103 89.6 101.8 89.4 100.5 89.4 99.6 88.8 98.1 88.8 96.9 88.3 95.4 87.9 93.4 87.9 92.2 87.8 91.3 85.6 85.7 85.6 84.8 85.5 84.3 84.5 81.4 83.8 79 82.6 76.1 82.4 75.3 81.1 72.7 80.8 71.6 79.9 69.6 78.8 67.6 78.4 67 77.5 66.1 77.1 65.4 76.4 64.8 75.4 63.5 74.5 62.9 74 62.5 73.1 61.9 71.5 60.7 70.1 60.1 66.1 60.1 65.1 60.8 64.1 61.7 63 62.9 61.8 64.8 60.4 66.4 59.5 67.9 57.7 70.9 56.7 73.4 55.8 76.5 55.3 78.7 54.7 80.3 54.3 82.1 53.7 86 53.4 88.3 53.4 90.1 53.4 91.9 53.8 95 53.7 96.5 54.1 97.7 54.3 99.2 55.2 102.7 55.5 104.7 56.2 107.4 57 109.6 57.4 111.5 58.2 113.9 58.6 115.9 59.4 118.2 60.4 122.5 61.1 124.8 61.5 126.9 63 130.7 64.8 134.9 65.8 136.4 68.8 140.3 64.8 143.7 63.1 144.8 61.4 146.3 60.3 147 57.1 149.9 54.4 152.1 52.3 154 49.6 156.1 47.7 158.2 46.6 159.1 45.4 160.5 43.1 163.6 41.8 164.8 41.2 165.7 40.1 166.7 39.2 168 37.9 169.1 36.7 170.3 34.9 171.8 33.5 173.3 29.5 177.6 27.5 179.9 25 182.2 21.5 186 20.2 187.1 19.2 188.3 17.8 190.1 16.5 191.4 15.4 192.7 14.2 193.9 12.9 195.5 11.7 197.3 10.8 198.2 7.8 202.1 2.4 198.3 3.2 197.1 5.7 193.8 6.6 192.9 7.6 191.4 9.2 189.4 10.4 188.2 11.6 186.7 12.9 185.5 14.1 184 15.5 182.3 16.8 181.1 20.3 177.3 22.8 175.1 24.6 172.9 25.7 171.9 28.6 168.7 30.3 166.8 32.2 165.2 33.5 164 34.2 163.4 34.9 162.3 36.2 161.1 36.9 160.2 38.2 159 40.3 156.2 41.9 154.3 43 153.3 45 151.1 46.4 150.1 48 148.8 50.1 147 52.8 144.8 56.3 141.6 57.4 140.9 59.5 139.1 58.8 138.1 55.1 128.9 54.5 126.3 54 124.2 52.9 119.9 52.1 117.5 51.7 115.5 51 113.2 50.5 111.4 49.8 109.3 48.9 105.8 48.6 103.9 47.7 100.4 47.5 99.3 46.9 97.5 47 95.2 46.6 92.1 46.7 89.8 46.8 87.6 47.4 82.9 47.7 80.7 48.3 78.3 48.9 76.7 49.3 74.8 50.4 71.1 51.8 67.7 54.8 62.6 56.5 60.6 57.6 58.7 59.5 56.8 61 55.5 63.1 53.9 65.4 53.4 71.9 53.4 73.4 54.2 74.9 54.9 77 56.5 78.2 57.3 78.7 57.7 79.8 58.5 81.2 60.2 82.3 61 82.9 62.1 83.6 62.8 84.5 64.1 85.2 65.2 86 66.8 87.1 69.3 87.4 70.3 88.8 72.9 89.1 74.2 90.2 77 90.9 79.6 91.9 82.4 92.4 84 92.4 84.5 93 86 93.3 87.1 94.3 89.7 94.6 91.6 94.6 92.8 94.9 94 95.5 95.9 95.5 96.9 96.1 98.4 96.1 99.7 96.4 101 96.4 102 96.8 103.2 96.8 104.4 97.2 105.8 97.5 107.2 98 108.7 98.2 110 98.7 111.5 98.9 112.9 99 111.7 99.2 110.2 99.2 100.1 99.7 97.8 99.7 94.3 100.6 89.9 101.2 84.8 101.8 82.6 102.4 80.4 102.8 78.3 103.1 77 103.5 75 104.1 72.3 104.8 70.1 105.7 67.7 107 64.3 108.2 62 110 59.2 111.5 57.2 113 55.1 115.9 53.2 118.6 51.7 121.1 50.9 123 50.5 127.5 50.5 129.4 51.2 131.2 51.6 132.9 52.4 134.9 53.9 135.8 54.8 137.6 56.4 139.6 59.6 140.5 60.9 141.6 62.7 142.1 63.7 143 65.4 144.5 68.5 145.4 70.7 145.6 72.5 146 74.5 146 76.6 146.4 78.6 146.4 81.6 146.8 83.4 147.1 85.4 147.5 87.8 147.5 96.5 147.1 98.9 147.1 100.6 147 103.1 146.6 105 146.3 106.8 146 108.7 145.9 111.5 145.6 113.3 145.3 118.8 144.8 121.3 144.1 124 143.8 125.6 143.2 128 142.5 130.3 139.8 139.5 141.9 141.1 144.6 142.8 147.3 145 149.8 146.7 156.6 152.4 160.2 155.7 169.2 163.7 172.6 166.8 177.1 170.9 180.8 175.1 185.2 179.8 188.7 184.3 193.2 190 197 195.3 199.8 200.2 194 203.6"/>
          <path class="cls-2" d="M71.2,139.3l-2.7-6.9-1-2.2-.4-1.7-1.1-2v-2.6l-.8-2.5-.5-2.5-.6-2.5-.5-2.9-.4-3.1-.6-3.2-.4-3.4-.4-2.4v-3.9s.5-2.9.5-2.9l1.3-3,1.6-2.6,2.1-1.2,2.9-2h4l3.8,1.6,2.1,4.1,1.5,3.3,1.6,3.9,1,3.4,1,3.8,1.1,4.8.7,3.8.6,4,.4,3.2.8,3.9-2.5,3-2.6,1.6-1.9,1.2-1.7,1.3-1.8,1.5-1.9,1.4-5.2,4ZM73.9,128l.3.6h.2c0-.1,1.7-1.6,1.7-1.6l2.1-1.5,2.1-1.4,1.4-.8-.2-.9-.4-3.2-.6-3.8-.7-3.6-1.1-4.5-1-3.5-.9-3.2-1.4-3.3-1.4-3.1-.9-1.8-.4-.2h-.4l-1.5,1-.8.5-.6,1-.6,1.5-.3,1.8v2.5l.4,2.1.4,3.4.6,3.1.4,3.1.5,2.5.6,2.5.5,2.3,1,2.8v2.2l.7,1.4.4,1.9Z"/>
          <path class="cls-2" d="M128,138l-6.7-4.9-1.2-1-1.4-.9-2.8-2.1-1.8-1.2-5.2-4,2.2-4.5.3-1.7,1.9-7.9.6-2.6,1.1-6.1.5-2.5.3-1.9.5-2.4,1-2,1.1-1.8,2.3-2.1,4.5-1.2h4l2.9,1.3,2.4,2.1,1.3,2.5.7,2.4v3.5s-.5,3-.5,3l-.6,2.5-.7,3.1-.6,2.9-.5,3-.5,2.3-1.7,8.9-3.3,13.2ZM122.6,125.8l1.4.9.8-3.4,1.7-8.7.5-2.3.5-2.8.6-3.1.7-3.3.6-2.4.3-2.3v-1.7l-.3-.8-.5-.9-.8-.7-.7-.3h-1.6l-2.1.6-.3.3-.5.9-.5.9-.3,1.5-.3,1.9-1.1,5.7-.5,3-.6,2.8-1.9,7.9-.4,2.3-.2.5.7.5,1.8,1.2,2.8,2.1Z"/>
          <path class="cls-2" d="M187.3,206.8H17.9c-9.9,0-17.9-8.1-17.9-18V18C0,8.1,8,0,17.9,0h169.4c9.9,0,17.9,8.1,17.9,18v170.8c0,9.9-8,18-17.9,18ZM17.9,6.8c-6.1,0-11.1,5-11.1,11.2v170.8c0,6.2,5,11.2,11.1,11.2h169.4c6.1,0,11.1-5,11.1-11.2V18c0-6.2-5-11.2-11.1-11.2H17.9Z"/>
          <polygon class="cls-2" points="68 166.4 62.2 163 65.3 158 70.5 155.6 74.7 154.4 81.4 154.4 81.4 161 75.7 161 72.6 161.9 69.9 163.2 68 166.4"/>
          <polygon class="cls-2" points="130.7 165.8 128.7 163.8 126.5 162.2 124.4 161 115 161 115 154.4 126.2 154.4 130.2 156.6 133.1 158.6 135.5 161.2 130.7 165.8"/>
          <ellipse class="cls-1" cx="77.6" cy="169.8" rx="7.1" ry="7.2"/>
          <ellipse class="cls-1" cx="122.7" cy="169.8" rx="7.1" ry="7.2"/>
        </g>
      </g>
    </g>
  </g>
</svg>