<?xml version="1.0" encoding="UTF-8"?>
<svg xmlns="http://www.w3.org/2000/svg" version="1.1" viewBox="0 0 57.6 53.3">
  <defs>
    <style>
      .cls-1 {
        fill: #fffdee;
        stroke: #ff2376;
        stroke-miterlimit: 10;
        stroke-width: 3px;
      }
    </style>
  </defs>
  <!-- Generator: Adobe Illustrator 28.7.1, SVG Export Plug-In . SVG Version: 1.2.0 Build 142)  -->
  <g>
    <g id="Layer_1">
      <g id="Layer_1-2" data-name="Layer_1">
        <g id="Layer_3">
          <polygon class="cls-1" points="27.6 51.5 26.5 51 24.6 49.7 23.1 47.7 21.4 45.6 19 43.1 17.3 40.8 14.9 38.3 12.7 35.4 11.3 32.6 9.7 29.9 8.1 27.9 6.5 25.1 5.1 23.3 4.2 21.3 2.7 19.3 1.5 16.7 1.5 14.6 1.8 12.8 2.7 11.2 4 9.3 6.2 6.2 7.6 4.4 9.8 3 12.2 2.8 13.3 2.7 15.3 3.3 17 4.3 17.9 4.9 19.8 6.2 21.9 8 23.7 10 24.3 10.7 25.1 11.8 26.2 12.8 27.6 12.2 28.1 11.4 29.9 8.1 31.4 5.7 32.6 4.3 33.1 3.7 35.9 1.7 37.4 1.5 39 1.8 40.9 2.7 42.1 3.3 44.6 4.8 45.9 5.7 47 6.6 47.9 7.4 49.4 8.8 50.2 10.3 51.1 11.8 51.5 13.2 51.5 14.7 51.5 15.8 51.2 18 50.7 19.4 49.4 21.9 48.2 24.1 46.9 26.1 44.7 28.8 42.6 31.8 40.6 35 38.8 36.7 36.9 39.5 34.5 42.4 32.8 44.6 30.7 47.7 29.2 50.2 27.6 51.5"/>
        </g>
      </g>
    </g>
  </g>
</svg>