<?xml version="1.0" encoding="UTF-8"?>
<svg id="Layer_1" xmlns="http://www.w3.org/2000/svg" version="1.1" viewBox="0 0 120 40">
  <!-- Generator: Adobe Illustrator 29.0.0, SVG Export Plug-In . SVG Version: 2.1.0 Build 186)  -->
  <defs>
    <style>
      .st0 {
        fill: #1174b9;
      }

      .st1 {
        fill: #fffeee;
      }
    </style>
  </defs>
  <g>
    <rect class="st1" x="2.3" y="2.3" width="115.4" height="35.4" rx="7.7" ry="7.7"/>
    <path class="st0" d="M110,4.6c3,0,5.4,2.4,5.4,5.4v20c0,3-2.4,5.4-5.4,5.4H10c-3,0-5.4-2.4-5.4-5.4V10c0-3,2.4-5.4,5.4-5.4h100M110,0H10C4.5,0,0,4.5,0,10v20c0,5.5,4.5,10,10,10h100c5.5,0,10-4.5,10-10V10c0-5.5-4.5-10-10-10h0Z"/>
  </g>
  <g>
    <path d="M18.1,20.7v3.6c0,.9-.3,1.3-.9,1.3s-.5,0-.6-.2c-.1-.1-.2-.3-.2-.5,0-.8,0-2.2,0-4.1-.3,0-.7,0-1.3,0s-1.5,0-2.7-.2v.5c0,.3,0,1.6.2,3.6,0,.3,0,.4-.3.6-.2.1-.4.2-.6.2s-.4,0-.5-.2c-.1-.1-.2-.3-.2-.4-.2-1.7-.3-2.9-.3-3.8s0-1.4,0-1.7v-4c.1-.2.2-.4.4-.5.2-.1.4-.2.6-.2.4,0,.6.2.6.5v3.8c.8.1,1.4.2,2,.2h1.8c0-.9,0-2.2,0-4s.1-.4.3-.6.4-.2.7-.2.4.1.5.3.1.4.1.6v5.2Z"/>
    <path d="M24.9,14.6c1.2,0,2.1.5,2.9,1.4.7.9,1.1,2.2,1.1,3.7s-.4,3-1.2,4.1c-.8,1.2-1.8,1.7-3,1.7s-2.4-.6-3.3-1.7c-.8-1.2-1.3-2.6-1.3-4.2s.4-2.9,1.3-3.7c.9-.8,2.1-1.2,3.5-1.2ZM27.1,20c0-1.3-.2-2.2-.6-2.8s-1-.9-1.9-.9-1.6.3-2.2.9c-.5.6-.8,1.4-.8,2.4s.3,2,.8,2.9c.5.9,1.3,1.3,2.3,1.3s1-.2,1.4-.7c.6-.8,1-1.8,1-3.1Z"/>
    <path d="M30.6,15.7c0-.3,0-.5.3-.8.2-.2.4-.3.7-.3s.6.2.6.6c0,.5.2,1.7.4,3.4.2,1.7.4,3.1.5,4.1.3-.5.5-1.1.8-1.7.3-.6.5-1.1.6-1.3.4-.8.8-1.2,1.3-1.2s.7.4,1,1.2c.9,1.9,1.4,2.9,1.5,3,.6-2.8,1.1-5.4,1.3-7.7,0-.2.1-.4.3-.5s.4-.3.6-.3.4,0,.5.2c.1.1.2.2.2.4,0,.9-.6,4.2-1.8,10,0,.4-.4.6-1,.6s-.5-.1-.6-.4c-.3-.5-.7-1.3-1.2-2.2-.5-1-.8-1.6-1-1.9-.7,1.6-1.3,2.8-1.7,3.5-.4.7-.9,1.1-1.4,1.1s-.5-.3-.8-.8-.3-1-.4-1.4c0-.4-.4-3-.9-7.7Z"/>
    <path d="M53.3,16v5.7c0,1.2,0,2.2,0,3.1,0,.2,0,.4-.3.6-.2.2-.4.2-.7.2-.4,0-.6-.2-.6-.7,0-1.7,0-3.4,0-5s0-2.9.1-3.9c-1,0-1.9.1-2.9.1s-.7-.2-.7-.6,0-.4.3-.6c.2-.2.4-.3.6-.3l7.5-.2c.4,0,.6.3.6.6,0,.7-.8,1-2.3,1h-1.6Z"/>
    <path d="M63.5,14.6c1.2,0,2.1.5,2.9,1.4.7.9,1.1,2.2,1.1,3.7s-.4,3-1.2,4.1c-.8,1.2-1.8,1.7-3,1.7s-2.4-.6-3.3-1.7c-.8-1.2-1.3-2.6-1.3-4.2s.4-2.9,1.3-3.7c.9-.8,2.1-1.2,3.5-1.2ZM65.8,20c0-1.3-.2-2.2-.6-2.8s-1-.9-1.9-.9-1.6.3-2.2.9-.8,1.4-.8,2.4.3,2,.8,2.9,1.3,1.3,2.3,1.3,1-.2,1.4-.7c.6-.8,1-1.8,1-3.1Z"/>
    <path d="M78,14.5c1.2,0,2.1.3,2.8.8.7.5,1,1.2,1,2,0,1.3-.4,2.3-1.2,2.9-.6.4-1.4.7-2.4.7s-.8,0-1.2,0c0,.9,0,1.8,0,2.5s0,1.3,0,1.8c0,.4-.3.6-.7.6s-.7,0-.9-.3c-.1-.2-.2-.4-.2-.8v-9c0-.7,1-1,2.8-1ZM76.9,16.2c0,.5,0,1,0,1.5v1.3c.4,0,.9,0,1.4,0s.9,0,1.3-.3c.5-.3.7-.7.7-1.4v-.2c0-.4-.4-.7-1.2-.9-.4-.1-.8-.2-1.2-.2s-.7,0-1,0Z"/>
    <path d="M86.8,25.6h-2.3c-.4,0-.6-.1-.7-.4,0-.7-.1-1.7-.1-3.1l.2-7c0-.4.3-.6.9-.6s.6,0,.7.2c.2.1.3.3.3.6,0,.7-.1,1.6-.3,2.8-.2,1.6-.3,2.7-.3,3.4s0,1.6,0,2.6l3.6-.2c.5,0,.8.3.8.8s-.2.7-.5.8c-.7.1-1.5.2-2.4.2Z"/>
    <path d="M92.9,25c0,.4-.3.6-.9.6s-.8-.2-.8-.6c0-.9.5-2.9,1.4-5.8.4-1.3.9-2.4,1.4-3.3.5-.9,1-1.3,1.5-1.3s.5.2.7.5c.2.3.5,1,1,2.1.5,1.1.9,2.2,1.3,3.4.3,1.2.7,2.7,1.1,4.4,0,.2,0,.4-.2.5-.1.1-.3.2-.5.2-.5,0-.8-.2-1-.7l-.8-3.3c-1.4,0-2.5-.1-3.4-.3-.5,1.8-.8,3-.8,3.6ZM95.5,16.7c-.5.9-1,1.9-1.3,3,.7.2,1.5.3,2.5.3-.3-1.1-.7-2.2-1.2-3.3Z"/>
    <path d="M108.2,14.4c.4,0,.6.2.6.6s-.2,1-.6,1.7c-.1.2-.4.5-.6.9-.3.4-.5.7-.6.9-.1.2-.3.4-.5.7-.2.3-.4.6-.6.9v2.1c0,1.4,0,2.4-.1,2.8,0,.4-.4.6-.9.6s-.2,0-.3,0c-.2-.2-.3-.7-.3-1.6v-2.6c0-.4,0-.8,0-1.3-.7-.8-1.6-2.3-2.7-4.4,0,0,0-.2,0-.3s0-.2.1-.4c.2-.3.5-.5.8-.5s.8.8,1.8,2.4c.4.7.7,1.2.9,1.5.3-.4.6-.9.9-1.4s.6-.9.7-1.2c.5-.8.8-1.2,1.1-1.3.1,0,.2-.1.3-.1Z"/>
  </g>
</svg>