<?xml version="1.0" encoding="UTF-8"?>
<svg id="Layer_1" xmlns="http://www.w3.org/2000/svg" version="1.1" viewBox="0 0 170 40">
  <!-- Generator: Adobe Illustrator 29.0.0, SVG Export Plug-In . SVG Version: 2.1.0 Build 186)  -->
  <defs>
    <style>
      .st0 {
        fill: #1174b9;
      }

      .st1 {
        fill: #fffdee;
      }
    </style>
  </defs>
  <g>
    <rect class="st1" x="2" y="2" width="166" height="36" rx="8.1" ry="8.1"/>
    <path class="st0" d="M159.9,4c3.4,0,6.1,2.7,6.1,6.1v19.8c0,3.4-2.7,6.1-6.1,6.1H10.1c-3.4,0-6.1-2.7-6.1-6.1V10.1c0-3.4,2.7-6.1,6.1-6.1h149.8M159.9,0H10.1C4.5,0,0,4.5,0,10.1v19.8c0,5.6,4.5,10.1,10.1,10.1h149.8c5.6,0,10.1-4.5,10.1-10.1V10.1c0-5.6-4.5-10.1-10.1-10.1h0Z"/>
  </g>
  <g>
    <path d="M10.4,22.6v-1.6s.2-8.8.2-8.8c0-.2,0-.3.3-.4.2,0,.4-.1.7-.1.7,0,1,.2,1,.7s0,1.3-.2,3.5c-.2,2.2-.2,3.5-.2,3.9v2.2c0,1,0,1.6.2,1.7.2,0,.5.1.7.1l3-.2c.7,0,1,.2,1,.7s-.2.7-.5.8c-.4.2-.7.3-1.1.3-.4,0-.8,0-1.3,0-2.2,0-3.4,0-3.6-.2,0,0-.2-.4-.2-1s0-.9,0-1.2c0-.2,0-.4,0-.6Z"/>
    <path d="M19.7,12.1c.2-.1.5-.2.7-.2s.5.2.5.5c0,1.6,0,4.1,0,7.3,0,2,0,3.6-.2,5,0,.2-.2.4-.4.6-.2.2-.5.2-.7.2-.4,0-.6-.2-.6-.6.1-1.4.2-3.1.2-5.2v-7.1c0-.2,0-.4.3-.5Z"/>
    <path d="M28.1,11.6c.9,0,1.7.2,2.3.5.6.3,1,.7,1,1.2s0,.4-.2.5c-.1.2-.3.2-.5.2s-.6-.2-1.3-.5c-.7-.3-1.3-.5-1.8-.5s-1.1.2-1.7.5-.9.8-.9,1.3.4,1.2,1.1,1.5c.5.2,1.3.5,2.3.6,1,.2,1.8.6,2.4,1.2s.9,1.5.9,2.6c0,1.8-.5,3.1-1.6,4-.6.5-1.5.7-2.6.7s-2.2-.3-3.3-.9c-.7-.4-1.1-.8-1.1-1.1s0-.3.2-.5.3-.3.5-.4c.2-.1.4-.1.6,0,.2,0,.5.2.9.4.4.2.7.3.9.4.6.2,1.1.3,1.7.3s1-.3,1.5-.8c.5-.5.7-1.1.7-1.9s-.5-1.7-1.5-2.1c-.5-.2-1-.3-1.6-.4-1.2-.2-2.2-.6-2.8-1.1s-.9-1.3-.9-2.4.5-1.9,1.4-2.5c.9-.6,2.1-.9,3.5-.9Z"/>
    <path d="M33.1,11.9h8.5c.4,0,.6.2.6.5,0,.7-.3,1-.9,1-1,0-2.2,0-3.3,0,0,1.2-.1,2.1-.1,2.7v8.5c0,.4,0,.7-.3.8-.2,0-.4,0-.6,0-.4,0-.6-.2-.7-.7,0-1.1-.1-3.1-.1-6s0-4.7.1-5.3c-.3,0-.7,0-1.3,0s-1.3,0-2.1,0c-.2,0-.4,0-.5-.2-.1-.1-.2-.3-.2-.5s0-.4.3-.6.4-.3.6-.3Z"/>
    <path d="M43.2,18.3c-.2-.1-.3-.3-.3-.5s0-.5.2-.7c0-1.4,0-2.9,0-4.4,0-.3.2-.6.4-.7s.4-.3.8-.3c1.8,0,3.8.1,6,.1.5.1.8.3.8.7,0,.6-.6.9-1.7,1-.3,0-.6,0-1,0h-1.4c-.3,0-1,0-2.2-.2,0,1.8,0,3,0,3.6.7,0,2.2,0,4.3,0,.5,0,.8.3.8.7s-.2.6-.6.8c0,0-.1,0-.2,0h-3.6c-.2,0-.4,0-.5,0v3.6c0,.8,0,1.4,0,1.7h4.9c.4,0,.7.2.7.5s0,.4-.3.6c-.2.2-.4.3-.7.4h-5.4c-.3,0-.5,0-.7,0s-.2-.3-.2-.6c0-.4,0-1,0-1.9v-4.6Z"/>
    <path d="M60.7,11.6c.2,0,.4,0,.6.3.2.2.3.4.3.7,0,5.5,0,8.8,0,9.9,0,1.1,0,1.7,0,1.8,0,.3,0,.6-.3.9-.2.3-.4.4-.6.4s-.4,0-.5,0c-.1,0-.2,0-.3,0,0,0-.2,0-.3-.2l-.2-.2c0,0-.1-.2-.2-.3,0-.2-.2-.3-.2-.4s-.1-.3-.3-.5c-.1-.2-.4-.7-.8-1.5-.4-.8-.8-1.4-1.1-2-1.1-2-2.1-3.6-3.1-4.8,0,4.6-.1,7.7-.4,9.5,0,.3-.3.5-.8.5s-.4,0-.6-.2c-.1-.1-.2-.3-.2-.5s0-1.6.2-4.2c.1-2.5.2-4.1.2-4.7v-1.2c0-1,0-1.6.2-1.7.2-.1.3-.2.5-.2.8,0,1.9,1.3,3.5,3.8.3.5.9,1.5,1.8,3.1.9,1.6,1.4,2.5,1.6,2.9l-.3-8.7c0-1.2.1-1.9.4-2.1.1,0,.3-.1.5-.1Z"/>
    <path d="M75.4,14.6c0,.7-.2,1.3-.6,1.8-.4.5-1,1-1.9,1.5.2.3.4.6.8,1.2.4.5.6.8.7,1l.7,1.1c.4-.7.7-1.2.7-1.6.1-.4.4-.6.9-.6s.4,0,.6.2c.2.1.2.3.2.5,0,.5-.5,1.5-1.6,2.8.4.8.8,1.6,1,2.2,0,.2-.1.4-.3.5-.2.2-.4.2-.6.2s-.4,0-.6-.3c-.1-.2-.2-.4-.3-.6s-.2-.5-.4-.9c-.6.7-1.2,1.2-1.6,1.4-.4.2-.9.4-1.5.4s-1.1-.2-1.7-.7c-.6-.4-1-1-1.3-1.7-.3-.6-.4-1.2-.4-1.8,0-.9.2-1.7.7-2.2.5-.6,1.2-1.1,2.1-1.6-.7-1.2-1-2.2-1-3.1s.3-1.5.8-2,1.2-.8,1.9-.8,1.4.3,1.9.9c.5.6.8,1.3.8,2ZM71.7,23.7c.7,0,1.5-.4,2.4-1.3,0,0-.1-.2-.2-.3,0-.1-.2-.3-.4-.6s-.4-.6-.7-1c-.3-.4-.6-.9-.9-1.4l-.2-.3c-.4.3-.8.6-.9.7-.6.5-.9,1.2-.9,1.9s.2,1.3.7,1.9c.3.3.6.5,1,.5ZM72.8,13.2c-.7,0-1.1.6-1.1,1.8,0,.6.3,1.2.6,1.8,1-.6,1.5-1.2,1.5-1.8s-.1-1-.3-1.4c-.2-.3-.4-.5-.6-.5Z"/>
    <path d="M84.5,23.4c0-1.4-.1-3.4-.1-5.8s0-4,.1-4.8c0-.4.4-.7.9-.9.5-.1,1.3-.2,2.2-.2,1.3,0,2.4.3,3.3.9.9.6,1.4,1.4,1.4,2.5s-.1,1.7-.4,2.3c-.3.6-.6,1.1-.9,1.4-.6.5-1.5.7-2.7.7s-1.2,0-2-.2c0,2.8,0,4.6,0,5.3,0,.7-.3,1.1-.7,1.1s-.5,0-.6-.2-.1-.2-.2-.2c0,0,0-.1,0-.2s0-.2,0-.2c0,0,0-.2,0-.3,0-.1,0-.2,0-.3,0-.2,0-.4,0-.7ZM90.4,15c0-.6-.3-1-.9-1.3s-1.3-.5-2-.5-1.2,0-1.5.2c0,.8,0,1.6,0,2.3s0,1.3,0,1.9c.4,0,.6,0,.8.1.4,0,.7,0,.9,0s.4,0,.5,0c0,0,.3,0,.5,0,.3,0,.4,0,.6-.2s.3-.2.4-.3.3-.3.4-.5c.2-.5.3-1,.3-1.6Z"/>
    <path d="M95.5,25.3c-.2.2-.5.3-.7.3s-.4-.2-.5-.5c0-1.8,0-3.7,0-5.5v-5.3c0-1.1.4-1.8,1.3-2.2.8-.3,1.7-.5,2.7-.5s1.1.1,1.7.4c.6.3,1.2.6,1.6,1.1.5.5.7,1,.7,1.6s-.3,1.2-.8,1.9c-.5.7-1.2,1.3-2,1.8-.8.5-1.5.9-2.3,1.1,1.3.9,2.4,1.9,3.4,2.9s1.4,1.9,1.4,2.4,0,.4-.3.5c-.2.2-.4.2-.7.2s-.5-.1-.7-.3c-.3-.7-.9-1.5-1.8-2.3-.9-.8-1.9-1.6-3-2.3v4c.1.3,0,.5-.2.7ZM98.9,17.1c1.2-.7,1.8-1.4,1.8-2s-.3-1.1-.9-1.4c-.6-.3-1.3-.5-2.1-.5s-1.4,0-1.9.3c0,.7,0,2.3,0,4.7.9,0,2-.4,3.2-1.2Z"/>
    <path d="M108.3,11.7c.3,0,.6.2.9.5.2.3.5.9.9,1.9.9,2.3,1.7,5.9,2.6,10.7,0,0,0,.1,0,.2s0,.2-.2.3c-.1.1-.3.2-.6.2s-.5,0-.6-.2c-.2-.1-.3-.3-.3-.6,0-.3-.2-.8-.3-1.6-.3-1.8-.6-2.7-.7-2.8-.2,0-.7-.2-1.7-.3-.9-.1-1.6-.2-1.9-.2s-.5,0-.5,0c-.3.2-.6,1.9-1,5.1,0,.3-.3.4-.8.4s-.7-.2-.7-.6c0-1,.4-2.9,1.1-5.8s1.4-4.7,1.8-5.6c.6-1.2,1.3-1.8,2-1.8ZM108.2,14c-.2,0-.6.6-1.1,1.9-.5,1.2-.8,2-.8,2.3s0,.1,0,.1c.1.1.6.2,1.3.3.8,0,1.3.1,1.5.1s.4,0,.4,0c0,0,0-.1,0-.3s-.2-1-.6-2.3c-.4-1.4-.7-2-.9-2Z"/>
    <path d="M120.2,11.8c.9,0,2,.2,3.1.5.3.2.4.4.4.6s-.1.4-.3.6c-.2.2-.5.3-.8.3-.8-.2-1.5-.3-2.1-.3-1.5,0-2.7.4-3.4,1.3-.8.9-1.2,2.2-1.2,4s.5,3.1,1.4,4.1c.5.5,1,.8,1.7.8s1.7-.3,3.2-1c.5-.2.8-.4,1-.4.4,0,.5.2.5.6s-.2.7-.5.9c-1.2.6-2.1,1.1-2.8,1.3s-1.3.3-1.7.3c-1,0-1.9-.4-2.6-1.1-1.3-1.4-1.9-3.2-1.9-5.6s.6-4.1,1.8-5.3c1.2-1.1,2.7-1.7,4.4-1.7Z"/>
    <path d="M125.6,11.9h8.5c.4,0,.6.2.6.5,0,.7-.3,1-.9,1-1,0-2.2,0-3.3,0,0,1.2-.1,2.1-.1,2.7v8.5c0,.4,0,.7-.3.8-.2,0-.4,0-.6,0-.4,0-.6-.2-.7-.7,0-1.1-.1-3.1-.1-6s0-4.7.1-5.3c-.3,0-.7,0-1.3,0s-1.3,0-2.1,0c-.2,0-.4,0-.5-.2-.1-.1-.2-.3-.2-.5s0-.4.3-.6.4-.3.6-.3Z"/>
    <path d="M136.6,12.1c.2-.1.5-.2.7-.2s.5.2.5.5c0,1.6,0,4.1,0,7.3,0,2,0,3.6-.2,5,0,.2-.2.4-.4.6-.2.2-.5.2-.7.2-.4,0-.6-.2-.6-.6.1-1.4.2-3.1.2-5.2v-7.1c0-.2,0-.4.3-.5Z"/>
    <path d="M146.5,11.8c.9,0,2,.2,3.1.5.3.2.4.4.4.6s-.1.4-.3.6c-.2.2-.5.3-.8.3-.8-.2-1.5-.3-2.1-.3-1.5,0-2.7.4-3.4,1.3-.8.9-1.2,2.2-1.2,4s.5,3.1,1.4,4.1c.5.5,1,.8,1.7.8s1.7-.3,3.2-1c.5-.2.8-.4,1-.4.4,0,.5.2.5.6s-.2.7-.5.9c-1.2.6-2.1,1.1-2.8,1.3s-1.3.3-1.7.3c-1,0-1.9-.4-2.6-1.1-1.3-1.4-1.9-3.2-1.9-5.6s.6-4.1,1.8-5.3c1.2-1.1,2.7-1.7,4.4-1.7Z"/>
    <path d="M152.1,18.3c-.2-.1-.3-.3-.3-.5s0-.5.2-.7c0-1.4,0-2.9,0-4.4,0-.3.2-.6.4-.7s.4-.3.8-.3c1.8,0,3.8.1,6,.1.5.1.8.3.8.7,0,.6-.6.9-1.7,1-.3,0-.6,0-1,0h-1.4c-.3,0-1,0-2.2-.2,0,1.8,0,3,0,3.6.7,0,2.2,0,4.3,0,.5,0,.8.3.8.7s-.2.6-.6.8c0,0-.1,0-.2,0h-3.6c-.2,0-.4,0-.5,0v3.6c0,.8,0,1.4,0,1.7h4.9c.4,0,.7.2.7.5s0,.4-.3.6c-.2.2-.4.3-.7.4h-5.4c-.3,0-.5,0-.7,0s-.2-.3-.2-.6c0-.4,0-1,0-1.9v-4.6Z"/>
  </g>
</svg>