<?xml version="1.0" encoding="UTF-8"?><svg id="Layer_1" xmlns="http://www.w3.org/2000/svg" viewBox="0 0 80 40"><defs><style>.cls-1{fill:#00c22d;}.cls-2{fill:#fffdee;}</style></defs><rect class="cls-2" x="2" y="2" width="76" height="36" rx="8.0029" ry="8.0029"/><path class="cls-1" d="M69.9972,4c3.3099,0,6.0028,2.6928,6.0028,6.0028v19.9945c0,3.3099-2.6928,6.0028-6.0028,6.0028H10.0028c-3.3099,0-6.0028-2.6928-6.0028-6.0028V10.0028c0-3.3099,2.6928-6.0028,6.0028-6.0028h59.9945M69.9972,0H10.0028C4.4784,0,0,4.4784,0,10.0028v19.9945c0,5.5244,4.4784,10.0028,10.0028,10.0028h59.9945c5.5244,0,10.0028-4.4784,10.0028-10.0028V10.0028c0-5.5244-4.4784-10.0028-10.0028-10.0028h0Z"/><path d="M18.5928,26.3057l-2.2798-.0244c-.4004,0-.624-.1191-.6724-.3594-.0957-.6719-.144-1.7197-.144-3.1445l.168-6.9595c0-.3999.3042-.6001.9121-.6001.3037,0,.5522.0718.7441.2158s.2881.3442.2881.6001c-.0322.6719-.1201,1.6001-.2642,2.7842-.1763,1.5518-.2642,2.6841-.2642,3.396s.0244,1.5635.0723,2.5557l3.5518-.2158c.5283,0,.792.2725.792.8154,0,.4492-.168.7051-.5039.7686-.7197.1123-1.52.168-2.3999.168Z"/><path d="M23.4648,26.2812c-.4482,0-.6719-.1914-.6719-.5762l.0957-9.7676c0-.2236.0801-.4038.2402-.5396s.3555-.2041.5879-.2041c.2314,0,.4326.0562.6006.168s.2598.2998.2754.564.0244.8521.0244,1.7642c0,4.272-.0322,6.8726-.0967,7.8003-.0156.207-.1396.3916-.3711.5508-.2324.1602-.4609.2402-.6846.2402Z"/><path d="M26.5605,17.9058c0-.752.3838-1.396,1.1523-1.9321.7676-.5356,1.707-.8037,2.8193-.8037s1.9561.144,2.5322.4316c.5762.2881.8643.6562.8643,1.104,0,.2085-.0684.3804-.2041.5161-.1357.1362-.2998.2041-.4922.2041-.1914,0-.5723-.1279-1.1396-.3843-.5684-.2554-1.0801-.3838-1.5361-.3838s-.9365.124-1.4404.3721-.7559.5562-.7559.9238c0,.3682.3037.6963.9121.9839.6084.2881,1.3281.5366,2.1602.7441.832.208,1.3877.4121,1.668.6123.2793.2002.4805.3599.5996.48.1201.1196.2441.3521.3721.6958.1279.3447.1924.7881.1924,1.332,0,1.168-.3799,2.0361-1.1396,2.6045-.7607.5674-1.665.8516-2.7129.8516s-1.9473-.168-2.6992-.5039c-.7529-.3359-1.1279-.752-1.1279-1.248,0-.2559.1074-.4844.3232-.6836.2168-.2002.4443-.252.6846-.1562,1.5039.5918,2.4482.8877,2.832.8877.6875,0,1.2158-.1719,1.584-.5166.3672-.3438.5518-.7793.5518-1.3066,0-.5293-.208-.9326-.624-1.2129-.416-.2793-.916-.4834-1.5-.6118-.584-.1279-1.168-.272-1.752-.4321-.584-.1597-1.084-.4399-1.5-.8398s-.624-.9756-.624-1.728Z"/><path d="M40.96,16.6577l-.0479,5.688c0,1.1836.0156,2.2246.0479,3.1201.0156.2393-.084.4365-.2998.5879-.2158.1523-.4365.2275-.6602.2275-.416,0-.624-.2227-.624-.6719-.0479-1.7432-.0723-3.4033-.0723-4.9795s.0488-2.876.1445-3.8999c-.96.0801-1.9365.1196-2.9277.1196-.4961,0-.7441-.2075-.7441-.624,0-.1919.0918-.3838.2754-.5757.1846-.1924.3887-.2959.6123-.312l7.4883-.2402c.4316.0962.6475.3042.6475.624,0,.6562-.752.9839-2.2559.9839l-1.584-.0479Z"/><path d="M48.4248,20.8818l.0479,3.1436c0,.416-.0088.6406-.0244.6719l4.1523-.0713c.4639.0479.6963.248.6963.5996,0,.6729-.3125,1.0088-.9365,1.0088l-4.7041.0469c-.2881,0-.5-.0996-.6357-.2988-.1357-.2012-.2119-.4121-.2275-.6367-.0166-.2236-.0244-.4717-.0244-.7441v-3.9839c-.208-.1118-.3125-.2798-.3125-.5039s.0879-.4238.2646-.6001c-.0479-1.248-.0723-2.3838-.0723-3.4077,0-.5918.3604-.896,1.0801-.9121h.6719l4.2002.0718h.0234c.5127.0645.7686.3042.7686.7202,0,.3203-.0957.5361-.2881.6479-.416.2241-1.416.3359-3,.3359-.5918,0-1.1846-.0239-1.7764-.0718,0,1.4399.0078,2.248.0244,2.4238.624.0161,1.8477.0239,3.6719.0239.4961.064.7441.2881.7441.6719,0,.1924-.0801.3765-.2402.5522-.1602.1763-.332.2759-.5156.2998-.1846.0239-.5762.0361-1.1758.0361-.6006,0-1.4043-.0078-2.4121-.0239Z"/><path d="M57.3994,18.7939l-.2637,5.832c-.0166.5127-.0322.8564-.0479,1.0322-.0645.4316-.3447.6475-.8398.6475-.1924,0-.3643-.0674-.5166-.2041-.1523-.1357-.2363-.3076-.252-.5156.1279-4.1602.1924-6.4043.1924-6.7324v-1.0918c0-.3999.0391-.7598.1201-1.0801.1113-.4321.3994-.6479.8633-.6479.2246,0,.5039.1523.8408.4561.3359.3042.8232.8638,1.4639,1.6802,1.5195,1.8716,2.6719,3.6406,3.4561,5.3037-.0322-2.2715-.0889-4.0039-.168-5.1958-.0811-1.1919-.1201-1.8438-.1201-1.9561v-.1919c.1113-.6079.4395-.9121.9834-.9121.208,0,.4004.0923.5762.2759.1758.1841.2637.4121.2637.6841l.1201,8.9277c0,.832-.3359,1.248-1.0078,1.248-.4004,0-.7119-.1396-.9355-.4199-.2246-.2793-.3848-.5-.4805-.6602s-.2402-.416-.4316-.7676c-1.2324-2.3203-2.5049-4.2241-3.8164-5.7119Z"/></svg>