<?xml version="1.0" encoding="UTF-8"?>
<svg id="Layer_1" xmlns="http://www.w3.org/2000/svg" version="1.1" viewBox="0 0 264 41">
  <!-- Generator: Adobe Illustrator 29.0.0, SVG Export Plug-In . SVG Version: 2.1.0 Build 186)  -->
  <defs>
    <style>
      .st0 {
        stroke-width: .6px;
      }

      .st0, .st1, .st2, .st3 {
        stroke: #00c22d;
        stroke-miterlimit: 10;
      }

      .st0, .st4 {
        fill: #fffdee;
      }

      .st1, .st3 {
        stroke-width: 1.2px;
      }

      .st1, .st5 {
        fill: #00c22d;
      }

      .st2 {
        stroke-width: 2.3px;
      }

      .st2, .st3 {
        fill: none;
      }

      .st6 {
        fill: #1174b9;
      }
    </style>
  </defs>
  <rect class="st0" x="3.8" y="4.6" width="35.2" height="35.2" rx="5.4" ry="5.4"/>
  <polyline class="st3" points="3.8 35.2 3.9 35.1 4.1 34.8 4.3 34.5 4.5 34.3 4.7 34 5 33.7 5.2 33.5 5.4 33.2 5.7 33 5.9 32.7 6.1 32.5 6.3 32.2 6.7 31.8 7 31.6 7.4 31.2 7.7 30.8 8 30.6 8.2 30.3 8.5 30 8.7 29.7 9.1 29.4 9.3 29.2 9.5 29.1 9.6 28.9 9.9 28.7 10 28.5 10.2 28.2 10.4 28 10.6 27.7 10.9 27.5 11.1 27.3 11.4 26.9 11.6 26.7 12 26.5 12.3 26.2 12.8 25.8 13 25.6 13.4 25.2 13.6 25.1 13.9 24.8 14.2 24.6 14.5 24.4 14.3 24.2 14 23.8 13.9 23.5 13.7 23 13.5 22.6 13.4 22.3 13.3 21.9 13.2 21.5 13.1 21.1 13 20.7 12.9 20.3 12.8 19.9 12.7 19.5 12.6 19.2 12.5 18.8 12.4 18.5 12.3 18.2 12.3 17.9 12.1 17.3 12 17 12 16.7 12 16.4 11.9 15.9 11.9 15.5 11.9 15.1 12 14.7 12 14.3 12.1 14 12.2 13.6 12.3 13.3 12.4 12.9 12.5 12.6 12.5 12.3 12.6 12.1 12.8 11.8 12.9 11.5 13.1 11.2 13.3 10.9 13.6 10.6 13.8 10.3 14 10 14.3 9.8 14.5 9.6 14.8 9.5 15 9.5 15.2 9.5 15.4 9.5 15.7 9.5 15.9 9.6 16.1 9.7 16.2 9.8 16.4 10 16.6 10.1 16.7 10.2 16.9 10.3 17 10.4 17.1 10.6 17.3 10.7 17.4 10.8 17.5 11 17.6 11.2 17.7 11.3 17.8 11.6 18 11.8 18 12 18.1 12.2 18.2 12.4 18.3 12.7 18.4 12.9 18.5 13.1 18.6 13.3 18.7 13.5 18.7 13.8 18.8 14.1 18.9 14.3 19 14.5 19 14.6 19 14.8 19.1 15 19.2 15.2 19.3 15.4 19.3 15.6 19.4 15.8 19.4 16.1 19.4 16.3 19.5 16.6 19.5 16.8 19.6 17.1 19.6 17.3 19.7 17.5 19.7 17.7 19.7 18 19.7 18.2 19.8 18.4 19.9 18.7 20 19 20 19.2 20.1 19.5 20.2 19.7 20.2 20 20.3 20.4 20.3 20.6 20.3 20.8 20.3 21 20.5 20.9 20.7 20.9 20.8 20.8 21 20.8 21.2 20.8 21.4 20.8 21.4 20.5 21.4 20.2 21.4 19.9 21.4 19.5 21.4 19.2 21.4 18.9 21.4 18.5 21.4 18.3 21.4 17.8 21.4 17.4 21.5 17 21.5 16.6 21.5 16.3 21.6 15.9 21.6 15.6 21.7 15.1 21.7 14.7 21.8 14.3 22 13.9 22 13.6 22.1 13.3 22.2 12.9 22.3 12.5 22.4 12.2 22.5 11.7 22.7 11.2 23 10.8 23.2 10.3 23.5 10 23.7 9.7 24.1 9.4 24.5 9.2 24.9 9.1 25.1 9 25.4 9 25.6 9 25.8 9 26.1 9.1 26.4 9.2 26.6 9.3 26.8 9.5 27 9.6 27.3 9.9 27.4 10.1 27.6 10.4 27.8 10.6 27.9 10.8 28 11 28.2 11.3 28.3 11.6 28.4 11.9 28.5 12.2 28.6 12.5 28.7 12.8 28.7 13.1 28.7 13.5 28.7 13.8 28.7 14.1 28.8 14.4 28.9 14.8 28.9 15.2 28.9 15.5 28.9 15.9 28.9 16.3 28.9 16.6 28.9 17 28.9 17.4 28.8 17.7 28.8 18.1 28.7 18.4 28.7 18.8 28.6 19.3 28.6 19.6 28.5 20.2 28.5 20.5 28.4 21 28.3 21.5 28.3 21.7 28.2 22.2 28 22.5 27.9 23.1 27.8 23.4 27.7 23.7 27.5 24.2 27.4 24.6 27.6 24.8 28.2 25.2 28.6 25.4 29.1 25.8 29.6 26.1 30.2 26.6 30.8 27.1 31.4 27.7 32.3 28.5 33 29.2 33.6 29.7 34.4 30.4 35.1 31.2 35.9 32 36.5 32.8 37.3 33.8 37.9 34.7 38.5 35.5"/>
  <polygon class="st3" points="16 23.4 16.3 23.1 16.7 22.9 17 22.6 17.3 22.4 17.7 22.1 18.1 21.9 18.3 21.7 18.2 21.3 18.1 20.7 18 20 17.9 19.3 17.7 18.5 17.5 17.8 17.3 17.2 17.1 16.6 16.8 16 16.5 15.5 16.1 15.3 15.7 15.3 15.4 15.6 15.1 15.8 14.9 16.1 14.7 16.5 14.6 16.9 14.6 17.5 14.7 17.9 14.8 18.5 14.9 19 15 19.6 15 20.1 15.2 20.5 15.3 21 15.4 21.5 15.4 21.9 15.6 22.2 15.7 22.5 15.8 22.9 16 23.4"/>
  <polygon class="st3" points="23.3 21.4 23.6 21.7 23.9 21.8 24.2 22 24.5 22.3 24.7 22.4 24.9 22.6 25.2 22.8 25.6 23.1 25.8 22.6 25.9 22.1 26 21.6 26.1 21.1 26.2 20.5 26.3 20 26.4 19.6 26.5 19.1 26.6 18.5 26.7 18 26.8 17.5 26.9 17 26.9 16.6 26.8 16.3 26.7 16 26.4 15.7 26.1 15.6 25.6 15.6 25.3 15.7 25 15.8 24.7 16 24.6 16.2 24.4 16.5 24.4 16.8 24.3 17.2 24.2 17.6 24.1 18.2 24 18.7 23.9 19.2 23.8 19.7 23.7 20.2 23.6 20.6 23.5 21 23.3 21.4"/>
  <polyline class="st3" points="14.6 28.9 15.1 28.1 15.8 27.8 16.5 27.6 16.9 27.6 17.6 27.6"/>
  <polyline class="st1" points="23.7 27.6 24.2 27.6 24.9 27.6 25.5 27.6 26.1 27.9 26.5 28.3 26.9 28.7"/>
  <circle class="st5" cx="16.9" cy="29.8" r="1.3"/>
  <circle class="st5" cx="25" cy="29.8" r="1.3"/>
  <rect class="st2" x="3.5" y="4.4" width="35.2" height="35.2" rx="5.9" ry="5.9"/>
  <g>
    <polygon class="st4" points="43.4 38.1 43.4 13.9 43.4 12.8 43.4 12.4 43.4 12 43.4 11.8 43.5 11.4 43.6 11.1 43.7 10.6 43.9 10.3 44 9.9 44.3 9.5 44.6 9 45 8.3 45.4 7.7 45.8 7 46.1 6.4 46.5 5.6 47 5 47.3 4.8 47.8 4.3 48.3 4 49 3.9 49.7 3.9 50.5 3.9 51 4 51.7 4.3 52 4.6 52.7 5 53.3 5.5 53.7 5.8 54.1 6.1 54.4 6.4 54.9 6.9 55.4 7.5 55.8 7.9 56.1 8.2 56.3 8.7 56.6 9.1 56.8 9.3 57.2 9.9 57.5 10.4 57.7 10.9 57.9 11.3 58.2 11.7 58.3 11.7 58.5 11.7 58.7 11.3 59 10.6 59.3 9.8 59.9 8.5 60.4 7.3 61 6.4 61.4 5.7 61.8 5.1 62.3 4.6 62.8 4 63.2 3.6 63.8 3.3 64.4 3.1 64.9 3 65.4 3.1 65.9 3.3 66.3 3.6 66.8 3.7 67.4 4 68.1 4.3 68.7 4.7 69.3 5.1 70 5.8 70.6 6.5 71.2 7.2 71.8 7.9 72.4 8.9 72.8 9.8 73.1 10.6 73.3 11.4 73.6 12.3 73.7 13.3 73.9 14.1 73.9 14.7 73.3 38.7 73.2 39.2 73 39.5 65.4 39.3 65 39.3 64.6 39.2 64.2 38.9 64.1 38.3 64.5 22.1 64.5 21.5 64.5 21.2 64.2 20.9 63.7 20.6 63.2 20.6 62.5 20.7 62.2 21 61.7 21.6 61.2 22.1 60.7 22.8 60.2 23.4 59.8 23.9 59.3 24.5 59 24.6 58.7 24.6 58.3 24.6 57.9 24.5 57.7 24.2 57.2 23.5 56.3 22.9 55.8 22.1 55.3 21.8 54.7 21.4 54.1 21.2 53.6 21.2 53.2 21.3 52.9 21.8 52.8 22.2 52.8 23.1 52.7 37.2 52.7 37.6 52.6 38.1 52.3 38.5 51.9 38.7 44.5 38.6 44.1 38.6 43.8 38.6 43.6 38.4 43.4 38.1"/>
    <path class="st6" d="M73.7,40.7l-8.3-.2h-.5s-.9-.2-.9-.2l-1-.8-.2-1.3.4-16.5h-.2s-.5.5-.5.5l-.4.5-.5.7-1.6,1.9-.9.4h-1.2l-.9-.5-.3-.5-.4-.5-1-.8-.4-.6-.3-.2-.7-.4v15.4c-.1,0-.3.7-.3.7l-.6.8-1,.6-7.7-.2h-1s-.8-.5-.8-.5l-.5-.8V11.5s.2-.7.2-.7l.5-1.4.4-.5.3-.6.4-.6,1.6-2.8.9-1,.7-.6.7-.4h1.1c0-.1,1.7-.1,1.7-.1l.8.2.9.4,2.7,2,.2.3.6.5,1.2,1.5,1.1,1.7,1.2-2.6,1-1.7,1.9-2.4,1.8-.7h.8c0-.1.9,0,.9,0l.6.3.4.2,1.9.8,1.4,1,.7.7,2.1,2.4.6,1.1.8,1.9.5,1.9v.9c0,0,.3,1,.3,1v.6l-.6,24.2v.8c-.1,0-.8,1.1-.8,1.1ZM65.3,38.1h0l6.7.2.6-23.6v-.4s-.2-.9-.2-.9v-.8c0,0-.5-1.5-.5-1.5l-.7-1.6-.5-.8-1.8-2.1-.5-.5-1-.7-1.8-.8-.8-.4h-.2s-.7.3-.7.3l-1.5,1.8-.9,1.5-2.3,5h-1.5l-.5-.5-.4-.6-.7-1.3-1.3-1.8-.8-.9-.7-.6-.2-.2-2.2-1.6-.4-.2h-.3c0,0-1.6,0-1.6,0h-.2c0,.1-.6.7-.6.7l-.4.4-1.5,2.7-.4.6-1,2.4v25.4l6.9.2h0v-15.5c.1,0,.3-.7.3-.7l.7-1.1,1.2-.2h.7l.9.3,1.4.9.6.8.9.7.5.6,1.1-1.3.4-.6.6-.7,1.1-1.1,1.3-.2h.8l1,.6.6.6v1.4l-.4,16Z"/>
  </g>
  <g>
    <polygon class="st4" points="77.2 3.2 84.2 3.3 84.3 22.1 84.3 22.7 84.5 23.3 84.9 23.6 85.5 24 86 24 87.1 24 87.7 24 89 23.9 89.6 23.8 90 23.4 90 23 90 22.3 90.1 3.4 97.7 3.6 96.9 26.5 96.9 27.2 96.7 28.8 96.4 30.7 96.1 31.9 95.5 33.8 94.9 35.1 94.1 36.7 93.3 37.7 92.3 38.6 90.7 39.3 89 39.7 87.8 39.7 86.2 39.6 83.4 39.3 82.5 38.9 81.2 38.2 80 36.9 78.7 34.9 78.2 33.2 77.4 31.7 77 29.7 76.8 28.2 76.8 26.3 76.7 3.4 76.7 3.2 77.2 3.2"/>
    <path class="st6" d="M89.1,40.9h-3c0,0-3.2-.5-3.2-.5l-1.1-.4-1.5-.8-1.5-1.6-1.3-2.2-.5-1.6-.8-1.8-.5-2.1-.2-1.6V2c0,0,1.6,0,1.6,0h8.2c0,.1.3,20.7.3,20.7h.2c0,.1,1.9.1,1.9.1h1.1V2.1c0,0,10.1.4,10.1.4l-.8,24.2-.6,4.3-.3,1.3-.7,1.9-.6,1.4-1,1.8-1,1.3-1.3,1-1.8.8-1.8.4ZM83.7,38.1l2.6.3h1.5c0,0,1,0,1,0l1.4-.3,1.3-.6.8-.6.6-.8.8-1.5.5-1.2.6-1.7.3-1.1.5-4.1.7-21.6-5.1-.2v19.4c0,0-1.3.9-1.3.9l-1,.2h-2c0,0-2,0-2,0l-1.6-1.1-.3-1.4v-.6l-.2-17.7h-5c0,0,0,23.6,0,23.6l.2,1.4.4,1.8.7,1.6.5,1.5,1.1,1.7,1,1.1,1.1.6.7.3Z"/>
  </g>
  <g>
    <polygon class="st4" points="101.4 28.2 101.6 36.2 101.9 36.5 102.2 36.8 102.6 37.1 102.7 37.3 103 37.5 103.2 37.8 103.5 38 103.9 38.3 104.2 38.4 104.5 38.7 105 38.8 105.4 39 105.9 39.2 106.4 39.3 106.8 39.5 107.3 39.6 107.8 39.7 108.2 39.8 108.7 39.9 109.3 39.9 110 39.9 110.6 39.9 111.2 39.9 111.9 39.9 112.4 39.9 112.7 39.9 113.4 39.8 113.9 39.6 114.4 39.4 115 39.2 115.4 39 116 38.7 116.7 38.3 117.2 37.8 117.6 37.4 118.1 37.1 118.5 36.4 119.1 35.8 119.4 35.2 119.9 34.4 120.2 33.8 120.6 33.2 120.9 32.1 121.1 31.4 121.4 30.6 121.6 29.6 121.8 28.7 122 27.8 122.1 27.2 122.2 26.3 122.2 25.4 122.1 24.7 122 23.7 121.9 23.2 121.6 21.8 121.5 21.3 121.1 20.4 120.9 19.9 120.3 19 119.8 18.4 119.2 17.8 118.1 17 117 16.2 116.5 15.8 115.4 15.3 114.8 15 113.6 14.8 112.9 14.8 112.1 14.7 111.6 14.3 111 13.8 110.2 13.2 110 12.7 110 12 110.5 11.2 111 10.9 111.6 10.8 112.1 10.8 112.5 10.8 113 10.9 113.7 11 114 11.2 114.5 11.3 115.4 11.7 116 11.8 117 12.2 117.5 12.3 118.6 12.7 119.4 13 119.9 13.3 120.4 13.4 121.1 12.1 121.3 11.5 121.4 11.1 121.6 10 121.6 9.4 121.6 8.2 121.6 7.3 121.6 6.4 121.4 5.7 121.1 4.7 120.9 3.6 110.7 3.6 108.6 4 107.3 4.5 106.3 5 105.1 5.8 104.3 6.5 103.9 7.2 103.1 8.5 102.7 9.5 102.4 11.2 102.2 12.7 102.2 14.1 102.2 15.3 102.6 16.8 103.2 18.3 103.7 19.1 104.6 20.4 106.3 21.2 107.6 21.7 108.7 21.9 109.5 21.9 110.9 22 111.9 22.2 112.6 22.4 113.1 22.8 113.5 23.2 113.8 23.5 113.9 24 114 24.5 114.1 25.3 114.1 26 114 27 113.8 27.5 113.5 28.2 113 28.9 112.4 29.6 111.7 30 111 30.3 110.3 30.4 109.3 30.6 108.3 30.5 107.6 30.4 106.8 30.3 105.9 30.1 105 29.6 104.1 29.4 103.5 29.1 102.7 28.9 102 28.6 101.4 28.2"/>
    <path class="st6" d="M112.8,41.1h-4.3s-2.1-.5-2.1-.5h-.4c0-.1-.6-.3-.6-.3l-1.6-.7-.3-.2h-.2c0,0-1-.8-1-.8l-.3-.4-.3-.3-.4-.3-.9-.9-.3-10.9,2.4,1.6,2,.8,1,.3.8.4,2.2.4h.7c0,0,.8,0,.8,0l.6-.2.6-.2.4-.2.5-.5.4-.6.3-.5v-.3c.1,0,.2-.7.2-.7v-.6l-.2-1.2-.6-.6h-.5c0-.1-.9-.3-.9-.3h-1.3c0,0-.8,0-.8,0l-1.4-.4-1.4-.5-1.9-1-1.2-1.6-.5-1-.6-1.5-.5-1.7v-3s.2-1.6.2-1.6l.4-1.8.5-1.2.8-1.4.6-.8,1-.9,1.2-.7,1.3-.7,1.5-.5,2.3-.4h11.1c0-.1,1,4,1,4v3.7s-.3,1.6-.3,1.6l-.3,1-1.2,1.9-1.6-.4-.5-.3-1.7-.6-.7-.2-.9-.4h-.7c0-.1-.8-.5-.8-.5l-.7-.2h-.2c0,0-1.2-.2-1.2-.2h-.7s-.1.3-.1.3h0c0,.1.5.6.5.6l.8.6,1.2.2,1.5.3,2,.9.6.5,2.1,1.5.9.8.6.7.6.9.8,1.8v.6c0,0,.5,1.9.5,1.9l.2,1.9v1.1s-.2,1.5-.2,1.5l-.6,3.1-.3.7-.2.7-.5,1.5-.3.5-.3.6-.5.8-.4.7-.5.6-.7.9-.4.3-1,1-.8.5-1.1.5-1.9.6h-.7ZM108.8,38.6h4.3c0,0,1.8-.7,1.8-.7l.5-.2.6-.4,1.2-1.1.4-.6.5-.5.3-.6.5-.8.3-.6.3-.4.3-1,.2-.8.2-.6.6-3.3v-.7c0,0,0-.8,0-.8v-.6c0,0-.3-1.6-.3-1.6l-.3-1.7-.6-1.2-.5-.8-.3-.4-.6-.5-2.6-1.9-1.4-.6-2.9-.4-2.4-1.9-.4-1v-1.3l.8-1.3.9-.6h1.1c0-.1,1.2-.1,1.2-.1l1.2.2.4.2h.5c0,.1.8.4.8.4l.7.2.9.4h.5c0,.1,2,.8,2,.8v-.2c.1,0,.4-.8.4-.8l.2-.9v-3.3l-.5-1.8h-9.1c0,0-1.9.4-1.9.4l-1.1.4-.9.5-1,.6-.6.6-.4.5-.7,1.2-.3.9-.3,1.5-.2,1.4v2.4l.4,1.3.5,1.3.4.7.7.9,1.4.7,1.2.4.9.2h2.2c0,.1,1,.3,1,.3l1.1.3.8.6,1,1,.3,1.4v1c.1,0,0,.9,0,.9v1.2c-.1,0-.4.8-.4.8l-.4.8-.5.7-.8.9-1,.6-.7.3-.9.2-1.2.2-2-.2-1.9-.5-.8-.4-.9-.2-1-.4v5.6c.1,0,.3.2.3.2l.6.5.8.8h.5c0,.1.3.5.3.5l1.1.4h.6c0,.1.4.3.4.3l1.6.3Z"/>
  </g>
  <g>
    <path class="st4" d="M141.4,4.2l.4.3.3.2.3.3.4.3.3.3.3.3.3.3.3.3.3.4.3.4.3.5.3.5.4.5.4.6.3.5.4.7.4.7.3.6.3.6.3.5.2.5.2.7v.7l.2.7v.8l.2.7.2.7v.7l.2.9v7.9l-.3.7v.4l-.5,1-.3.7-.3.7-.3.7-.3.7-.4.7-.4.7-.4.7-.4.7-.6.8-.4.5-.6.7-.5.3-.8.7-.7.5-.8.6-.9.3-1.6.3h-3.2l-.7-.3-1-.3-1.1-.4-.8-.5-.7-.5-1.1-1-.7-.7-.6-.9-.4-.7-.5-.8-.4-1.1-.2-1.2-.3-1.4-.3-1.3-.2-.8v-3.4l-.3-1.4v-4.7l.2-.8.2-1.3v-.8l.3-1.6.3-1,.4-1.8.7-1.3.7-1.3.7-.7.4-.6,1.4-1.1.8-.6,1.1-.7,1.3-.7.8-.3,1.1-.2,2.1-.2h.5l1,.4.4.2.4.2.7.2ZM136.2,9.3l-.3.3-.4.4-.2.2-.5.7-.5,1-.3.9v1l-.2,1.1v1l.3.9.5.7.3.6.7.4.6.3h1.2l.7-.5.5-.4.4-.5.4-.7.3-.6.3-.7.2-.6v-2.4l-.2-.8v-.7l-.3-.6-.3-.5-.3-.4-.3-.3-.3-.2-.5-.2h-1.2l-.7.2Z"/>
    <path class="st6" d="M138.5,40.9h-3.5l-.9-.3-1-.3-1.4-.5-1-.5-.8-.6-2.1-2-.6-.9-1-1.8-.4-1.3-.2-1.2-.8-3.7v-3.2l-.3-1.5v-4.9s.2-.8.2-.8l.2-1.1v-1s.3-1.7.3-1.7l.3-1,.4-1.9.8-1.5.8-1.5.6-.7.4-.7,1.6-1.3.8-.6,1.2-.7,1.5-.8,1-.3,1.1-.2,3-.2,2.8,1,1.6,1.3,1.2,1.3.6.9.5.9.4.5.7,1.1,1.9,3.8.2,1v.6l.2.8v.7l.4,1.6v.6l.2,1.1v8.2l-.3.7v.4l-.8,1.9-.9,2.4-1.5,2.9-.7,1-1.1,1.4-.6.3-.9.8-1.9,1.2-1.1.3-1.7.3ZM135.5,38.5h2.8l1.4-.2.7-.2,1.4-.9.9-.8.3-.2.8-1,.5-.8,1.4-2.6,1.1-2.9.4-1v-.2l.3-.7v-7.6l-.2-1.1v-.6l-.4-1.6v-.7l-.2-.8v-.6l-.2-.8-.2-.4-1.6-3-1.7-2.5-1-1-1.1-.8-.6-.2-.7-.3-.8-.3h-.2l-2.1.2-.9.2-.7.2-1.2.6-1.1.6-.7.5-1.2,1-.4.5-.6.6-.6,1.2-.7,1.2-.3,1.6-.3,1-.3,1.4v.9s-.2,1.3-.2,1.3l-.2.8v4.4l.3,1.5v3.2l.7,3.4.2,1.2.3.9,1.2,2.3.6.6,1,.9.5.4.7.4,1,.3,1.1.3.5.2ZM137.9,20.2h-1.9l-1.9-1-.4-.9-.6-1-.3-1.1v-1.4s.2-1,.2-1v-1.1l.4-1.3.5-1.2.6-1,1.1-1.1,1.3-.3h1.4l.9.4.5.3.4.4.3.5.3.5.5.9v.9l.2,1v2.6l-.3.8-.6,1.3-.5.9-.6.7-1.5,1.1ZM136.5,17.7h.5l.6-.5.2-.3.6-1.1.3-.9v-2.1l-.2-1v-.5l-.4-.6-.4-.4h-.1c0,0-.8,0-.8,0h-.2c0,.1-.5.6-.5.6l-.4.6-.4.9-.2.7v1s-.2,1-.2,1v.7l.2.6.5.9.7.3Z"/>
  </g>
  <g>
    <path class="st4" d="M168.9,3.2l.8.6.7.7,1.1,1.1,1,1.5.3,1.1.2,1.6v2.3l-.2,1.9-.2,1.1-.7,2-.7,1-.8,1.1-.7.7-.7.6-1.5.9-1.1.6-1.3.7-.7.4-.7.3-.9.4-.6.4v10.5l-.3,1.2-.3,1-.5.8-.8.5-.6.2h-.9l-1.6.3-1.8.3-1.5.4-.7.2.3-35.1.5-.7,14.1-.4h.9ZM161.7,9l.2,6.5v.5l.3.3.3.3h.6l.4-.2,1.8-1.3.5-.5.6-.7.7-1,.5-.9.3-.9-.2-1.1-.5-.7-1.1-.3h-4.1Z"/>
    <path class="st6" d="M151.9,41l.3-37,1-1.6,16.1-.4,1.3.9.7.7,1.3,1.3,1.2,1.7.4,1.5.2,1.7v2.5s-.2,1.9-.2,1.9l-.3,1.4-.9,2.2-.7,1-1,1.3-.9.9-.8.6-1.6,1-1.1.6-2.2,1.2-1.5.6v10.1s-.7,2.6-.7,2.6l-.6,1.1-1.4.7-.7.2h-1l-3.2.5-3.7.9ZM154.7,4.8l-.3,33.1.8-.2,3.5-.6h1c0,0,.4-.3.4-.3l.2-.4.5-1.9v-11l1.3-.9,1.6-.6.7-.3,1.2-.7,1.1-.6,1.4-.9.6-.5.6-.6.8-1.1.5-.8.7-1.7.2-1,.2-1.7v-2.2l-.2-1.4-.2-.8-.8-1.2-1-1-.6-.5-.5-.3h-.6l-13.3.4ZM163.3,17.7h-1.4l-1.3-1.3v-1l-.2-7,.8-.8h4.8s1.6.4,1.6.4l.9,1.2.3,1.7-.4,1.4-.5,1-.7,1-.7,1-.6.6-2,1.4-.6.3ZM162.9,10.1v4.9c.1,0,1.4-.9,1.4-.9l.3-.3.5-.7.6-.9.4-.8.2-.6v-.6c-.1,0-.7-.1-.7-.1h-2.7Z"/>
  </g>
  <g>
    <polygon class="st4" points="175.7 4.5 174.6 37.6 174.6 38 174.7 38.4 174.9 38.7 175.1 39 175.5 39.3 175.8 39.4 193 38.7 193.5 38.7 194 38.3 194.6 37.4 194.9 36.8 194.9 35.9 194.7 28.9 194.5 28.5 194.1 28 193.4 27.7 186.1 27.9 185.5 27.8 185 27.5 184.5 27.2 184.2 26.5 184.8 4.3 184.8 3.9 184.7 3.6 184.2 3.4 183.7 3.3 176.8 3.5 176.4 3.5 176 3.5 175.8 3.6 175.7 3.7 175.7 4.5"/>
    <path class="st6" d="M175.6,40.6l-.7-.2-.7-.5-.4-.6-.3-.6v-.7c-.1,0-.1-.4-.1-.4l1-34.2.4-.9.9-.3h.9l7-.2.9.2,1,.4.3,1.3v.4l-.6,22h0c0,.1.4.4.4.4h.3s7.4-.1,7.4-.1l1.3.5.7.9.3.6.2,8.5-.5,1.2-.9,1-.7.6-1,.2-17.5.7ZM176,38.1h0s17-.6,17-.6h.1c0,0,.5-.7.5-.7v-.3c.1,0,.1-.6.1-.6l-.2-6.8h0c0-.1-.2-.2-.2-.2l-7.1.2h-1c0-.1-.8-.6-.8-.6l-.7-.6-.5-1.2.6-22.3-6.7.2-1,33v.3s.1.2.1.2Z"/>
  </g>
  <g>
    <path class="st4" d="M200.2,9.8l1-1,.7-.8.9-.8.8-.7.9-.7.9-.7,1.1-.7,1.4-.6,1.2-.4.8-.2h4.5l1.4.3,1.2.3,1.2.5.8.5.7.5,1.1.7.7.6.7.9.6.8.5,1,.4.7.2.6v25.9l-.2,1.2-.2.7-.3.4h-6.8l-.4-.2-.3-.3-.3-.7v-.5l-.7-9-.2-.7-.3-.7-.3-.6-.3-.4-.5-.4-.4-.3-.7-.2h-1.4l-.6.3-.5.4-.3.5-.3.7-.2.7v.7l-.2.8-.7,6.4-.2,1.8-.3,1-.5.6-6.7.2-.6-.7-.4-.8-.2-.7-.2-1.9.3-24.2.4-.6h0ZM208.9,16.2h6.6l-.2-1.3v-3.5c0,0-.3-.4-.3-.4l-.2-.5-.2-.4-.3-.3-.3-.3-.4-.2-.7-.2h-1.7l-.5.3-.7.3-.3.3-.3.4-.3.6-.3.7-.3.7-.2.6-.2.7v2.6h.3v-.2Z"/>
    <path class="st6" d="M200.3,40.1l-1.1-1.5-.4-1-.2-.9-.2-1.9h0c0,0,.3-24.6.3-24.6l.8-1.2,1-.9.7-.9,1.8-1.6,2-1.6,1.3-.9,1.4-.6,1.3-.4,1.2-.2h4.7s2.8.6,2.8.6l1.4.5,1.6,1,1.3.9.8.7.8,1,.7,1,.9,1.9.2.7v26.2s-.2,1.4-.2,1.4l-.2.9-.8,1h-7.7l-.8-.4-.6-.6-.5-1.2v-.7l-.6-8.7-.2-.5-.4-1v-.2c-.1,0-.6-.4-.6-.4h-.3c0,0-.9,0-.9,0h-.2c0,0-.2.2-.2.2v.2c-.1,0-.5,1-.5,1v.8s-.2.8-.2.8l-.9,8.3-.4,1.3-1,1.2-7.9.2ZM201.4,37.5h0c0,.1,5.5,0,5.5,0l.2-.6.9-8.3.2-.7v-.9s.2-.7.2-.7l.4-1,.4-.7.9-.6.8-.4h2s.9.3.9.3l1.3,1,.4.6.3.7.3.7.3,1,.7,9.3v.2h5.8c0,0,.2-1.1.2-1.1V10.4c0,0-.9-1.6-.9-1.6l-.5-.7-.6-.8-.5-.4-1.8-1.2-.7-.4-1.1-.4-2.4-.5h-4.2l-.7.2-1.1.3-1.2.5-1,.6-1.8,1.5-1.6,1.5-.7.9-.9.8v.2c-.1,0-.4,23.8-.4,23.8l.2,1.7v.6c.1,0,.4.6.4.6ZM209.6,17.7h-2.3v-4.1s.5-1.5.5-1.5l1-2.2.4-.5.4-.4.8-.3.7-.4h2.4s.9.3.9.3l.5.3.8.8.7,1.6v1c.1,0,.1,2.7.1,2.7l.4,2.6h-7.3v.2ZM209.7,15h4.4v-3.2c0,0-.4-.9-.4-.9l-.4-.3h-.4c0-.1-1.2-.1-1.2-.1l-.3.2-.5.2-.2.2-.2.4-.7,1.9v.5c-.1,0-.1,1.1-.1,1.1Z"/>
  </g>
  <g>
    <polygon class="st4" points="228 6 228 8.7 228.3 10.9 228.4 11.8 228.6 12.5 228.8 13.3 229 14.5 229.4 15.3 229.9 16.3 230.4 17.4 230.8 17.8 231.4 18.6 232.3 19.4 233.3 20 233.8 20.4 235 21 236.5 21.9 237.2 22.4 237.4 23.4 237.6 25 237.6 26.7 237.3 28.6 237.2 29.6 237 31.1 237 32.7 237 33.8 237 35.2 237 36.8 237 38.4 237 38.8 237 39.2 237.3 39.4 237.7 39.7 238 39.9 238.7 39.9 239.3 39.9 240.5 39.9 241.7 39.9 245.9 39.9 246.4 39.9 247 39.6 247.6 38.8 247.8 38.4 247.9 37.8 247.9 37.5 247.7 28.9 247.6 28.5 246.8 23.2 247.7 22.8 248.6 22.4 249.7 21.9 250.4 21.5 251.4 20.5 251.8 19.9 252.4 19 253.2 17.8 254 16.7 254.9 15 256 13.2 256.8 11 257 9.6 257.5 7.4 257.8 5.1 257.7 4.1 257.4 3.8 256.5 3.6 255.7 3.6 247.2 3.8 246.7 4 246.5 4.3 246.4 4.9 246.4 5.5 246.4 7.7 246.2 8.4 246.1 9.1 245.3 10.2 244.7 11 243.6 11.5 242.7 11.8 242 11.9 241.4 11.7 241 11.1 239.3 7.1 238.6 4.7 232.6 4.5 232 4.6 230.8 4.8 230 5 229.3 5.4 228.3 5.8 228 6"/>
    <path class="st6" d="M246.7,41.1h-9l-.8-.4-1.1-.8v-8.9s.6-4.3.6-4.3v-1.5l-.3-2-.3-.2-1.4-.9-1.2-.7-1.6-1-1.1-1-.5-.7-.6-.6-.6-1.2-.5-.9-.5-1.2-.2-1.2-.4-1.6v-.8c0,0-.5-2.4-.5-2.4v-3.5l1.1-.6.9-.4.8-.4,1-.3,2-.3,7,.2,1,3.2,1.7,3.9h.3s.8-.3.8-.3l.7-.3.5-.6.6-.9.3-1v-2.9s.2-.8.2-.8l.5-.8,1-.4,9.7-.2,1.2.3,1,.8.2,1.7-.3,2.5-.5,2.2-.2,1.6-.9,2.4-1.1,1.9-.9,1.6-2.9,4.1-1.1,1-.9.6-2,.9.8,5,.2,9-.2.9-.3.7-.9,1.1-1,.5ZM238.3,38.6h7.9s.4-.5.4-.5v-.2c0,0,.1-.5.1-.5l-.2-8.5v-.4c0,0-1.1-6.3-1.1-6.3l3.7-1.5.5-.3.9-.8,2.5-3.7.9-1.6,1.1-1.8.7-1.9.2-1.4.5-2.2.3-2v-.2s-.2,0-.2,0h-.7l-8,.2v2.9s-.5,1.6-.5,1.6l-.9,1.3-.9,1.1-1.5.6-1.1.3h-.9c0,.1-1.3-.3-1.3-.3l-.7-1.1-1.7-4.1-.5-1.6-5-.2-1.6.2-.6.2-1.3.6v1.8l.5,3,.4,1.5.2,1.1.3.7.5.9.4.9.4.4.5.7.8.7,1.4.9,1.2.6,1.6,1,1.1.8.3,1.5.2,1.8v1.9s-.3,1.9-.3,1.9v1c0,0-.3,1.5-.3,1.5v7.4h0Z"/>
  </g>
</svg>