<?xml version="1.0" encoding="UTF-8"?>
<svg id="Layer_1" xmlns="http://www.w3.org/2000/svg" version="1.1" viewBox="0 0 264 41">
  <!-- Generator: Adobe Illustrator 29.0.0, SVG Export Plug-In . SVG Version: 2.1.0 Build 186)  -->
  <defs>
    <style>
      .st0 {
        fill: none;
        stroke: #00c22d;
        stroke-width: 1.4px;
      }

      .st0, .st1, .st2 {
        stroke-miterlimit: 10;
      }

      .st1 {
        fill: #1174b9;
      }

      .st1, .st2 {
        stroke: #1174b9;
        stroke-width: .5px;
      }

      .st3 {
        fill: #00c22d;
      }

      .st2, .st4 {
        fill: #fffdee;
      }
    </style>
  </defs>
  <g>
    <polygon class="st2" points="44 38.5 44 12.6 44 11.4 44 11 44 10.5 44 10.3 44.1 9.9 44.2 9.6 44.4 9.1 44.6 8.7 44.7 8.3 45 7.9 45.3 7.3 45.8 6.6 46.2 5.9 46.6 5.2 46.9 4.6 47.4 3.7 47.9 3.1 48.2 2.8 48.8 2.3 49.3 2 50 1.9 50.8 1.9 51.6 1.9 52.2 2 52.9 2.3 53.3 2.6 54 3.1 54.6 3.6 55.1 3.9 55.5 4.2 55.8 4.6 56.4 5.1 56.9 5.7 57.3 6.2 57.6 6.5 57.9 7 58.2 7.4 58.4 7.7 58.8 8.3 59.1 8.8 59.4 9.4 59.6 9.8 59.9 10.2 60 10.2 60.2 10.2 60.4 9.8 60.7 9.1 61.1 8.2 61.7 6.8 62.3 5.5 62.9 4.5 63.3 3.8 63.8 3.2 64.3 2.6 64.8 2 65.2 1.5 65.9 1.2 66.5 1 67.1 .9 67.6 1 68.1 1.2 68.6 1.5 69.1 1.7 69.8 2 70.5 2.3 71.1 2.7 71.8 3.2 72.5 3.9 73.2 4.7 73.8 5.4 74.5 6.2 75.1 7.2 75.5 8.2 75.9 9.1 76.1 9.9 76.4 10.9 76.5 11.9 76.7 12.8 76.7 13.4 76.1 39.1 76 39.7 75.8 40 67.6 39.8 67.2 39.8 66.7 39.7 66.3 39.4 66.2 38.7 66.6 21.4 66.6 20.7 66.6 20.4 66.3 20.1 65.8 19.8 65.3 19.8 64.5 19.9 64.2 20.2 63.6 20.8 63.1 21.4 62.6 22.1 62 22.8 61.6 23.3 61.1 23.9 60.7 24.1 60.4 24.1 60 24.1 59.6 23.9 59.4 23.6 58.8 22.9 57.9 22.2 57.3 21.4 56.8 21.1 56.1 20.6 55.5 20.4 55 20.4 54.5 20.5 54.2 21 54.1 21.5 54.1 22.4 54 37.5 54 38 53.9 38.5 53.6 38.9 53.1 39.2 45.2 39 44.8 39 44.5 39 44.2 38.8 44 38.5"/>
    <path class="st1" d="M76.2,40.8l-8.6-.3h-1.1c0-.1-.9-.6-.9-.6v-1.2c-.1,0-.1,0-.1,0l.4-17.2v-.6h0c0,0,0-.2,0-.2h-.2c0,0-.3,0-.3,0h-.5c0,0-.7.8-.7.8l-.5.6-.5.7-.6.7-.4.5-.6.7-.6.4h-.6s-.6,0-.6,0l-.6-.3-.3-.5-.5-.6-.8-.8-.6-.7-.5-.3-.6-.4h-.3c0,0-.3,0-.3,0h0s0,.1,0,.1v.3s0,.9,0,.9v15.1c0,0,0,.6,0,.6l-.2.7-.4.7-.9.4-8.1-.2h-.9l-.5-.4-.5-.6V10.2l.2-.9.4-.9.2-.5.3-.5.3-.6.4-.7.4-.8.4-.7.3-.6.5-.9.5-.6.4-.4.7-.6.7-.3.8-.2h1.8l.8.2.7.3.5.3.7.5.6.5.5.4.5.4.3.3.6.5.6.6.4.5.3.4.2.4.4.4.2.4.4.6.4.6.2.5h0c0,0,.4-1,.4-1l.7-1.4.6-1.3.6-1,.4-.7.5-.6.5-.6.5-.7.5-.5.9-.4.7-.2h.8c0-.1.7,0,.7,0l.6.2,1,.5.7.3.7.4.7.5.7.5,1.5,1.5.6.8.7.8.7,1.1.5,1.1.3.9.3.8.3,1.1.4,1.9v.7s-.6,25.7-.6,25.7v.8c-.1,0-.7.8-.7.8h0ZM67.2,39h.4s7.7.2,7.7.2v-.2s.6-25.6.6-25.6v-.5l-.3-1.8-.2-1-.2-.7-.3-.9-.4-1-.5-.9-.7-.7-.6-.7-1.4-1.4-.6-.5-.6-.4-.6-.3-.7-.3-1-.5h-.4c0-.1-.3-.2-.3-.2h-.4c0,0-.5.2-.5.2l-.5.3-.3.3-.5.7-.5.6-.4.5-.4.6-.6,1-.6,1.2-.7,1.4-.3.9-.6,1.3-.7.4-.7-.3-.4-.5-.3-.5-.2-.6-.3-.4-.5-.6-.2-.3-.3-.4-.3-.4-.2-.3-.4-.5-.5-.5-.6-.5-.3-.3-.4-.3-.5-.3-.6-.5-.6-.5-.3-.2-.6-.2h-.5c0-.1-1.4-.1-1.4-.1h-.5c0,.1-.3.3-.3.3l-.5.4-.3.3-.4.5-.5.8-.3.6-.4.7-.4.8-.4.7-.3.6-.2.4-.2.4-.4.8v.5c-.1,0-.1,27.9-.1,27.9h.4s7.8.2,7.8.2h.1c0,0,0-.2,0-.2v-.3c.1,0,.1-.4.1-.4v-15.1c0,0,0-1,0-1v-.7c.1,0,.7-.9.7-.9l.9-.2h.7l.8.2.8.6.6.4.7.8.8.8.7.8v.2c.1,0,.2,0,.2,0h.2s0,0,0,0h0c0,0,.4-.6.4-.6l.4-.5.6-.7.5-.7.5-.6,1.1-1.1h1.1c0-.1.7-.1.7-.1l.9.4.4.6.2.5v.8s-.4,17.2-.4,17.2v.3s.2,0,.2,0h0Z"/>
    <polygon class="st2" points="80.2 1.1 87.7 1.2 87.9 21.4 87.9 22 88.1 22.7 88.5 23 89.1 23.4 89.7 23.4 90.8 23.4 91.5 23.4 92.9 23.3 93.5 23.2 94 22.8 94 22.3 94 21.6 94.1 1.3 102.2 1.6 101.4 26.1 101.3 26.8 101.1 28.5 100.8 30.6 100.5 31.9 99.8 33.9 99.2 35.3 98.3 37 97.5 38.1 96.4 39 94.7 39.8 92.9 40.2 91.6 40.2 89.9 40.1 86.9 39.8 85.9 39.4 84.5 38.6 83.2 37.2 81.9 35.1 81.3 33.3 80.5 31.6 80 29.5 79.8 27.9 79.8 25.9 79.7 1.3 79.7 1.1 80.2 1.1"/>
    <path class="st1" d="M93,40.9h-1.4s-1.8,0-1.8,0l-3.1-.3-1.2-.5-1.6-.9-1.4-1.5-1.4-2.3-.6-1.8-.8-1.7-.5-2.2-.3-1.7V1.3c0,0,0-1,0-1h1.3s8.2,0,8.2,0l.2,21.4v.3c.1,0,.3.2.3.2l.4.2h3.4c0,0,.4-.1.4-.1h0c0,0,0-.3,0-.3V.5c0,0,9.8.4,9.8.4l-.9,25.3v.7c0,0-.3,1.7-.3,1.7l-.3,2.2-.4,1.4-.7,2.1-.6,1.4-.9,1.7-.8,1.2-1.2,1.1-1.9.9-2,.4h0ZM91.7,39.4h1.2l1.6-.3,1.5-.8,1-.8.7-1,.9-1.6.6-1.3.7-2,.3-1.2.3-2.1.2-1.7v-.6c0,0,.9-23.7.9-23.7l-6.6-.3v19.5c0,0,0,.8,0,.8v.8c-.1,0-.9.8-.9.8h-1c0,.1-1.4.2-1.4.2h-2.6l-.8-.5-.6-.5-.4-1v-.8l-.2-19.5h-6.5c0,0,0,23.9,0,23.9v2l.2,1.5.5,2,.8,1.7.6,1.7,1.3,2,1.1,1.2,1.3.8.9.4,2.8.2h1.7q0,0,0,0Z"/>
    <polygon class="st2" points="104.2 27.9 104.4 36.5 104.7 36.8 105 37.1 105.4 37.4 105.6 37.6 105.9 37.9 106.1 38.2 106.4 38.4 106.8 38.7 107.2 38.8 107.5 39.1 108 39.3 108.5 39.5 109 39.7 109.5 39.8 110 40 110.5 40.1 111 40.2 111.5 40.3 112 40.4 112.6 40.4 113.4 40.4 114 40.4 114.7 40.4 115.4 40.4 115.9 40.4 116.3 40.4 117 40.3 117.6 40.1 118.1 39.9 118.7 39.7 119.2 39.5 119.8 39.2 120.6 38.7 121.1 38.2 121.5 37.8 122 37.4 122.5 36.7 123.1 36 123.4 35.4 124 34.5 124.3 33.9 124.7 33.3 125.1 32.1 125.3 31.3 125.6 30.5 125.8 29.4 126 28.4 126.2 27.5 126.3 26.8 126.4 25.9 126.4 24.9 126.3 24.2 126.2 23.1 126.1 22.5 125.8 21.1 125.7 20.5 125.3 19.6 125 19 124.4 18 123.9 17.4 123.2 16.8 122 15.9 120.9 15.1 120.3 14.6 119.2 14.1 118.5 13.8 117.2 13.6 116.5 13.5 115.6 13.4 115.1 13 114.4 12.5 113.6 11.8 113.4 11.3 113.4 10.5 113.9 9.7 114.4 9.4 115.1 9.3 115.6 9.3 116.1 9.3 116.6 9.4 117.3 9.5 117.7 9.7 118.2 9.8 119.2 10.2 119.8 10.3 120.9 10.8 121.4 10.9 122.6 11.3 123.4 11.6 124 11.9 124.5 12 125.3 10.7 125.5 10 125.6 9.6 125.8 8.4 125.8 7.8 125.8 6.5 125.8 5.5 125.8 4.6 125.6 3.8 125.3 2.7 125 1.5 114.1 1.6 111.9 2 110.5 2.5 109.4 3.1 108.1 3.9 107.3 4.7 106.8 5.4 106 6.8 105.6 7.9 105.2 9.7 105 11.3 105 12.8 105 14.1 105.5 15.7 106.1 17.3 106.6 18.2 107.6 19.5 109.4 20.4 110.8 20.9 112 21.2 112.8 21.2 114.3 21.3 115.4 21.5 116.2 21.7 116.7 22.1 117.1 22.5 117.5 22.9 117.6 23.4 117.7 23.9 117.8 24.8 117.8 25.6 117.7 26.6 117.5 27.2 117.1 27.9 116.6 28.6 115.9 29.4 115.2 29.8 114.4 30.1 113.7 30.3 112.6 30.5 111.6 30.4 110.8 30.3 110 30.1 109 29.9 108 29.4 107.1 29.2 106.4 28.9 105.6 28.6 104.8 28.3 104.2 27.9"/>
    <path class="st1" d="M115.9,41.2h-4.1c0,0-1-.3-1-.3h-.4c0,0-.6-.2-.6-.2l-2.1-.7-.6-.3-.3-.3-.3-.2-.5-.3-1-1-.3-.3-.9-.9-.2-10.2,1.7,1,.8.3.8.3.7.3.9.2,1,.4.9.2.7.2h.8c0,0,.8.2.8.2l1-.2h.7c0-.1.6-.4.6-.4l.6-.3.7-.7.4-.6.3-.6.2-.5v-.8c0,0,0-.8,0-.8v-.8c0,0-.1-.4-.1-.4v-.3c-.1,0-.3-.3-.3-.3l-.3-.3-.4-.2-.7-.2-1-.2h-1.4c0,0-.9,0-.9,0l-1.3-.4-1.4-.5-2-1-1.2-1.5-.6-1-.6-1.6-.5-1.7v-1.5s0-1.5,0-1.5l.2-1.7.4-1.9.4-1.2.9-1.5.5-.8.9-.9,1.4-.8,1.3-.7,1.5-.5,2.3-.4h11.6c0,0,.5,1.7.5,1.7l.3,1.1.2.8v1c0,0,0,1,0,1v1.9l-.2,1.3v.5c0,0-.4.8-.4.8l-1.1,2-1.2-.4-.6-.2-2.5-.8-1.1-.4-.6-.2-.9-.3-.5-.2h-.3c0-.1-.6-.2-.6-.2h-.4c0,0-.9,0-.9,0h-.5c0,0-.2.2-.2.2l-.3.5v.6c0,0,.7.6.7.6l.6.5.4.2h.7c0,.1.7.2.7.2l1.4.2.8.3,1.2.5.7.6,1.1.8,1.2.9.8.8.6.6.7,1.1.3.5.4,1,.2.7.3,1.5v.6c0,0,.2,1.1.2,1.1v.7c0,0,0,1.1,0,1.1v1c0,0-.2.7-.2.7l-.2.9-.2,1.1-.3,1.2-.5,1.5-.4,1.2-.4.8-.4.6-.6.9-.4.6-.6.8-.5.7-.9.9-.5.4-.8.6-.7.4-.5.2-.6.3-1.3.4h-.7c0,0-.5.2-.5.2h0ZM112.6,39.7h3.6c0,0,.6-.2.6-.2l1.1-.3.6-.3h.4c0-.1.5-.4.5-.4l.7-.5.4-.4.8-.8.5-.6.6-.7.3-.5.6-.9.3-.6.3-.6.4-1.1.5-1.5.2-1,.2-1,.2-.9v-.6c0,0,.2-.9.2-.9v-1.6c0,0-.2-1.1-.2-1.1v-.6c0,0-.3-1.4-.3-1.4v-.5c-.1,0-.5-.9-.5-.9l-.2-.5-.5-.9-.4-.5-.6-.6-1.2-.8-1.1-.8-.6-.5-1-.5-.6-.2-1.2-.2h-.8c0,0-1-.3-1-.3l-.7-.4-.7-.6-1-.9-.3-.8v-1.1l.7-1.2.8-.4h.9c0-.1,1.1-.1,1.1-.1h.6c0,0,.8.2.8.2l.5.2.5.2.9.3.6.2,1.1.4,2.6.9.4.2.4-.7.2-.6v-.3c0,0,.2-1.1.2-1.1v-1.9s0-.9,0-.9v-.8c0,0-.2-.7-.2-.7l-.2-1.1-.2-.6h-10.3c0,0-2.1.5-2.1.5l-1.2.4-1.1.6-1.2.7-.6.6-.5.7-.8,1.3-.3,1-.4,1.7-.2,1.6v1.4c0,0,0,1.2,0,1.2l.5,1.5.6,1.5.5.8.9,1.1,1.7.8,1.3.5,1.1.3h.8s1.5,0,1.5,0l1.2.2,1,.3.7.4.5.5.4.6.2.7v.6c.1,0,.2.9.2.9v.9s0,1,0,1l-.3.8-.4.7-.6.8-.9.9-.8.5-.9.4-.9.2-1.2.2h-1c0,0-.9-.2-.9-.2l-.8-.2-1.1-.3-1-.4-1-.3-.7-.3-.8-.3h-.4c0-.1.1,6.8.1,6.8l.4.4.3.3,1,1,.3.2.4.2.3.3.4.2,1.9.6h.5c0,0,.4.2.4.2l1,.2h.5q0,0,0,0Z"/>
    <path class="st2" d="M139.9,1h1.5c0,0,.5.2.5.2h.5c0,0,.4.2.4.2h.3c0,0,.4.2.4.2l.4.2.4.2.4.2h.3c0,0,.4.3.4.3l.3.2.3.3.4.3.3.3.3.3.3.3.3.3.3.4.3.4.3.5.3.5.4.5.4.6.3.5.4.8.4.7.3.6.3.6.3.5.2.5.2.8v.8c0,0,.2.7.2.7v.9c0,0,.2.8.2.8l.2.8v.8c0,0,.2,1,.2,1v.9c0,0,0,6.6,0,6.6v1c0,0-.3.8-.3.8v.4c0,0-.5,1.1-.5,1.1l-.3.8-.3.8-.3.8-.3.8-.4.8-.4.7-.4.8-.4.7-.6.9-.4.5-.6.8-.5.3-.9.8-.8.5-.9.6-1,.3-1.7.3h-1.3c0,0-.9,0-.9,0h-1.2c0,0-.8-.3-.8-.3l-1.1-.3-1.2-.4-.9-.5-.7-.5-1.2-1.1-.8-.8-.6-1-.4-.8-.5-.9-.4-1.2-.2-1.3-.3-1.5-.3-1.4-.2-.9v-1.4c0,0,0-1.3,0-1.3v-.9c0,0-.3-1.5-.3-1.5v-1.3c0,0,0-2.4,0-2.4v-1.3c0,0,.2-.9.2-.9l.2-1.4v-.9c0,0,.3-1.7.3-1.7l.3-1.1.4-1.9.8-1.4.7-1.4.7-.8.4-.6,1.5-1.2.9-.6,1.2-.7,1.4-.7.9-.3s1.2-.2,1.2-.2ZM139.7,7.5l-.3.2-.3.3-.4.4-.2.2-.5.8-.5,1.1-.3,1v1.1c0,0-.2,1.2-.2,1.2v1.1c0,0,.3,1,.3,1l.5.8.3.6.8.4.6.3h1.3c0,0,.7-.5.7-.5l.5-.4.4-.5.4-.7.3-.6.3-.7.2-.6v-.9c0,0,0-.8,0-.8v-.9c0,0-.2-.9-.2-.9v-.8c0,0-.3-.6-.3-.6l-.3-.5-.3-.4-.3-.3-.3-.2-.5-.2h-.4c0,0-.5,0-.5,0h-.4c0,0-.4.2-.4.2,0,0-.3.2-.3.2Z"/>
    <path class="st1" d="M140.8,40.8h-1s-1.2,0-1.2,0l-.9-.3-1.1-.4-1.2-.4-1-.6-.8-.6-1.2-1.1-.8-.8-.7-1.1-.4-.8-.5-1-.5-1.3-.2-1.3-.3-1.5-.3-1.4-.2-1v-1.5c0,0,0-1.3,0-1.3v-.8c0,0-.3-1.5-.3-1.5v-1.3c0,0,0-2.4,0-2.4v-1.3c0,0,.2-1,.2-1l.2-1.4v-1c0,0,.4-1.7.4-1.7l.3-1.1.4-2,.8-1.4.7-1.5.7-.8.5-.6,1.7-1.3,1-.6,1.2-.7,1.4-.7,1-.4,1.3-.2h1.1l1.6.3h.5c0,0,.3.2.3.2h.5c0,0,1.3.6,1.3.6h.4c0,0,.6.4.6.4l.3.2.3.3.4.3,1.2,1.2.7.9.7,1,.4.5.4.6.4.6.4.7.4.7.7,1.2.3.6.2.6.2.8v.8c0,0,.2.7.2.7v.9c0,0,.2.7.2.7l.2.9v.9c0,0,.2,1,.2,1v1c0,0,0,6.7,0,6.7v1.1c0,0-.4,1.4-.4,1.4l-.4,1.1-.3.8-.3.9-.7,1.6-.4.8-.4.7-.4.8-.4.7-.6,1-.4.5-.7.8-.6.4-1,.8-.8.5-1,.7-1.2.3-1.8.3h-1.3q0,0,0,0ZM139.9,39.3h2c0,0,1.6-.3,1.6-.3l.9-.2.8-.5.7-.5,1-.8.4-.3.5-.7.4-.5.6-.9.4-.7.4-.8.4-.7.4-.7.7-1.5.3-.8.3-.8.4-1,.2-1.2v-1c0,0,0-6.6,0-6.6v-.9c0,0-.2-1-.2-1v-.8c0,0-.3-.9-.3-.9v-.8c0,0-.2-.9-.2-.9v-.7c0,0-.2-.7-.2-.7l-.2-.7v-.4c-.1,0-.4-.4-.4-.4l-.7-1.2-.4-.7-.4-.7-.3-.5-.4-.6-.4-.5-.7-1-.6-.8-1.1-1.1-.4-.3-.2-.2h-.2c0-.1-.3-.3-.3-.3h-.3c0,0-1.3-.6-1.3-.6h-.4c0,0-.3-.2-.3-.2h-.4c0,0-1.5-.3-1.5-.3h-.9l-1.1.2-.8.3-1.3.6-1.1.7-.9.6-1.4,1.1-.4.5-.6.7-.7,1.4-.7,1.3-.4,1.9-.3,1-.2,1.6v.9c0,0-.3,1.4-.3,1.4v.9c0,0-.2,1.2-.2,1.2v3.5c0,0,.3,1.5.3,1.5v.9c0,0,0,1.3,0,1.3v1.4c0,0,.2.9.2.9l.3,1.4.3,1.6.2,1.2.4,1.1.5.9.4.8.5.9.7.7,1.1,1.1.6.5.8.5,1.1.4,1.1.3.8.2h1ZM140.2,18.6h-.8l-.8-.3-1-.5-.4-.8-.6-.9-.2-1.2v-1.2c0,0,0-1.2,0-1.2v-1.2c0,0,.4-1.1.4-1.1l.6-1.2.6-.9.7-.7.4-.3.6-.4h.6c0-.1.5-.2.5-.2h1.2c0,0,.6.3.6.3l.4.3.5.5.3.6.3.6.2.7v.8c0,0,.3,1.9.3,1.9v.9s0,1,0,1l-.2.7-.3.7-.4.7-.5.7-.5.6-.6.5-.9.5h-1ZM139.7,17.1h.9c0,0,.5-.4.5-.4l.4-.3.3-.4.4-.6.3-.5.2-.6v-.5c.1,0,.2-.8.2-.8v-.8l-.2-1.8v-.7c0,0-.2-.5-.2-.5l-.2-.4-.2-.3-.2-.2h-.1c0,0-.3-.2-.3-.2h-.3c0,0-.4,0-.4,0h-.3c0,0-.3.1-.3.1l-.4.2-.3.2-.5.5-.4.6-.5,1-.2.9v1c0,0-.2,1.1-.2,1.1v1c0,0,.2.8.2.8l.4.7.2.4.5.3.4.2h0Z"/>
    <path class="st2" d="M171.5.9l1,.2.9.6.8.7,1.2,1.2,1.1,1.6.3,1.2.2,1.7v1.2c0,0,0,1.3,0,1.3l-.2,2-.2,1.2-.8,2.1-.7,1.1-.9,1.2-.8.8-.8.6-1.6,1-1.2.6-1.4.8-.8.4-.8.3-1,.4-.6.4v11.2c0,0-.3,1.3-.3,1.3l-.3,1.1-.5.9-.9.5-.6.2h-1c0,0-1.7.3-1.7.3l-1.9.3-1.6.4-.8.2.3-37.6.5-.8s15.1-.4,15.1-.4ZM164.7,7.3l.2,7v.5c0,0,.3.3.3.3l.3.3h.3c0,0,.3,0,.3,0l.4-.2,1.9-1.4.5-.5.6-.8.7-1.1.5-1,.3-1-.2-1.2-.5-.7-1.2-.3s-4.3,0-4.3,0Z"/>
    <path class="st1" d="M154.8,40.8l.3-38.8.8-1.4,15.6-.4,1.2.2,1.1.7.8.7,1.2,1.2,1.2,1.8.4,1.4.2,1.8v1.3c0,0,0,1.4,0,1.4l-.2,2.1-.2,1.3-.8,2.3-.7,1.2-1,1.3-.8.8-.9.7-1.6,1-1.2.6-1.4.8-.9.4-.8.3-.9.4h-.2c0,.1,0,11,0,11l-.2,1.4-.4,1.2-.7,1.2-1.2.7-.7.2h-1.1c0,0-1.7.3-1.7.3l-1.9.3-1.6.4-1.8.4h0ZM156.6,2.4l-.2,36.5,1.6-.4,2-.3,1.7-.2h.9c0,0,.4-.2.4-.2l.7-.4.4-.7.3-1,.2-1.2v-11.5c0,0,1.1-.7,1.1-.7l1.1-.5.8-.3.8-.4,1.4-.8,1.2-.6,1.6-.9.8-.5.7-.7.9-1.1.6-1,.7-2,.2-1.1.2-2v-2.4c0,0-.2-1.6-.2-1.6l-.3-1-1-1.4-1.1-1.1-.7-.6-.7-.5h-.8c0-.1-14.6.3-14.6.3l-.2.3h0ZM166.2,16.3h-.6l-.5-.2-.5-.5-.3-.6v-.7c-.1,0-.1,0-.1,0l-.2-7.8h5.1l1.5.4.8,1,.2,1.5-.3,1.2-.6,1.1-.7,1.1-.6.8-.6.6-2.1,1.5-.6.3ZM165.8,14.7h0s.1,0,.1,0l1.8-1.4.4-.4.5-.7.6-1,.5-.9.2-.8v-.8c-.1,0-.4-.3-.4-.3l-.8-.2h-3.4v6.2c.1,0,.2.3.2.3h0Z"/>
    <polygon class="st2" points="179.7 2.5 178.6 38 178.6 38.4 178.7 38.8 178.9 39.2 179.1 39.5 179.5 39.8 179.8 39.9 198.3 39.2 198.8 39.1 199.3 38.7 200 37.8 200.3 37.1 200.3 36.2 200.1 28.6 199.9 28.2 199.5 27.7 198.7 27.4 190.9 27.6 190.2 27.5 189.7 27.2 189.2 26.8 188.9 26.1 189.5 2.3 189.5 1.9 189.4 1.5 188.9 1.3 188.3 1.2 180.9 1.4 180.5 1.4 180.1 1.4 179.8 1.5 179.7 1.7 179.7 2.5"/>
    <path class="st1" d="M179.7,40.7l-.5-.2-.6-.5-.4-.5-.2-.5v-.6c-.1,0-.1-.5-.1-.5l1.1-35.5v-.9l.3-.8.8-.2h.8l7.5-.2h.8c0,.1.8.6.8.6l.3.7v.6s-.5,23.6-.5,23.6v.4c.1,0,.8.4.8.4h.4c0,0,7.9-.1,7.9-.1l1.1.4.6.8.3.7.3,7.8v1.1c0,0-.4.9-.4.9l-.8,1.1-.8.5h-.7c0,.1,0,.1,0,.1l-18.7.8h0ZM179.7,39l.2.2,18.3-.8h.3s.3-.2.3-.2l.5-.7.2-.5v-.8c0,0-.2-7.4-.2-7.4v-.2c0,0-.3-.2-.3-.2h-.4c0-.1-7.8,0-7.8,0h-.9c0-.1-1.4-1-1.4-1l-.4-1.1.6-23.9v-.3h0s-.4,0-.4,0l-7.4.2h-.4v.4s-1.1,35.5-1.1,35.5v.6s.1.2.1.2l.2.2h0Z"/>
    <path class="st2" d="M204.2,9.1l.3-.9.6-1,.7-.9,1-.9.9-.8,1-.8,1-.8,1.2-.8,1.5-.6,1.3-.4.9-.2h4.8c0,0,1.5.3,1.5.3l1.3.3,1.3.5.9.5.8.5,1.2.8.7.6.8,1,.6.9.5,1.1.4.8.2.6v27.7c0,0-.2,1.3-.2,1.3l-.2.7-.3.4h-7.3l-.4-.2-.3-.3-.3-.8v-.5c0,0-.7-9.6-.7-9.6l-.2-.7-.3-.8-.3-.6-.3-.4-.5-.4-.4-.3-.7-.2h-.7c0,0-.8,0-.8,0l-.6.3-.5.4-.3.5-.3.8-.2.7v.8c0,0-.2.9-.2.9l-.7,6.9-.2,1.9-.3,1.1-.5.6-7.2.2-.6-.8-.4-.9-.2-.8-.2-2s.3-25.9.3-25.9ZM213.3,15.1h7.1l-.2-1.4v-3s-.1-.7-.1-.7l-.2-.4-.2-.5-.2-.4-.3-.3-.3-.3-.4-.2-.7-.2h-.5c0,0-.7,0-.7,0h-.6c0,0-.5.3-.5.3l-.7.3-.3.3-.3.4-.3.6-.3.8-.3.7-.2.6-.2.8v.8c0,0,0,2,0,2h.3s0,0,0,0Z"/>
    <path class="st1" d="M204.8,40.4l-.9-1.2-.5-1.1-.2-1-.2-2.1h0s.3-26,.3-26l.4-1.1.7-1.1.7-1,1.1-1,1-.9,2.1-1.6,1.2-.8,1.6-.6,1.3-.4,1-.2h3.3s1.6,0,1.6,0l1.6.3,1.3.4,1.4.5,1,.5.9.5,1.2.9.7.6.9,1.1.6,1,.5,1.1.4.9.2.8v27.9c0,0-.2,1.4-.2,1.4l-.2.9-.5.9h-7.9l-.8-.3-.5-.6-.3-.9v-.6c-.1,0-.7-9.6-.7-9.6v-.6c-.1,0-.4-.7-.4-.7l-.2-.5-.2-.3-.4-.3-.3-.2h-.5c0-.1-.5-.2-.5-.2h-.6c0,0-.4.2-.4.2l-.3.3-.2.3-.2.7-.2.6v.8c0,0-.2.9-.2.9l-.7,6.9-.2,1.9-.4,1.3-.8,1-7.9.2h0ZM205.2,38.5l.3.5,6.4-.2.2-.2.3-.9.2-1.8.7-6.9v-.9c0,0,.2-.9.2-.9l.2-.8.3-1,.5-.7.7-.6.8-.3h1c0-.1.8,0,.8,0l.8.2.6.3.6.5.5.6.3.7.3.8.2.7.6,9.7v.4c0,0,.3.6.3.6h0c0,0,0,.1,0,.1h6.7v-.5c.1,0,.2-1.2.2-1.2V10.4c0,0,0-1.2,0-1.2v-.4c-.1,0-.5-.8-.5-.8l-.5-1.1-.5-.8-.8-.9-.6-.5-1.1-.8-.8-.5-.9-.5-1.2-.5-1.2-.3-1.4-.2h-1.5c0,0-3.1,0-3.1,0h-.8c0,.1-1.2.5-1.2.5l-1.4.6-1.1.7-2,1.5-.9.8-1,.9-.6.8-.5.9-.3.7-.3,25.7.2,1.9v.7c.1,0,.5.8.5.8h0ZM221.3,15.9h-9.1v-3.7c0,0,.3-.8.3-.8l.2-.7.3-.7.4-.8.4-.6.4-.5.5-.4.8-.4.6-.2h.7c0-.1.8-.1.8-.1h.6c0,.1.7.3.7.3l.6.2.8.8.2.6.2.5.2.5v.8c.1,0,.1.8.1.8v2.2l.3,2.2ZM213.7,14.4h5.9v-.6c0,0,0-2.2,0-2.2v-.7s-.1-.6-.1-.6v-.4c-.1,0-.3-.5-.3-.5v-.3c-.1,0-.5-.4-.5-.4h-.2c0,0-.6-.2-.6-.2h-.4c0,0-.5,0-.5,0h-.5c0,0-.4.2-.4.2l-.6.3-.2.2-.2.3-.3.5-.3.7-.2.6-.2.5-.2.7v.7c0,0,0,1.3,0,1.3h0Z"/>
    <polygon class="st2" points="231.7 4.1 231.7 7 232.1 9.4 232.2 10.3 232.4 11.1 232.6 11.9 232.8 13.2 233.2 14.1 233.8 15.2 234.3 16.3 234.8 16.8 235.4 17.6 236.4 18.5 237.4 19.1 238 19.5 239.3 20.2 240.9 21.2 241.6 21.7 241.8 22.8 242 24.5 242 26.3 241.7 28.3 241.6 29.4 241.4 31 241.4 32.7 241.4 33.9 241.4 35.4 241.4 37.1 241.4 38.8 241.4 39.3 241.4 39.7 241.7 39.9 242.1 40.2 242.5 40.4 243.2 40.4 243.9 40.4 245.1 40.4 246.4 40.4 250.9 40.4 251.5 40.4 252.1 40.1 252.8 39.3 253 38.8 253.1 38.2 253.1 37.9 252.9 28.7 252.8 28.2 251.9 22.5 252.9 22.1 253.8 21.7 255 21.2 255.7 20.7 256.8 19.7 257.3 19 257.9 18.1 258.8 16.8 259.6 15.6 260.6 13.8 261.8 11.8 262.6 9.5 262.8 8 263.4 5.6 263.7 3.2 263.6 2.1 263.2 1.8 262.3 1.6 261.4 1.6 252.3 1.8 251.8 2 251.6 2.3 251.5 2.9 251.5 3.6 251.5 5.9 251.3 6.7 251.1 7.4 250.3 8.6 249.6 9.5 248.5 10 247.5 10.3 246.8 10.4 246.1 10.2 245.7 9.6 243.9 5.3 243.1 2.7 236.7 2.5 236 2.6 234.7 2.8 233.9 3.1 233.1 3.5 232.1 3.9 231.7 4.1"/>
    <path class="st1" d="M250.9,41.2h0s-4.5,0-4.5,0h-2.4c0,0-.8,0-.8,0h-.9c0-.1-.5-.4-.5-.4l-.5-.3-.5-.5-.2-.6v-2.4s0-1.7,0-1.7v-2.7c0,0,0-1.8,0-1.8l.2-1.6v-1.1c0,0,.3-2,.3-2v-1.6l-.2-1.6v-.8c-.1,0-.6-.4-.6-.4l-1.5-.9-1.3-.8-.6-.3-1.1-.6-1.1-1-.6-.8-.5-.6-.5-1.1-.6-1.1-.5-1-.4-2.2-.2-.8v-.9c-.1,0-.5-2.5-.5-2.5v-3.5l.9-.4.9-.4.8-.3.8-.4,1.4-.3h.8c0,0,6.9.2,6.9.2l1,3.1,1.7,4.1.2.3h.3c0,.1.5,0,.5,0l.8-.3.9-.4.6-.8.7-1.1.2-.5v-.7c.1,0,.1-2.9.1-2.9v-.8c.1,0,.5-.7.5-.7l.9-.3,9.3-.2h.9l1.2.2.8.7v1.5c.1,0-.2,2.5-.2,2.5l-.6,2.5-.3,1.5-.8,2.4-1.2,2.1-1,1.8-.9,1.2-.9,1.4-.6.9-.6.8-1.1,1.1-.9.5-1.2.6-1,.3-.4.2.9,5.6h0c0,0,.3,9.3.3,9.3v1.2c-.1,0-.5.6-.5.6l-.8,1-.9.4h-.8ZM243.3,39.7h1.8c0,0,1.3,0,1.3,0h4.5c0,0,.5,0,.5,0h.3c0-.1.5-.8.5-.8v-.2c.1,0,.2-.4.2-.4v-.2l-.3-9.2v-.5c0,0-1.1-6.3-1.1-6.3l1.6-.7.9-.3,1.1-.6.7-.4.9-.9.6-.7.6-.8.9-1.4.8-1.2,1-1.7,1.1-2,.7-2.2.3-1.4.6-2.4.2-2.2v-.7c0,0,0,0,0,0h-.7c0-.1-.7-.1-.7-.1l-9,.2h0s0,.4,0,.4v3l-.2,1-.3.8-.8,1.3-.9,1.1-1.3.6-1,.4h-1c0,.1-1.1-.3-1.1-.3l-.6-.9-1.8-4.4-.7-2.1-5.8-.2h-.7c0,0-1.2.3-1.2.3l-.7.3-.8.3-.9.4v2.3l.4,2.4v.9c.1,0,.3.7.3.7l.4,2,.4.8.6,1.1.5,1,.4.5.5.7.9.8.9.6.6.3,1.4.8,1.6,1,1,.8.2,1.4.2,1.8v1.8l-.3,2v1.1c0,0-.3,1.6-.3,1.6v1.6c0,0,0,1.3,0,1.3v1.5s0,1.7,0,1.7v2.2h0s0,0,0,0l.3.2h.2c0,0,.6.2.6.2h0Z"/>
  </g>
  <g id="Layer_11" data-name="Layer_1">
    <g>
      <rect class="st4" x=".4" y=".8" width="40" height="40" rx="2.9" ry="2.9"/>
      <path d="M37.5.8c.8,0,1.5.3,2,.8.5.5.8,1.3.8,2v34.2c0,.8-.3,1.5-.8,2-.5.5-1.3.8-2,.8H3.3c-.8,0-1.5-.3-2-.8-.5-.5-.8-1.3-.8-2V3.7c0-.8.3-1.5.8-2,.5-.5,1.3-.8,2-.8h34.2M37.5.8H3.3C1.7.8.4,2.1.4,3.7v34.2c0,1.6,1.3,2.9,2.9,2.9h34.2c1.6,0,2.9-1.3,2.9-2.9V3.7c0-1.6-1.3-2.9-2.9-2.9h0Z"/>
      <polyline class="st0" points=".8 40.2 .9 39.9 1.1 39.7 1.4 39.3 1.6 39.1 1.8 38.8 2.1 38.4 2.3 38.2 2.6 37.9 2.8 37.6 3.1 37.3 3.3 37.1 3.6 36.8 4 36.3 4.3 36.1 4.8 35.6 5.2 35.2 5.4 34.9 5.7 34.7 6 34.3 6.3 34 6.7 33.6 6.9 33.4 7.1 33.2 7.3 33 7.5 32.8 7.7 32.6 7.9 32.3 8.1 32.1 8.4 31.8 8.7 31.5 8.9 31.2 9.3 30.8 9.5 30.7 9.9 30.4 10.3 30 10.8 29.6 11 29.4 11.5 29 11.7 28.8 12.1 28.5 12.4 28.3 12.7 28.1 12.5 27.8 12.2 27.4 12.1 27.1 11.8 26.5 11.6 26 11.5 25.7 11.4 25.2 11.3 24.8 11.2 24.4 11.1 23.9 10.9 23.5 10.8 23 10.7 22.6 10.6 22.2 10.4 21.8 10.3 21.4 10.3 21.2 10.2 20.7 10 20.1 10 19.8 9.9 19.5 9.9 19.1 9.8 18.5 9.8 18.1 9.8 17.7 9.9 17.2 10 16.8 10 16.4 10.1 16 10.2 15.6 10.3 15.2 10.4 14.9 10.5 14.6 10.6 14.3 10.8 14 11 13.6 11.2 13.3 11.4 13 11.7 12.6 11.9 12.3 12.2 12 12.4 11.7 12.8 11.5 13 11.4 13.3 11.4 13.5 11.4 13.7 11.4 14.1 11.4 14.2 11.5 14.5 11.7 14.7 11.8 14.9 11.9 15.1 12.1 15.2 12.2 15.4 12.3 15.5 12.5 15.6 12.6 15.8 12.7 15.9 12.9 16.1 13.1 16.2 13.3 16.3 13.5 16.5 13.7 16.6 14 16.7 14.2 16.8 14.4 16.9 14.7 17 14.9 17.1 15.2 17.2 15.4 17.3 15.7 17.4 15.9 17.4 16.2 17.5 16.5 17.6 16.8 17.7 17 17.7 17.1 17.8 17.3 17.8 17.5 17.9 17.8 18 18 18.1 18.2 18.1 18.5 18.1 18.7 18.2 19.1 18.3 19.4 18.3 19.6 18.4 19.9 18.4 20.1 18.5 20.4 18.5 20.6 18.6 20.8 18.6 21.1 18.7 21.4 18.7 21.7 18.8 22 18.9 22.3 19 22.5 19 22.8 19.1 23.1 19.2 23.5 19.2 23.8 19.2 24.1 19.2 24.3 19.5 24.2 19.6 24.1 19.8 24 19.9 24 20.2 24 20.4 24 20.4 23.7 20.4 23.3 20.4 23 20.4 22.6 20.4 22.2 20.4 21.8 20.4 21.5 20.4 21.2 20.4 20.7 20.4 20.2 20.5 19.7 20.5 19.4 20.5 19 20.6 18.6 20.7 18.2 20.8 17.7 20.8 17.2 20.9 16.8 21.1 16.3 21.1 15.9 21.2 15.6 21.3 15.2 21.4 14.8 21.5 14.4 21.7 13.9 21.9 13.3 22.2 12.9 22.5 12.3 22.8 11.9 23 11.6 23.4 11.3 23.9 11.1 24.3 11 24.6 10.9 24.9 10.9 25.1 10.9 25.4 10.9 25.7 11 26 11.1 26.2 11.2 26.5 11.4 26.7 11.6 27 11.8 27.1 12.1 27.3 12.4 27.5 12.6 27.7 12.9 27.8 13.1 28 13.5 28.1 13.8 28.3 14 28.4 14.4 28.5 14.7 28.5 15.1 28.5 15.5 28.6 15.9 28.6 16.2 28.6 16.5 28.7 16.9 28.8 17.3 28.8 17.7 28.8 18.2 28.8 18.5 28.8 19 28.8 19.3 28.8 19.8 28.8 20.2 28.7 20.6 28.6 21 28.6 21.3 28.5 21.8 28.5 22.3 28.4 22.7 28.4 23.4 28.4 23.7 28.3 24.2 28.1 24.8 28.1 25.1 28 25.5 27.8 26 27.7 26.6 27.6 26.9 27.4 27.3 27.3 27.8 27.2 28.3 27.4 28.4 28 28.9 28.5 29.2 29.1 29.6 29.5 30 30.2 30.5 30.9 31.1 31.6 31.7 32.5 32.6 33.4 33.4 34.1 34 35 34.7 35.7 35.6 36.6 36.5 37.3 37.4 38.2 38.5 38.9 39.5 39.5 40.5"/>
      <polygon class="st0" points="14.4 26.9 14.8 26.6 15.1 26.3 15.5 26.1 15.9 25.8 16.3 25.5 16.7 25.3 16.9 25 16.8 24.5 16.8 23.9 16.6 23.1 16.5 22.3 16.3 21.4 16.1 20.7 15.9 20 15.6 19.3 15.3 18.7 15 18.1 14.5 17.9 14.1 17.9 13.7 18.2 13.4 18.4 13.1 18.8 13 19.2 12.9 19.7 12.9 20.3 13 20.8 13 21.5 13.2 22.1 13.2 22.7 13.3 23.2 13.5 23.7 13.6 24.2 13.7 24.8 13.7 25.2 13.9 25.6 14 25.9 14.2 26.3 14.4 26.9"/>
      <polygon class="st0" points="22.6 24.7 22.9 25 23.2 25.2 23.5 25.4 23.9 25.6 24.1 25.8 24.3 26 24.6 26.2 25.1 26.6 25.3 26 25.4 25.5 25.6 24.9 25.7 24.4 25.8 23.7 25.9 23.1 26 22.7 26.1 22.1 26.2 21.5 26.4 20.9 26.5 20.4 26.6 19.8 26.6 19.3 26.5 19 26.3 18.7 26 18.4 25.6 18.2 25.1 18.2 24.8 18.3 24.4 18.4 24.1 18.6 24 18.9 23.8 19.2 23.7 19.6 23.7 20 23.6 20.5 23.5 21.1 23.4 21.7 23.2 22.2 23.1 22.8 23 23.3 22.9 23.8 22.8 24.2 22.6 24.7"/>
      <rect class="st0" x=".4" y=".8" width="40" height="40" rx="2.9" ry="2.9"/>
      <polyline class="st0" points="12.9 33 13.4 32.2 14.1 31.9 14.9 31.6 15.4 31.6 16.2 31.6"/>
      <polyline class="st0" points="22.9 31.6 23.5 31.6 24.3 31.6 25 31.6 25.6 32 26.1 32.3 26.6 32.8"/>
      <circle class="st3" cx="15.4" cy="34.1" r="1.4"/>
      <circle class="st3" cx="24.5" cy="34.1" r="1.4"/>
    </g>
  </g>
</svg>