<?xml version="1.0" encoding="UTF-8"?>
<svg xmlns="http://www.w3.org/2000/svg" version="1.1" viewBox="0 0 206.8 206.8">
  <defs>
    <style>
      .cls-1 {
        stroke-width: 6.8px;
      }

      .cls-1, .cls-2 {
        fill: none;
        stroke: #50c8ea;
        stroke-miterlimit: 10;
      }

      .cls-2 {
        stroke-width: 6.8px;
      }

      .cls-3 {
        fill: #50c8ea;
      }

      .cls-4 {
        fill: #fffdee;
      }
    </style>
  </defs>
  <!-- Generator: Adobe Illustrator 28.7.1, SVG Export Plug-In . SVG Version: 1.2.0 Build 142)  -->
  <g>
    <g id="Layer_1">
      <g>
        <path class="cls-4" d="M16.7,3.5h173.4c7.3,0,13.2,5.9,13.2,13.2v173.4c0,7.3-5.9,13.2-13.2,13.2H16.7c-7.3,0-13.2-5.9-13.2-13.2V16.7c0-7.3,5.9-13.2,13.2-13.2Z"/>
        <path d="M190.1,3.5c3.5,0,6.8,1.4,9.3,3.9,2.5,2.5,3.9,5.8,3.9,9.3v173.4c0,3.5-1.4,6.8-3.9,9.3-2.5,2.5-5.8,3.9-9.3,3.9H16.7c-3.5,0-6.8-1.4-9.3-3.9s-3.9-5.8-3.9-9.3V16.7c0-3.5,1.4-6.8,3.9-9.3s5.8-3.9,9.3-3.9h173.4M190.1,3.4H16.7c-7.3,0-13.3,5.9-13.3,13.3v173.4c0,7.3,5.9,13.3,13.3,13.3h173.4c7.3,0,13.3-5.9,13.3-13.3V16.7c0-7.3-5.9-13.3-13.3-13.3h0Z"/>
        <polyline class="cls-2" points="5.1 200.3 5.8 199.2 7 197.8 8.2 196.1 9.3 195 10.2 193.5 11.7 191.7 13 190.4 14.1 189.1 15.5 187.7 16.7 186.2 17.9 184.9 19.3 183.5 21.4 181.2 22.8 179.8 25.4 177.4 27.2 175.3 28.3 174.2 29.7 172.8 31.3 171 32.7 169.4 34.8 167.7 35.9 166.6 37 165.7 37.8 164.6 39 163.5 39.6 162.6 41 161.2 42 159.9 43.2 158.4 44.6 156.9 45.8 155.7 47.7 153.6 48.8 152.8 50.7 151.4 52.7 149.6 55.4 147.3 56.5 146.4 58.7 144.4 60 143.5 61.6 142.1 63.4 140.9 64.8 139.9 63.6 138.4 62.3 136.6 61.6 134.8 60.4 132 59.5 129.7 58.8 127.9 58.2 125.5 57.7 123.5 57.2 121.4 56.6 119 55.9 116.9 55.3 114.6 54.6 112.4 54.2 110.4 53.5 108.4 52.9 106.5 52.7 105.3 52.3 103.2 51.4 99.9 51.2 98.5 50.7 97 50.8 95.1 50.4 92.1 50.4 90 50.5 88 50.8 85.6 51.1 83.4 51.4 81.5 52 79.4 52.5 77.6 52.9 75.7 53.5 74.1 53.9 72.3 54.5 70.8 55.2 69.4 56.2 67.7 57.2 66.1 58.1 64.5 59.7 62.6 60.8 60.9 62.3 59.3 63.5 58.2 65.1 57.1 66.4 56.7 67.7 56.7 68.9 56.7 70 56.7 71.6 56.7 72.5 57.2 73.8 57.8 74.7 58.4 75.7 59.2 76.6 59.8 77.3 60.4 78.3 61 79 61.8 79.5 62.6 80.4 63.2 80.9 64.1 81.7 64.9 82.3 65.8 82.9 66.8 83.6 68.1 84.2 69.5 84.6 70.4 85.1 71.6 85.8 72.9 86.3 74.1 86.6 75.3 87.3 76.7 87.7 77.9 88.1 79 88.4 80.7 88.9 82 89.5 83.4 89.7 84.5 89.7 85.2 90.2 86.1 90.5 87.1 91 88.3 91.4 89.4 91.8 90.5 92 91.9 92 93.1 92.4 94.8 92.9 96.4 92.9 97.5 93.5 99 93.5 100.1 93.8 101.5 93.8 102.6 94.1 103.7 94.1 105 94.7 106.5 95 108.1 95.5 109.5 95.8 110.8 96.2 112.2 96.5 113.7 96.9 114.9 97.3 117.2 97.3 118.4 97.3 119.9 97.3 121 98.6 120.3 99.5 120 100.3 119.7 101 119.6 102.1 119.6 103.1 119.6 103.1 117.9 103.1 116 103.1 114.4 103.1 112.3 103.5 110.5 103.5 108.7 103.5 107.1 103.5 105.4 103.5 103.1 103.5 100.5 103.9 98.2 103.9 96.4 103.9 94.6 104.4 92.5 104.7 90.5 105.1 87.9 105.4 85.6 105.9 83.5 106.6 81.2 106.9 79.2 107.3 77.7 107.7 75.7 108.2 73.3 108.8 71.3 109.8 68.9 110.9 65.9 112.1 63.8 113.6 61.2 115.1 59.2 116.4 57.6 118.5 56.1 120.9 54.8 122.8 54.3 124.3 53.9 125.6 53.9 127 53.9 128.1 53.9 129.6 54.4 131.2 54.8 132.4 55.4 133.6 56.3 134.6 57.3 136.1 58.6 136.9 59.9 138 61.5 138.9 62.7 139.8 64.1 140.3 65.2 141.2 66.8 141.9 68.3 142.6 69.7 143.3 71.5 143.6 73.1 143.9 74.9 143.9 76.9 144.4 78.9 144.4 80.4 144.4 82 144.7 83.9 145.1 85.9 145.4 88.1 145.4 90.3 145.4 92 145.4 94.3 145.4 96 145.1 98.7 145.1 100.4 144.9 102.4 144.5 104.4 144.2 106.2 143.9 108.4 143.8 111 143.5 113 143.3 116.3 143.2 118.1 142.7 120.5 142 123.3 141.7 124.8 141.1 127.2 140.5 129.4 139.6 132.5 139.1 133.9 138.5 135.8 137.7 138.4 137.1 141 138.3 141.7 141.2 143.9 143.7 145.4 146.6 147.7 148.9 149.3 152.5 152.2 155.6 154.8 159.3 158.2 164 162.4 168.4 166.3 171.7 169.3 176.1 173.1 179.8 177.4 184.1 181.9 187.7 186.4 192.1 192 195.8 197 198.6 201.9"/>
        <polygon class="cls-2" points="73.3 133.9 75.1 132.6 77 131.2 78.7 129.8 80.7 128.4 82.7 127.1 84.9 125.8 86 124.6 85.5 122.1 85.1 118.8 84.5 114.9 83.8 111.2 82.7 106.7 81.7 103 80.7 99.6 79.2 96.1 77.6 92.9 76.1 90.1 74 89.1 71.8 89.1 69.7 90.7 68.2 91.6 66.9 93.4 66.1 95.5 65.6 98 65.6 101.1 66.1 103.3 66.5 106.9 67.1 109.8 67.5 113 67.9 115.7 68.6 118.1 69.1 120.7 69.9 123.3 70 125.6 70.9 127.3 71.3 129.1 72.2 131.1 73.3 133.9"/>
        <polygon class="cls-2" points="114.1 123.1 115.9 124.4 117.1 125.3 118.8 126.4 120.6 127.7 121.7 128.7 123 129.4 124.5 130.6 127 132.4 127.7 129.7 128.4 126.8 129.1 124 129.7 121.4 130.4 117.8 130.9 115.2 131.4 112.9 132 110 132.5 107 133.2 103.8 133.8 101.3 134.2 98.6 134.2 96.1 133.7 94.5 132.8 92.8 131.2 91.4 129.4 90.6 126.6 90.6 125.1 91.1 123.3 91.5 122 92.7 121.2 94.2 120.4 95.5 120 97.5 119.7 99.3 119.2 101.8 118.6 105 118.1 107.9 117.5 110.7 116.8 113.6 116.2 116.1 115.6 118.7 115.3 120.5 114.1 123.1"/>
        <rect class="cls-1" x="3.4" y="3.4" width="200" height="200" rx="14.6" ry="14.6"/>
        <polyline class="cls-2" points="65.6 164.7 68.1 160.6 72 158.9 75.8 157.7 78.3 157.7 82.1 157.7"/>
        <polyline class="cls-2" points="116 157.7 119 157.7 122.8 157.7 126.4 157.7 129.4 159.5 132 161.2 134.2 163.6"/>
        <circle class="cls-3" cx="78.2" cy="169.8" r="7.2"/>
        <circle class="cls-3" cx="123.7" cy="169.8" r="7.2"/>
      </g>
    </g>
  </g>
</svg>