<?xml version="1.0" encoding="UTF-8"?><svg id="Layer_1" xmlns="http://www.w3.org/2000/svg" viewBox="0 0 100 50"><defs><style>.cls-1{fill:#00c22d;}.cls-2{fill:#fffdee;}</style></defs><path class="cls-2" d="M10.0654,2h79.8687c4.4517,0,8.0659,3.6142,8.0659,8.0659v29.8687c0,4.4514-3.614,8.0654-8.0654,8.0654H10.0654c-4.4514,0-8.0654-3.614-8.0654-8.0654V10.0654C2,5.614,5.614,2,10.0654,2Z"/><path class="cls-1" d="M89.9342,4c3.3447,0,6.0658,2.7211,6.0658,6.0658v29.8684c0,3.3447-2.7211,6.0658-6.0658,6.0658H10.0658c-3.3447,0-6.0658-2.7211-6.0658-6.0658V10.0658c0-3.3447,2.7211-6.0658,6.0658-6.0658h79.8684M89.9342,0H10.0658C4.5066,0,0,4.5066,0,10.0658v29.8684c0,5.5592,4.5066,10.0658,10.0658,10.0658h79.8684c5.5592,0,10.0658-4.5066,10.0658-10.0658V10.0658c0-5.5592-4.5066-10.0658-10.0658-10.0658h0Z"/><path d="M31.5205,12.1914c.3418,0,.6504.1445.9277.4326s.416.624.416,1.0078c0,8.3418.0371,13.3818.1133,15.1201.0742,1.7393.1113,2.6289.1113,2.6719,0,.4697-.1289.9121-.3848,1.3281s-.5391.624-.8477.624-.543-.0166-.7031-.0479c-.1602-.0322-.3047-.0693-.4316-.1123-.1289-.043-.2578-.1279-.3848-.2559l-.3203-.3203c-.0859-.085-.1973-.25-.3359-.4961-.1387-.2451-.25-.4424-.3359-.5918s-.2188-.4102-.4004-.7842c-.1816-.373-.5762-1.1357-1.1836-2.2881-.6074-1.1514-1.1582-2.1865-1.6484-3.1035-1.6855-3.0928-3.2539-5.5361-4.7031-7.3281,0,6.9336-.1914,11.7441-.5762,14.4316-.0645.5127-.459.7686-1.1846.7686-.3418,0-.624-.085-.8477-.2559-.2246-.1709-.3359-.4482-.3359-.832,0-.3848.0801-2.4961.2393-6.3359.1602-3.8408.2402-6.2354.2402-7.1846v-1.8076c0-1.5361.1172-2.4004.3525-2.5928.2344-.1914.4795-.2871.7354-.2871,1.1738,0,2.9648,1.9199,5.377,5.7598.4688.7471,1.3652,2.3096,2.6875,4.6875,1.3223,2.3789,2.1113,3.8457,2.3672,4.4004l-.3828-13.2803c0-1.834.2031-2.8799.6074-3.1357.2129-.1279.4902-.1924.832-.1924Z"/><path d="M35.9365,22.3682c-.2988-.1924-.4482-.4697-.4482-.832,0-.3633.1172-.6934.3525-.9922-.0859-2.1328-.1279-4.3838-.1279-6.752.1279-.5127.3252-.8857.5918-1.1201s.6562-.3838,1.168-.4482c2.8164.1279,5.8662.1924,9.1523.1924.8105.1709,1.2158.5225,1.2158,1.0557,0,.8965-.875,1.4189-2.624,1.5684-.4697.0215-.9814.0312-1.5361.0312h-2.0801c-.4053,0-1.5254-.085-3.3594-.2559,0,2.667.042,4.502.1279,5.5039,1.1299.0215,3.3057.0322,6.5273.0322.7686.1494,1.1523.4961,1.1523,1.04s-.3096.9658-.9277,1.2637c-.0645.0439-.1816.0859-.3525.1289l-5.5361-.0967c-.3408,0-.6191.0215-.832.0645l.1279,5.5039c0,1.2373-.0312,2.123-.0957,2.6562l7.4238-.0967c.6826.1074,1.0244.3955,1.0244.8643,0,.3203-.1445.6396-.4316.96-.2881.3203-.624.5234-1.0088.6084l-8.1914.1279c-.4912,0-.832-.0908-1.0244-.2725-.1914-.1807-.2881-.4844-.2881-.9121.085-.5967.1279-1.5566.1279-2.8799v-2.2402l-.1279-4.7031Z"/><path d="M50.3359,33.5361c-.7256,0-1.0879-.3096-1.0879-.9287,0-.3408.085-.6826.2559-1.0234.1709-.1924.9873-1.0928,2.4482-2.7041,1.4609-1.6104,2.8105-3.1846,4.0479-4.7197-2.9014-4.5225-4.7471-7.4775-5.5361-8.8643-.1064-.2559-.1592-.5391-.1592-.8486,0-.3086.1543-.623.4639-.9434.3086-.3203.6611-.4805,1.0557-.4805s.709.1816.9443.5439c2.1328,3.499,3.8506,6.2617,5.1514,8.2881,2.2188-2.6025,4.3203-5.5039,6.3047-8.7041.3623-.6396.874-.96,1.5361-.96.2559,0,.4736.0801.6553.2402s.2725.3574.2725.5918c0,.2354-.0645.5342-.1924.8965-1.5996,2.667-3.9893,6.0049-7.168,10.0156,1.835,2.9443,3.5303,5.3232,5.0879,7.1357.1709.3418.2559.6621.2559.96,0,.2998-.1543.6084-.4639.9287-.3096.3193-.6553.4795-1.04.4795-.3838,0-.7148-.1064-.9912-.3193-.96-1.2168-2.5605-3.5205-4.8008-6.9121-1.4287,1.6855-3.4668,4-6.1113,6.9434-.3418.2568-.6514.3848-.9287.3848Z"/><path d="M68.96,12.6074l12.96-.1914c.6182.1914.9277.501.9277.9277,0,1.0674-.4375,1.5996-1.3115,1.5996-1.6006,0-3.2959.043-5.0879.1279-.1074,1.835-.1602,3.2168-.1602,4.1445v1.7764l.1279,11.2314c0,.6611-.1709,1.0459-.5127,1.1523-.2559.085-.5752.1279-.96.1279-.6182,0-.96-.3525-1.0234-1.0566-.1279-1.6416-.1924-4.709-.1924-9.1992s.0645-7.1943.1924-8.1123c-.4482.0215-1.1094.0322-1.9844.0322s-1.9629-.0107-3.2637-.0322c-.3418,0-.6084-.1064-.7998-.3203-.1924-.2129-.2881-.4746-.2881-.7842,0-.3086.1328-.6123.3994-.9111s.5928-.4697.9766-.5127Z"/></svg>