<?xml version="1.0" encoding="UTF-8"?>
<svg id="Layer_1" xmlns="http://www.w3.org/2000/svg" version="1.1" viewBox="0 0 100 50">
  <!-- Generator: Adobe Illustrator 29.1.0, SVG Export Plug-In . SVG Version: 2.1.0 Build 142)  -->
  <defs>
    <style>
      .st0 {
        fill: #fffdee;
      }

      .st1 {
        fill: #ff8a20;
      }
    </style>
  </defs>
  <path class="st0" d="M10.1,2h79.9c4.5,0,8.1,3.6,8.1,8.1v29.9c0,4.5-3.6,8.1-8.1,8.1H10.1c-4.5,0-8.1-3.6-8.1-8.1V10.1C2,5.6,5.6,2,10.1,2Z"/>
  <path class="st1" d="M89.9,4c3.3,0,6.1,2.7,6.1,6.1v29.9c0,3.3-2.7,6.1-6.1,6.1H10.1c-3.3,0-6.1-2.7-6.1-6.1V10.1c0-3.3,2.7-6.1,6.1-6.1h79.9M89.9,0H10.1C4.5,0,0,4.5,0,10.1v29.9c0,5.6,4.5,10.1,10.1,10.1h79.9c5.6,0,10.1-4.5,10.1-10.1V10.1c0-5.6-4.5-10.1-10.1-10.1h0Z"/>
  <path d="M31.5,12.2c.3,0,.7.1.9.4s.4.6.4,1c0,8.3,0,13.4,0,15.1,0,1.7,0,2.6,0,2.7,0,.5,0,.9-.4,1.3s-.5.6-.8.6h-.7c-.2,0-.3,0-.4,0-.1,0-.3,0-.4-.3l-.3-.3s-.2-.2-.3-.5c-.1-.2-.2-.4-.3-.6s-.2-.4-.4-.8c-.2-.4-.6-1.1-1.2-2.3-.6-1.2-1.2-2.2-1.6-3.1-1.7-3.1-3.3-5.5-4.7-7.3,0,6.9-.2,11.7-.6,14.4,0,.5-.5.8-1.2.8s-.6,0-.8-.3c-.2-.2-.3-.4-.3-.8s0-2.5.2-6.3.2-6.2.2-7.2v-1.8c0-1.5.1-2.4.4-2.6.2-.2.5-.3.7-.3,1.2,0,3,1.9,5.4,5.8.5.7,1.4,2.3,2.7,4.7,1.3,2.4,2.1,3.8,2.4,4.4l-.4-13.3c0-1.8.2-2.9.6-3.1.2-.1.5-.2.8-.2h-.1Z"/>
  <path d="M35.9,22.4c-.3-.2-.4-.5-.4-.8s0-.7.4-1c0-2.1,0-4.4,0-6.8,0-.5.3-.9.6-1.1s.7-.4,1.2-.4c2.8.1,5.9.2,9.2.2.8.2,1.2.5,1.2,1.1,0,.9-.9,1.4-2.6,1.6h-3.6c-.4,0-1.5,0-3.4-.3,0,2.7,0,4.5,0,5.5h6.5c.8.1,1.2.5,1.2,1s-.3,1-.9,1.3c0,0-.2,0-.4.1h-6.3v5.5c0,1.2,0,2.1,0,2.7h7.4c.7,0,1,.3,1,.8s0,.6-.4,1c-.3.3-.6.5-1,.6h-8.2c-.5,0-.8,0-1,0-.2-.2-.3-.5-.3-.9,0-.6,0-1.6,0-2.9v-6.9c0,0-.3-.2-.3-.2Z"/>
  <path d="M50.3,33.5c-.7,0-1.1-.3-1.1-.9s0-.7.3-1,1-1.1,2.4-2.7c1.5-1.6,2.8-3.2,4-4.7-2.9-4.5-4.7-7.5-5.5-8.9,0-.3-.2-.5-.2-.8s.2-.6.5-.9c.3-.3.7-.5,1.1-.5s.7.2.9.5c2.1,3.5,3.9,6.3,5.2,8.3,2.2-2.6,4.3-5.5,6.3-8.7.4-.6.9-1,1.5-1s.5,0,.7.2.3.4.3.6,0,.5-.2.9c-1.6,2.7-4,6-7.2,10,1.8,2.9,3.5,5.3,5.1,7.1.2.3.3.7.3,1s-.2.6-.5.9c-.3.3-.7.5-1,.5s-.7,0-1-.3c-1-1.2-2.6-3.5-4.8-6.9-1.4,1.7-3.5,4-6.1,6.9-.3.3-.7.4-.9.4h-.1Z"/>
  <path d="M69,12.6l13-.2c.6.2.9.5.9.9,0,1.1-.4,1.6-1.3,1.6-1.6,0-3.3,0-5.1.1,0,1.8-.2,3.2-.2,4.1v13c0,.7,0,1-.4,1.2-.3,0-.6,0-1,0-.6,0-1-.4-1-1.1,0-1.6-.2-4.7-.2-9.2s0-7.2.2-8.1h-5.3c-.3,0-.6-.1-.8-.3-.2-.2-.3-.5-.3-.8s0-.6.4-.9.6-.5,1-.5h.1Z"/>
</svg>