<?xml version="1.0" encoding="UTF-8"?><svg id="Layer_1" xmlns="http://www.w3.org/2000/svg" viewBox="0 0 80 40"><defs><style>.cls-1{fill:#ab08ff;}.cls-2{fill:#fffdee;}</style></defs><rect class="cls-2" x="2" y="2" width="76" height="36" rx="8.0029" ry="8.0029"/><path class="cls-1" d="M69.9972,4c3.3099,0,6.0028,2.6928,6.0028,6.0028v19.9945c0,3.3099-2.6928,6.0028-6.0028,6.0028H10.0028c-3.3099,0-6.0028-2.6928-6.0028-6.0028V10.0028c0-3.3099,2.6928-6.0028,6.0028-6.0028h59.9945M69.9972,0H10.0028C4.4784,0,0,4.4784,0,10.0028v19.9945c0,5.5244,4.4784,10.0028,10.0028,10.0028h59.9945c5.5244,0,10.0028-4.4784,10.0028-10.0028V10.0028c0-5.5244-4.4784-10.0028-10.0028-10.0028h0Z"/><path d="M9.9048,15.1938c1.1514,0,2.0762.252,2.7715.7559.6963.5039,1.0439,1.1802,1.0439,2.0278,0,1.3125-.4072,2.2803-1.2236,2.9043-.5918.4482-1.3916.6719-2.4004.6719-.3838,0-.7998-.0322-1.2476-.0967.0479.9453.0718,1.7646.0718,2.4609,0,.6953-.0161,1.2998-.0479,1.8125-.0322.3672-.2642.5508-.6958.5508-.4321,0-.7163-.0879-.8521-.2637-.1362-.1758-.2041-.4395-.2041-.792v-9.0239c.0317-.6719.96-1.0078,2.7842-1.0078ZM8.8003,16.8979c-.0322.48-.0479.9956-.0479,1.5479v1.3081c.416.0479.8799.0718,1.3916.0718.5127,0,.9365-.0957,1.2725-.2881.4639-.2554.6963-.7358.6963-1.4399v-.2158c-.0322-.416-.417-.7202-1.1523-.9121-.416-.1118-.7998-.168-1.1514-.168-.3525,0-.6885.0322-1.0088.0962Z"/><path d="M17.8247,20.8818l.0479,3.1436c0,.416-.0088.6406-.0244.6719l4.1523-.0713c.4639.0479.6963.248.6963.5996,0,.6729-.3125,1.0088-.9365,1.0088l-4.7041.0469c-.2881,0-.5-.0996-.6357-.2988-.1357-.2012-.2119-.4121-.2275-.6367-.0166-.2236-.0244-.4717-.0244-.7441v-3.9839c-.208-.1118-.3125-.2798-.3125-.5039s.0879-.4238.2646-.6001c-.0479-1.248-.0723-2.3838-.0723-3.4077,0-.5918.3604-.896,1.0801-.9121h.6719l4.2002.0718h.0234c.5127.0645.7686.3042.7686.7202,0,.3203-.0957.5361-.2881.6479-.416.2241-1.416.3359-3,.3359-.5918,0-1.1846-.0239-1.7764-.0718,0,1.4399.0078,2.248.0244,2.4238.624.0161,1.8477.0239,3.6719.0239.4961.064.7441.2881.7441.6719,0,.1924-.0801.3765-.2402.5522-.1602.1763-.332.2759-.5156.2998-.1846.0239-.5762.0361-1.1758.0361-.6006,0-1.4043-.0078-2.4121-.0239Z"/><path d="M26.8003,25.3936c0,.2402-.1123.4482-.3359.624s-.4717.2637-.7441.2637c-.3516,0-.5273-.1592-.5273-.4795-.0645-.752-.0967-3.7354-.0967-8.9521,0-.5117.3086-.9121.9248-1.1997.6152-.2881,1.4395-.4321,2.4717-.4321s1.9355.2559,2.7119.7681c.7754.5122,1.1641,1.1279,1.1641,1.8477,0,.3525-.1523.7441-.4561,1.1763s-.6279.772-.9717,1.02c-.3447.248-.8369.5483-1.4766.8999s-1.0322.5439-1.1758.5762c1.0078.6406,1.9043,1.3359,2.6875,2.0879.7842.752,1.1768,1.3438,1.1768,1.7754,0,.4326-.1924.7129-.5762.8408-.1123.0322-.2559.0479-.4326.0479-.1758,0-.3994-.1719-.6719-.5156-.2715-.3438-.7842-.8398-1.5352-1.4883-.7529-.6484-1.4971-1.2285-2.2324-1.7402.0322,1.2803.0635,2.2324.0957,2.8555v.0244ZM26.7046,20.3779c.5283,0,1.3203-.2603,2.376-.7803,1.0557-.5195,1.6084-1.0039,1.6562-1.4521,0-.4316-.2402-.7559-.7207-.9717-.4795-.2163-.9834-.3242-1.5117-.3242-.6084,0-1.2002.0723-1.7754.2163-.0166.7676-.0244,1.8716-.0244,3.312Z"/><path d="M39.5923,21.2178h-2.9766c0,1.4873.0244,2.8164.0723,3.9834,0,.7529-.248,1.1289-.7441,1.1289s-.7842-.3047-.8633-.9121c-.0322-.1445-.0488-.8008-.0488-1.9688v-3.7915c0-1.376-.0078-2.2715-.0234-2.688-.416-.0479-.624-.3516-.624-.9121,0-.1279.0723-.2881.2158-.48.1924-.2397.3877-.3599.5879-.3599s.5596.0239,1.0801.0718c.5195.0483,1.708.0723,3.5645.0723.9277,0,1.3921.2559,1.3921.7681,0,.3999-.1289.6323-.3843.6958-.0801.0322-.1367.0601-.168.084-.0322.0239-.1045.04-.2158.0479-.1123.0083-.1768.0122-.1924.0122-.0801.0322-.2686.0562-.5645.0718-.2959.0166-.7041.0244-1.2236.0244-.5205,0-1.1396-.0244-1.8604-.0723v2.5923h3.1201c.1445,0,.2881.0801.4326.2397.1436.1602.2158.3481.2158.564,0,.2163-.0684.4082-.2041.5762s-.332.252-.5879.252Z"/><path d="M47.7285,15.314c1.1836,0,2.1387.4556,2.8672,1.3677s1.0918,2.1602,1.0918,3.7441-.4004,2.9521-1.1992,4.1035c-.8008,1.1523-1.8164,1.7285-3.0488,1.7285-1.3438,0-2.4395-.5762-3.2871-1.7285-.8496-1.1514-1.2734-2.5586-1.2734-4.2236,0-1.6636.4414-2.9116,1.3203-3.7441.8809-.8315,2.0566-1.2476,3.5293-1.2476ZM49.959,20.6899c0-1.2803-.1836-2.2202-.5508-2.8203-.3691-.6001-1.0176-.8999-1.9453-.8999s-1.6484.2842-2.1602.8521-.7676,1.376-.7676,2.4238.2715,2.02.8164,2.9165c.543.8965,1.2969,1.3438,2.2559,1.3438.543,0,1.0078-.2324,1.3926-.6963.6387-.7998.959-1.8389.959-3.1196Z"/><path d="M55.5996,25.3936c0,.2402-.1133.4482-.3359.624-.2246.1758-.4727.2637-.7441.2637-.3516,0-.5273-.1592-.5273-.4795-.0645-.752-.0977-3.7354-.0977-8.9521,0-.5117.3086-.9121.9258-1.1997.6152-.2881,1.4395-.4321,2.4707-.4321,1.0332,0,1.9355.2559,2.7129.7681.7754.5122,1.1641,1.1279,1.1641,1.8477,0,.3525-.1523.7441-.457,1.1763-.3027.4321-.627.772-.9707,1.02-.3457.248-.8379.5483-1.4766.8999-.6406.3516-1.0332.5439-1.1758.5762,1.0078.6406,1.9043,1.3359,2.6875,2.0879s1.1758,1.3438,1.1758,1.7754c0,.4326-.1914.7129-.5762.8408-.1113.0322-.2559.0479-.4316.0479s-.4004-.1719-.6719-.5156-.7852-.8398-1.5352-1.4883c-.7539-.6484-1.498-1.2285-2.2324-1.7402.0312,1.2803.0625,2.2324.0957,2.8555v.0244ZM55.5039,20.3779c.5273,0,1.3203-.2603,2.375-.7803,1.0566-.5195,1.6094-1.0039,1.6562-1.4521,0-.4316-.2402-.7559-.7207-.9717-.4785-.2163-.9824-.3242-1.5117-.3242-.6074,0-1.1992.0723-1.7754.2163-.0156.7676-.0234,1.8716-.0234,3.312Z"/><path d="M72.3516,14.6416c.4648,0,.6973.2246.6973.6724.0469,2.8477.0703,6.1685.0703,9.9595,0,.2559-.0918.4883-.2754.6963s-.4766.3115-.875.3115c-.4004,0-.6016-.2637-.6016-.791,0-1.6963-.0117-2.9561-.0352-3.7803s-.0352-1.7163-.0352-2.6763c-.5938.7202-1.1641,1.2241-1.7168,1.5122-.5527.2876-1.2832.4316-2.1953.4316s-1.625-.2476-2.1367-.7437c0,2.8638-.0156,4.5435-.0488,5.0396-.0312.6719-.4082,1.0078-1.127,1.0078-.4316,0-.6484-.2314-.6484-.6953l.0723-4.4404v-4.7275c0-.2241.0879-.4399.2637-.6484.1758-.2075.3809-.312.6113-.312.2324,0,.4414.0522.625.1562s.2832.2603.3008.4678c.0312.8164.2676,1.5444.707,2.1841.4395.6401.9395.96,1.5.96,1.6152,0,2.7363-.8716,3.3594-2.6157.0332-.0801.0996-.2881.2051-.624.1035-.3359.1875-.5679.252-.6963.0625-.1279.1875-.2676.3711-.4199.1836-.1519.4043-.228.6602-.228Z"/></svg>