<?xml version="1.0" encoding="UTF-8"?>
<svg id="Layer_1" xmlns="http://www.w3.org/2000/svg" version="1.1" viewBox="0 0 90 40">
  <!-- Generator: Adobe Illustrator 29.0.0, SVG Export Plug-In . SVG Version: 2.1.0 Build 186)  -->
  <defs>
    <style>
      .st0 {
        fill: #ab08ff;
      }

      .st1 {
        fill: #fffdee;
      }
    </style>
  </defs>
  <g>
    <rect class="st1" x="2" y="2" width="86" height="36" rx="8.1" ry="8.1"/>
    <path class="st0" d="M80,4c3.4,0,6.1,2.7,6.1,6.1v19.9c0,3.4-2.7,6.1-6.1,6.1H10c-3.4,0-6.1-2.7-6.1-6.1V10c0-3.4,2.7-6.1,6.1-6.1h69.9M80,0H10C4.5,0,0,4.5,0,10v19.9c0,5.5,4.5,10,10,10h69.9c5.5,0,10-4.5,10-10V10c0-5.5-4.5-10-10-10h0Z"/>
  </g>
  <g>
    <path d="M10.9,24.3c0-1.4-.1-3.4-.1-5.8s0-4,.1-4.8c0-.4.4-.7.9-.9.5-.1,1.3-.2,2.2-.2,1.3,0,2.4.3,3.3.9.9.6,1.4,1.4,1.4,2.5s-.1,1.7-.4,2.3c-.3.6-.6,1.1-.9,1.4-.6.5-1.5.7-2.7.7s-1.2,0-2-.2c0,2.8,0,4.6,0,5.3,0,.7-.3,1.1-.7,1.1s-.5,0-.6-.2-.1-.2-.2-.2c0,0,0-.1,0-.2,0,0,0-.2,0-.2,0,0,0-.2,0-.3,0-.1,0-.2,0-.3,0-.2,0-.4,0-.7ZM16.9,16c0-.6-.3-1-.9-1.3-.6-.3-1.3-.5-2-.5s-1.2,0-1.5.2c0,.8,0,1.6,0,2.3s0,1.3,0,1.9c.4,0,.6,0,.8.1.4,0,.7,0,.9,0s.4,0,.5,0,.3,0,.5,0c.3,0,.4,0,.6-.2.1,0,.3-.2.4-.3.2-.1.3-.3.4-.5.2-.5.3-1,.3-1.6Z"/>
    <path d="M21,19.2c-.2-.1-.3-.3-.3-.5s0-.5.2-.7c0-1.4,0-2.9,0-4.4,0-.3.2-.6.4-.7s.4-.3.8-.3c1.8,0,3.8.1,6,.1.5.1.8.3.8.7,0,.6-.6.9-1.7,1-.3,0-.6,0-1,0h-1.4c-.3,0-1,0-2.2-.2,0,1.8,0,3,0,3.6.7,0,2.2,0,4.3,0,.5,0,.8.3.8.7s-.2.6-.6.8c0,0-.1,0-.2,0h-3.6c-.2,0-.4,0-.5,0v3.6c0,.8,0,1.4,0,1.7h4.9c.4,0,.7.2.7.5s0,.4-.3.6c-.2.2-.4.3-.7.4h-5.4c-.3,0-.5,0-.7,0s-.2-.3-.2-.6c0-.4,0-1,0-1.9v-4.6Z"/>
    <path d="M31.3,26.2c-.2.2-.5.3-.7.3s-.4-.2-.5-.5c0-1.8,0-3.7,0-5.5v-5.3c0-1.1.4-1.8,1.3-2.2.8-.3,1.7-.5,2.7-.5s1.1.1,1.7.4c.6.3,1.2.6,1.6,1.1.5.5.7,1,.7,1.6s-.3,1.2-.8,1.9c-.5.7-1.2,1.3-2,1.8-.8.5-1.5.9-2.3,1.1,1.3.9,2.4,1.9,3.4,2.9s1.4,1.9,1.4,2.4,0,.4-.3.5c-.2.2-.4.2-.7.2s-.5-.1-.7-.3c-.3-.7-.9-1.5-1.8-2.3-.9-.8-1.9-1.6-3-2.3v4c.1.3,0,.5-.2.7ZM34.7,18.1c1.2-.7,1.8-1.4,1.8-2s-.3-1.1-.9-1.4c-.6-.3-1.3-.5-2.1-.5s-1.4,0-1.9.3c0,.7,0,2.3,0,4.7.9,0,2-.4,3.2-1.2Z"/>
    <path d="M43,12.8h2.3c1,0,1.6.2,1.6.8s0,.3,0,.4c0,0,0,.1-.1.2s0,0-.2.1c-.2,0-.3,0-.4.1s-.2,0-.2,0c-.2,0-.4,0-.8,0-.4,0-.9,0-1.6,0s-1.5,0-2.6,0v3.9h4.3c.2,0,.3,0,.4.2.1.1.2.3.2.5,0,.6-.3,1-.8,1h-4.1v5.5c0,.7-.2,1.1-.6,1.1s-.8-.3-.9-1c0-.2,0-2,0-5.3,0-3.4,0-5.3,0-5.8-.5,0-.8-.2-.8-.9s0-.4.2-.6.3-.3.4-.3c.1,0,.2,0,.4,0s.6,0,1.2,0c.9,0,1.6.1,2.3.1Z"/>
    <path d="M52.9,12.5c1,0,1.8.3,2.5.9,1.3,1.2,2,3.1,2,5.7s-.7,4.6-2.2,6.1c-.8.7-1.7,1.1-2.7,1.2-1.3,0-2.4-.5-3.1-1.4-.7-.9-1.3-1.9-1.6-3.1s-.5-2.2-.5-3.3c0-1.8.4-3.3,1.3-4.4.9-1.2,2.3-1.9,4.3-1.9ZM52.8,14.2c-1.9,0-3,.9-3.5,2.7-.1.5-.2,1.1-.2,1.8s.1,1.6.4,2.6c.4,1.3.9,2.2,1.7,2.8.4.3,1,.5,1.6.5s1.2-.3,1.7-.8c.5-.6.8-1.3,1-2.1.2-.9.3-1.7.3-2.6,0-1.5-.2-2.7-.7-3.6-.4-.8-1.2-1.3-2.2-1.3Z"/>
    <path d="M60.3,26.2c-.2.2-.5.3-.7.3s-.4-.2-.5-.5c0-1.8,0-3.7,0-5.5v-5.3c0-1.1.4-1.8,1.3-2.2.8-.3,1.7-.5,2.7-.5s1.1.1,1.7.4c.6.3,1.2.6,1.6,1.1.5.5.7,1,.7,1.6s-.3,1.2-.8,1.9c-.5.7-1.2,1.3-2,1.8-.8.5-1.5.9-2.3,1.1,1.3.9,2.4,1.9,3.4,2.9s1.4,1.9,1.4,2.4,0,.4-.3.5c-.2.2-.4.2-.7.2s-.5-.1-.7-.3c-.3-.7-.9-1.5-1.8-2.3-.9-.8-1.9-1.6-3-2.3v4c.1.3,0,.5-.2.7ZM63.8,18.1c1.2-.7,1.8-1.4,1.8-2s-.3-1.1-.9-1.4c-.6-.3-1.3-.5-2.1-.5s-1.4,0-1.9.3c0,.7,0,2.3,0,4.7.9,0,2-.4,3.2-1.2Z"/>
    <path d="M78.5,12.5c.3,0,.6.2.7.7,0,2.3.1,4.8.1,7.5s0,4.3,0,4.7c0,.4-.1.7-.3.9s-.4.3-.8.3-.5-.2-.5-.7v-4.7c0-.8,0-1.6,0-2.4,0-.8,0-1.3,0-1.5-.5.8-1.1,1.5-1.9,2-.8.5-1.7.8-2.6.8s-1.8-.4-2.4-1.2c0,.9,0,1.9,0,3s0,2.4,0,3.7c0,.4-.1.6-.3.8-.2.2-.5.2-.8.2s-.6-.2-.6-.7c0-1.3,0-3.3,0-6v-6c0-.2,0-.5.2-.7.2-.2.3-.3.6-.3s.4,0,.6.2c.2.1.3.3.3.5,0,1.6.3,2.7.8,3.5.4.8,1,1.1,1.6,1.1s1.1-.1,1.6-.3.8-.4,1.1-.7c.3-.3.6-.6.8-1.1.4-.7.7-1.6,1.1-2.6.2-.6.6-.9,1-.9Z"/>
  </g>
</svg>