<?xml version="1.0" encoding="UTF-8"?>
<svg id="Layer_1" xmlns="http://www.w3.org/2000/svg" version="1.1" viewBox="0 0 100 50">
  <!-- Generator: Adobe Illustrator 29.1.0, SVG Export Plug-In . SVG Version: 2.1.0 Build 142)  -->
  <defs>
    <style>
      .st0 {
        fill: #ab08ff;
      }

      .st1 {
        fill: #fffdee;
      }
    </style>
  </defs>
  <path class="st1" d="M10.1,2h79.9c4.5,0,8.1,3.6,8.1,8.1v29.9c0,4.5-3.6,8.1-8.1,8.1H10.1c-4.5,0-8.1-3.6-8.1-8.1V10.1C2,5.6,5.6,2,10.1,2Z"/>
  <path class="st0" d="M89.9,4c3.3,0,6.1,2.7,6.1,6.1v29.9c0,3.3-2.7,6.1-6.1,6.1H10.1c-3.3,0-6.1-2.7-6.1-6.1V10.1c0-3.3,2.7-6.1,6.1-6.1h79.9M89.9,0H10.1C4.5,0,0,4.5,0,10.1v29.9c0,5.6,4.5,10.1,10.1,10.1h79.9c5.6,0,10.1-4.5,10.1-10.1V10.1c0-5.6-4.5-10.1-10.1-10.1h0Z"/>
  <g>
    <path d="M18.6,14.2c2.6,0,4.7.6,6.2,1.7s2.3,2.6,2.3,4.5c0,2.9-.9,5.1-2.7,6.5-1.3,1-3.1,1.5-5.4,1.5s-1.8,0-2.8-.2c.1,2.1.2,4,.2,5.5s0,2.9-.1,4.1c0,.8-.6,1.2-1.6,1.2s-1.6-.2-1.9-.6c-.3-.4-.5-1-.5-1.8v-20.2c0-1.5,2.2-2.3,6.2-2.3ZM16.1,18c0,1.1-.1,2.2-.1,3.5v2.9c.9.1,2,.2,3.1.2s2.1-.2,2.9-.6c1-.6,1.6-1.6,1.6-3.2v-.5c0-.9-.9-1.6-2.6-2-.9-.3-1.8-.4-2.6-.4s-1.5,0-2.3.2Z"/>
    <path d="M38.3,39.1h-5.1c-.9,0-1.4-.3-1.5-.9-.2-1.5-.3-3.9-.3-7l.4-15.6c0-.9.7-1.3,2-1.3s1.2.2,1.7.5.6.8.6,1.3c0,1.5-.3,3.6-.6,6.2-.4,3.5-.6,6-.6,7.6s0,3.5.2,5.7l8-.5c1.2,0,1.8.6,1.8,1.8s-.4,1.6-1.1,1.7c-1.6.3-3.4.4-5.4.4Z"/>
    <path d="M51.9,37.6c-.1.9-.8,1.3-1.9,1.3s-1.7-.5-1.7-1.4c0-2.1,1-6.4,3.1-12.9.9-3,2-5.4,3.1-7.4,1.1-2,2.3-3,3.3-3s1.1.3,1.5,1c.4.7,1.2,2.2,2.3,4.7,1.1,2.4,2.1,5,2.8,7.7.8,2.7,1.6,6,2.5,9.9,0,.5-.2.8-.5,1.1-.3.3-.7.4-1.2.4-1.1,0-1.9-.5-2.2-1.5l-1.9-7.4c-3.2,0-5.7-.2-7.6-.8-1.1,3.9-1.7,6.7-1.8,8.2ZM57.7,19.2c-1.2,2-2.2,4.2-2.9,6.7,1.6.4,3.4.6,5.6.6-.7-2.5-1.6-4.9-2.7-7.4Z"/>
    <path d="M86.2,14.1c.9.1,1.4.5,1.4,1.3s-.5,2.2-1.5,3.7c-.3.5-.8,1.2-1.4,2.1s-1,1.6-1.3,1.9-.6.9-1.1,1.6c-.5.7-1,1.4-1.3,2v4.7c0,3.2-.1,5.3-.3,6.2-.2.9-.9,1.4-2,1.4s-.6,0-.7-.2c-.4-.4-.6-1.6-.6-3.5v-5.8c0-.9,0-1.9-.1-2.9-1.5-1.9-3.5-5.2-6-9.8-.1-.2-.2-.4-.2-.6s.1-.5.3-.8c.5-.8,1.1-1.1,1.8-1.1s1.8,1.8,3.9,5.4c.9,1.6,1.6,2.8,2.1,3.4.6-.9,1.3-1.9,2-3.1.8-1.2,1.3-2.1,1.7-2.7,1.1-1.7,1.9-2.7,2.5-3,.2-.2.5-.3.7-.3Z"/>
  </g>
</svg>