<?xml version="1.0" encoding="UTF-8"?>
<svg id="Layer_1" xmlns="http://www.w3.org/2000/svg" version="1.1" viewBox="0 0 62 42">
  <!-- Generator: Adobe Illustrator 29.0.0, SVG Export Plug-In . SVG Version: 2.1.0 Build 186)  -->
  <defs>
    <style>
      .st0 {
        isolation: isolate;
      }

      .st1 {
        fill: #fffdee;
        stroke: #1174b9;
        stroke-miterlimit: 10;
        stroke-width: 2px;
      }
    </style>
  </defs>
  <g id="Layer_11" data-name="Layer_1">
    <g>
      <rect class="st1" x="1" y="1" width="60" height="40" rx="5.3" ry="5.3"/>
      <g class="st0">
        <g class="st0">
          <path d="M13.4,12.9c1.4,0,2.6.3,3.5.9s1.3,1.5,1.3,2.5c0,1.6-.5,2.8-1.5,3.6-.7.6-1.7.8-3,.8s-1,0-1.6-.1v5.4c0,.5-.3.7-.9.7s-.9-.1-1.1-.3c-.2-.2-.3-.5-.3-1v-11.3c0-.8,1.2-1.3,3.5-1.3h.1ZM12.1,15.1v3.5h1.7c.6,0,1.2-.1,1.6-.4.6-.3.9-.9.9-1.8v-.3c0-.5-.5-.9-1.4-1.1-.5-.1-1-.2-1.4-.2s-.9,0-1.3.1v.2Z"/>
          <path d="M24.4,26.8h-2.9c-.5,0-.8-.2-.8-.5-.1-.8-.2-2.1-.2-3.9l.2-8.7c0-.5.4-.8,1.1-.8s.7,0,.9.3c.2.2.4.4.4.8,0,.8-.1,2-.3,3.5-.2,1.9-.3,3.4-.3,4.2v3.2l4.4-.3c.7,0,1,.3,1,1s-.2.9-.6,1c-.9.1-1.9.2-3,.2h0Z"/>
          <path d="M32,26c0,.5-.4.8-1.1.8s-.9-.3-.9-.8c0-1.2.6-3.6,1.7-7.2.5-1.7,1.1-3,1.7-4.1.6-1.1,1.3-1.7,1.9-1.7s.6.2.8.6c.2.4.7,1.2,1.3,2.6s1.2,2.8,1.6,4.3c.4,1.5.9,3.4,1.4,5.5,0,.3,0,.5-.3.6-.2.1-.4.2-.7.2-.6,0-1-.3-1.2-.8l-1.1-4.1c-1.8,0-3.2-.1-4.2-.4-.6,2.2-.9,3.7-1,4.6h0ZM35.2,15.7c-.7,1.1-1.2,2.4-1.6,3.8.9.2,1.9.4,3.1.4-.4-1.4-.9-2.8-1.5-4.1h0Z"/>
          <path d="M51.2,12.8c.5,0,.8.3.8.7s-.3,1.2-.8,2.1c-.2.3-.4.7-.8,1.2-.3.5-.6.9-.7,1.1,0,.2-.3.5-.6.9s-.5.8-.7,1.1v2.6c0,1.8,0,3-.2,3.5,0,.5-.5.8-1.1.8s-.3,0-.4-.1c-.2-.2-.3-.9-.3-2v-4.8c-.8-1.1-1.9-2.9-3.4-5.5v-.4c0-.2,0-.3.2-.5.3-.4.6-.6,1-.6s1,1,2.2,3c.5.9.9,1.5,1.2,1.9.3-.5.7-1.1,1.1-1.8s.7-1.2.9-1.5c.6-.9,1.1-1.5,1.4-1.7,0,0,.3-.2.4-.2l-.2.2Z"/>
        </g>
      </g>
    </g>
  </g>
</svg>