<?xml version="1.0" encoding="UTF-8"?><svg id="Layer_1" xmlns="http://www.w3.org/2000/svg" viewBox="0 0 80 40"><defs><style>.cls-1{fill:#1174b9;}.cls-2{fill:#fffdee;}</style></defs><rect class="cls-2" x="2" y="2" width="76" height="36" rx="8.0029" ry="8.0029"/><path class="cls-1" d="M69.9972,4c3.3099,0,6.0028,2.6928,6.0028,6.0028v19.9945c0,3.3099-2.6928,6.0028-6.0028,6.0028H10.0028c-3.3099,0-6.0028-2.6928-6.0028-6.0028V10.0028c0-3.3099,2.6928-6.0028,6.0028-6.0028h59.9945M69.9972,0H10.0028C4.4784,0,0,4.4784,0,10.0028v19.9945c0,5.5244,4.4784,10.0028,10.0028,10.0028h59.9945c5.5244,0,10.0028-4.4784,10.0028-10.0028V10.0028c0-5.5244-4.4784-10.0028-10.0028-10.0028h0Z"/><path d="M9.7964,15.1938c1.1523,0,2.0762.252,2.7715.7559.6973.5039,1.0449,1.1802,1.0449,2.0278,0,1.3125-.4082,2.2803-1.2246,2.9043-.5918.4482-1.3916.6719-2.3994.6719-.3843,0-.8003-.0322-1.248-.0967.0479.9453.0718,1.7646.0718,2.4609,0,.6953-.0161,1.2998-.0479,1.8125-.0322.3672-.2642.5508-.6958.5508-.4321,0-.7163-.0879-.8521-.2637-.1362-.1758-.2041-.4395-.2041-.792v-9.0239c.0317-.6719.96-1.0078,2.7837-1.0078ZM8.6924,16.8979c-.0322.48-.0479.9956-.0479,1.5479v1.3081c.416.0479.8799.0718,1.3921.0718.5117,0,.936-.0957,1.2715-.2881.4648-.2554.6973-.7358.6973-1.4399v-.2158c-.0332-.416-.417-.7202-1.1528-.9121-.416-.1118-.8003-.168-1.1519-.168-.3521,0-.688.0322-1.0083.0962Z"/><path d="M16.7798,25.3936c0,.2402-.1123.4482-.3359.624s-.4717.2637-.7441.2637c-.3516,0-.5273-.1592-.5273-.4795-.0645-.752-.0967-3.7354-.0967-8.9521,0-.5117.3086-.9121.9248-1.1997.6152-.2881,1.4395-.4321,2.4717-.4321s1.9355.2559,2.7119.7681c.7754.5122,1.1641,1.1279,1.1641,1.8477,0,.3525-.1523.7441-.4561,1.1763s-.6279.772-.9717,1.02c-.3447.248-.8369.5483-1.4766.8999s-1.0322.5439-1.1758.5762c1.0078.6406,1.9043,1.3359,2.6875,2.0879.7842.752,1.1768,1.3438,1.1768,1.7754,0,.4326-.1924.7129-.5762.8408-.1123.0322-.2559.0479-.4326.0479-.1758,0-.3994-.1719-.6719-.5156-.2715-.3438-.7842-.8398-1.5352-1.4883-.7529-.6484-1.4971-1.2285-2.2324-1.7402.0322,1.2803.0635,2.2324.0957,2.8555v.0244ZM16.6841,20.3779c.5283,0,1.3203-.2603,2.376-.7803,1.0557-.5195,1.6084-1.0039,1.6562-1.4521,0-.4316-.2402-.7559-.7207-.9717-.4795-.2163-.9834-.3242-1.5117-.3242-.6084,0-1.2002.0723-1.7754.2163-.0166.7676-.0244,1.8716-.0244,3.312Z"/><path d="M25.4683,25.6338c-.0635.3994-.3477.6006-.8516.6006s-.7559-.209-.7559-.625c0-.9434.4639-2.8633,1.3916-5.7598.416-1.3276.8799-2.4316,1.3926-3.312.5117-.8794,1.0078-1.3198,1.4873-1.3198.2559,0,.4805.1523.6719.4561.1924.3042.54.9961,1.0439,2.0757.5049,1.0801.9248,2.2241,1.2607,3.4321.3359,1.209.7031,2.6846,1.1035,4.4277,0,.209-.0723.373-.2158.4922-.1436.1201-.3203.1797-.5283.1797-.5117,0-.832-.2227-.96-.6719l-.8398-3.2871c-1.4082,0-2.5361-.1123-3.3838-.3359-.4805,1.7598-.752,2.9756-.8164,3.6475ZM28.061,17.4258c-.5283.896-.96,1.896-1.2969,3,.7041.1919,1.5361.2881,2.4961.2881-.3037-1.104-.7041-2.1997-1.1992-3.2881Z"/><path d="M41.1641,17.2578l-1.9438-.2402c-2.5918,0-3.8877,1.2964-3.8877,3.8882,0,1.312.3916,2.3521,1.1758,3.1196.3838.4004.7832.6006,1.2002.6006.416,0,1.1436-.1846,2.1836-.5518,1.04-.3682,1.6001-.5527,1.6802-.5527.4316,0,.6484.2012.6484.5996,0,.3359-.1855.625-.5527.8652-2.0005.8477-3.4478,1.2715-4.3442,1.2715-.5439,0-1.0791-.1758-1.6074-.5273-.5283-.3525-.9443-.8086-1.248-1.3691-.624-1.1035-.9365-2.2871-.9365-3.5518,0-1.6958.5127-3.0396,1.5361-4.0317,1.0244-.9922,2.3359-1.4883,3.9365-1.4883.9277,0,1.8477.1523,2.7593.4561v.0239c.2891.1763.4316.3765.4316.6001,0,.2241-.1152.4282-.3477.6123s-.459.2759-.6836.2759Z"/><path d="M48.3633,16.6577l-.0469,5.688c0,1.1836.0156,2.2246.0469,3.1201.0156.2393-.084.4365-.2988.5879-.2168.1523-.4375.2275-.6602.2275-.416,0-.625-.2227-.625-.6719-.0469-1.7432-.0723-3.4033-.0723-4.9795s.0488-2.876.1445-3.8999c-.959.0801-1.9355.1196-2.9277.1196-.4961,0-.7441-.2075-.7441-.624,0-.1919.0918-.3838.2754-.5757.1855-.1924.3887-.2959.6133-.312l7.4883-.2402c.4316.0962.6465.3042.6465.624,0,.6562-.752.9839-2.2559.9839l-1.584-.0479Z"/><path d="M53.5957,26.2812c-.4492,0-.6719-.1914-.6719-.5762l.0957-9.7676c0-.2236.0801-.4038.2402-.5396s.3555-.2041.5879-.2041c.2305,0,.4316.0562.5996.168s.2598.2998.2754.564.0254.8521.0254,1.7642c0,4.272-.0332,6.8726-.0977,7.8003-.0156.207-.1387.3916-.3711.5508-.2324.1602-.4609.2402-.6836.2402Z"/><path d="M63.5078,17.2578l-1.9434-.2402c-2.5918,0-3.8887,1.2964-3.8887,3.8882,0,1.312.3926,2.3521,1.1758,3.1196.3848.4004.7832.6006,1.2012.6006.416,0,1.1426-.1846,2.1836-.5518,1.0391-.3682,1.5996-.5527,1.6797-.5527.4316,0,.6484.2012.6484.5996,0,.3359-.1855.625-.5527.8652-2,.8477-3.4473,1.2715-4.3438,1.2715-.5449,0-1.0801-.1758-1.6074-.5273-.5293-.3525-.9453-.8086-1.248-1.3691-.625-1.1035-.9375-2.2871-.9375-3.5518,0-1.6958.5137-3.0396,1.5371-4.0317s2.3359-1.4883,3.9355-1.4883c.9277,0,1.8477.1523,2.7598.4561v.0239c.2891.1763.4316.3765.4316.6001,0,.2241-.1152.4282-.3477.6123s-.459.2759-.6836.2759Z"/><path d="M67.8516,20.8818l.0488,3.1436c0,.416-.0098.6406-.0254.6719l4.1523-.0713c.4648.0479.6973.248.6973.5996,0,.6729-.3125,1.0088-.9375,1.0088l-4.7031.0469c-.2891,0-.5-.0996-.6367-.2988-.1348-.2012-.2109-.4121-.2266-.6367-.0176-.2236-.0254-.4717-.0254-.7441v-3.9839c-.207-.1118-.3125-.2798-.3125-.5039s.0879-.4238.2656-.6001c-.0488-1.248-.0723-2.3838-.0723-3.4077,0-.5918.3594-.896,1.0801-.9121h.6719l4.1992.0718h.0234c.5137.0645.7695.3042.7695.7202,0,.3203-.0957.5361-.2891.6479-.416.2241-1.416.3359-3,.3359-.5918,0-1.1836-.0239-1.7754-.0718,0,1.4399.0078,2.248.0234,2.4238.625.0161,1.8477.0239,3.6719.0239.4961.064.7441.2881.7441.6719,0,.1924-.0801.3765-.2402.5522-.1602.1763-.332.2759-.5156.2998s-.5762.0361-1.1758.0361-1.4043-.0078-2.4121-.0239Z"/></svg>