<?xml version="1.0" encoding="UTF-8"?><svg id="Layer_1" xmlns="http://www.w3.org/2000/svg" viewBox="0 0 100 50"><defs><style>.cls-1{fill:#00c22d;}.cls-2{fill:#fffdee;}</style></defs><path class="cls-2" d="M10.1187,2.2632h79.8682c4.4517,0,8.0659,3.6142,8.0659,8.0659v29.8677c0,4.4517-3.6142,8.0659-8.0659,8.0659H10.1182c-4.4514,0-8.0654-3.614-8.0654-8.0654V10.3291C2.0527,5.8774,5.667,2.2632,10.1187,2.2632Z"/><path class="cls-1" d="M89.9868,4.2632c3.3447,0,6.0658,2.7211,6.0658,6.0658v29.8684c0,3.3447-2.7211,6.0658-6.0658,6.0658H10.1184c-3.3447,0-6.0658-2.7211-6.0658-6.0658V10.3289c0-3.3447,2.7211-6.0658,6.0658-6.0658h79.8684M89.9868.2632H10.1184C4.5592.2632.0526,4.7698.0526,10.3289v29.8684c0,5.5592,4.5066,10.0658,10.0658,10.0658h79.8684c5.5592,0,10.0658-4.5066,10.0658-10.0658V10.3289c0-5.5592-4.5066-10.0658-10.0658-10.0658h0Z"/><path d="M20.9609,12.1914c1.3867,0,2.5645.2354,3.5352.7041.9707.4697,1.457,1.0674,1.457,1.792,0,.3203-.0801.5977-.2402.832-.1602.2354-.3945.3525-.7051.3525-.3086,0-.9746-.2402-2-.7207-1.0234-.4795-1.957-.7197-2.7988-.7197-.8438,0-1.7129.2676-2.6074.7998-.8965.5342-1.3457,1.1846-1.3457,1.9521,0,1.0459.5449,1.8135,1.6328,2.3037.8105.3633,1.9727.6885,3.4883.9766,1.5137.2881,2.752.875,3.7109,1.7598.9609.8857,1.4414,2.2236,1.4414,4.0156,0,2.7314-.8223,4.7471-2.4648,6.0488-.918.7256-2.2129,1.0879-3.8887,1.0879-1.6738,0-3.3438-.459-5.0078-1.376-1.0879-.5762-1.6318-1.1523-1.6318-1.7285,0-.2129.0908-.4473.2725-.7041.1807-.2559.4316-.4688.752-.6396s.6133-.1973.8809-.0801c.2656.1172.6973.3252,1.2949.624s1.0352.502,1.3125.6084c.8965.3408,1.7383.5117,2.5273.5117s1.5527-.3887,2.2891-1.168c.7363-.7783,1.1035-1.7334,1.1035-2.8643,0-1.4932-.7461-2.5381-2.2402-3.1357-.7246-.2988-1.5469-.5225-2.4629-.6719-1.9004-.3408-3.3281-.9121-4.2891-1.7119-.96-.8008-1.4404-2.0107-1.4404-3.6318s.6934-2.8965,2.0811-3.8242c1.3867-.9287,3.168-1.3926,5.3438-1.3926Z"/><path d="M28.5449,12.6074l12.96-.1914c.6182.1914.9277.501.9277.9277,0,1.0674-.4375,1.5996-1.3115,1.5996-1.6006,0-3.2959.043-5.0879.1279-.1074,1.835-.1602,3.2168-.1602,4.1445v1.7764l.1279,11.2314c0,.6611-.1709,1.0459-.5127,1.1523-.2559.085-.5752.1279-.96.1279-.6182,0-.96-.3525-1.0234-1.0566-.1279-1.6416-.1924-4.709-.1924-9.1992s.0645-7.1943.1924-8.1123c-.4482.0215-1.1094.0322-1.9844.0322s-1.9629-.0107-3.2637-.0322c-.3418,0-.6084-.1064-.7998-.3203-.1924-.2129-.2881-.4746-.2881-.7842,0-.3086.1328-.6123.3994-.9111s.5928-.4697.9766-.5127Z"/><path d="M50.4004,12.2881c.5332,0,.9805.2344,1.3438.7041.3623.4688.832,1.4395,1.4082,2.9111,1.3438,3.4775,2.6562,8.9287,3.9355,16.3525.0215.085.0322.208.0322.3682s-.1016.3311-.3037.5117c-.2031.1816-.4912.2725-.8643.2725s-.6875-.0908-.9434-.2725c-.2568-.1807-.4277-.4805-.5127-.8965-.085-.415-.2451-1.2314-.4795-2.4473-.5127-2.709-.8535-4.1172-1.0244-4.2246-.2559-.1484-1.1035-.3086-2.5439-.4795-1.4395-.1709-2.3945-.2559-2.8643-.2559-.4688,0-.7471.043-.832.1279-.3838.3408-.9062,2.9336-1.5674,7.7754-.0859.4062-.4912.6084-1.2158.6084-.7256,0-1.0889-.3086-1.0889-.9277,0-1.5361.5654-4.4697,1.6963-8.7998,1.1309-4.3311,2.0693-7.2002,2.8164-8.6084.9385-1.8135,1.9404-2.7197,3.0078-2.7197ZM50.2725,15.8398c-.3203,0-.875.9443-1.6641,2.832-.79,1.8877-1.1846,3.0557-1.1846,3.5039,0,.1074.0215.1816.0645.2236.1709.1709.8428.3203,2.0156.4482,1.1738.1279,1.9521.1924,2.3359.1924.3848,0,.5977-.0264.6406-.0801.042-.0537.0635-.2246.0635-.5127,0-.2871-.2881-1.4609-.8633-3.5195-.5762-2.0586-1.0459-3.0879-1.4082-3.0879Z"/><path d="M61.0244,33.04c-.3418.3096-.709.4639-1.1035.4639-.3955,0-.667-.2559-.8164-.7686-.0645-2.8154-.0957-5.6211-.0957-8.416l-.0967-8.0635c0-1.6211.7148-2.7305,2.1445-3.3281,1.1523-.5332,2.5166-.7998,4.0957-.7998.8105,0,1.6797.1973,2.6084.5918.9277.3945,1.7598.9707,2.4961,1.7275.7354.7578,1.1035,1.5791,1.1035,2.4648,0,.8848-.4053,1.835-1.2158,2.8477-.8105,1.0137-1.8135,1.9092-3.0078,2.6875-1.1953.7793-2.3574,1.3604-3.4883,1.7441,1.9844,1.3877,3.7119,2.875,5.1836,4.4639,1.4727,1.5898,2.208,2.8223,2.208,3.6963,0,.2773-.1387.5391-.415.7842-.2783.2451-.6143.3682-1.0088.3682s-.7305-.1709-1.0078-.5117c-.4697-1.1309-1.3604-2.3203-2.6719-3.5684s-2.8428-2.4375-4.5918-3.5684l.1914,6.1445c0,.3838-.1709.7305-.5117,1.04ZM66.2246,20.6074c1.7812-1.1299,2.6719-2.1484,2.6719-3.0557,0-.9062-.4482-1.6055-1.3438-2.0957-.8965-.4912-1.958-.7363-3.1846-.7363s-2.2031.1494-2.9277.4482c-.0215,1.0879-.0322,3.499-.0322,7.2314,1.4297-.0635,3.0352-.6611,4.8164-1.792Z"/><path d="M73.6641,12.6074l12.96-.1914c.6182.1914.9277.501.9277.9277,0,1.0674-.4375,1.5996-1.3115,1.5996-1.6006,0-3.2959.043-5.0879.1279-.1074,1.835-.1602,3.2168-.1602,4.1445v1.7764l.1279,11.2314c0,.6611-.1709,1.0459-.5127,1.1523-.2559.085-.5752.1279-.96.1279-.6182,0-.96-.3525-1.0234-1.0566-.1279-1.6416-.1924-4.709-.1924-9.1992s.0645-7.1943.1924-8.1123c-.4482.0215-1.1094.0322-1.9844.0322s-1.9629-.0107-3.2637-.0322c-.3418,0-.6084-.1064-.7998-.3203-.1924-.2129-.2881-.4746-.2881-.7842,0-.3086.1328-.6123.3994-.9111s.5928-.4697.9766-.5127Z"/></svg>