<?xml version="1.0" encoding="UTF-8"?><svg id="Layer_1" xmlns="http://www.w3.org/2000/svg" viewBox="0 0 97.1317 205.1317"><defs><style>.cls-1{fill:#ff2376;}.cls-2{fill:#fffdee;}</style></defs><rect class="cls-2" x="2.5658" y="2.5658" width="92" height="200" rx="8.7029" ry="8.7029"/><path class="cls-1" d="M85.8627,205.5658H11.269c-6.4531,0-11.7031-5.25-11.7031-11.7031V11.269C-.4342,4.8158,4.8158-.4342,11.269-.4342h74.5938c6.4531,0,11.7031,5.25,11.7031,11.7031v182.5938c0,6.4531-5.25,11.7031-11.7031,11.7031ZM11.269,5.5658c-3.1445,0-5.7031,2.5586-5.7031,5.7031v182.5938c0,3.1445,2.5586,5.7031,5.7031,5.7031h74.5938c3.1445,0,5.7031-2.5586,5.7031-5.7031V11.269c0-3.1445-2.5586-5.7031-5.7031-5.7031H11.269Z"/><rect x="5.0658" y="37.0658" width="87" height="5"/><rect x="5.0658" y="64.8158" width="87" height="5"/><rect x="5.0658" y="92.5658" width="87" height="5"/><rect x="5.0658" y="120.3158" width="87" height="5"/><rect x="5.0658" y="148.0658" width="87" height="5"/><ellipse class="cls-1" cx="48.5658" cy="179.5658" rx="17" ry="12"/><path class="cls-1" d="M48.5658,194.7494c-11.3179,0-20.1836-6.6689-20.1836-15.1836s8.8657-15.1836,20.1836-15.1836,20.1836,6.6689,20.1836,15.1836-8.8652,15.1836-20.1836,15.1836ZM48.5658,170.7494c-7.4893,0-13.8164,4.0371-13.8164,8.8164s6.3271,8.8164,13.8164,8.8164,13.8164-4.0371,13.8164-8.8164-6.3271-8.8164-13.8164-8.8164Z"/><polygon class="cls-1" points="69.0658 176.5658 63.0658 176.5658 63.0658 25.5658 5.0658 25.5658 5.0658 19.5658 69.0658 19.5658 69.0658 176.5658"/><rect class="cls-1" x="18.5658" y="175.5658" width="60" height="5"/></svg>