<?xml version="1.0" encoding="UTF-8"?><svg id="Layer_1" xmlns="http://www.w3.org/2000/svg" viewBox="0 0 98 206"><defs><style>.cls-1{fill:#fedb00;}.cls-2{fill:#fffdee;}</style></defs><rect class="cls-2" x="3" y="3" width="92" height="200" rx="8.7029" ry="8.7029"/><path class="cls-1" d="M86.2969,206H11.7031c-6.4531,0-11.7031-5.25-11.7031-11.7031V11.7031C0,5.25,5.25,0,11.7031,0h74.5938c6.4531,0,11.7031,5.25,11.7031,11.7031v182.5938c0,6.4531-5.25,11.7031-11.7031,11.7031ZM11.7031,6c-3.1445,0-5.7031,2.5586-5.7031,5.7031v182.5938c0,3.1445,2.5586,5.7031,5.7031,5.7031h74.5938c3.1445,0,5.7031-2.5586,5.7031-5.7031V11.7031c0-3.1445-2.5586-5.7031-5.7031-5.7031H11.7031Z"/><rect x="5.5" y="37.5" width="87" height="5"/><rect x="5.5" y="65.25" width="87" height="5"/><rect x="5.5" y="93" width="87" height="5"/><rect x="5.5" y="120.75" width="87" height="5"/><rect x="5.5" y="148.5" width="87" height="5"/><ellipse class="cls-1" cx="49.5" cy="151" rx="17" ry="12"/><path class="cls-1" d="M49.5,166.1836c-11.3179,0-20.1836-6.6689-20.1836-15.1836s8.8657-15.1836,20.1836-15.1836,20.1836,6.6689,20.1836,15.1836-8.8652,15.1836-20.1836,15.1836ZM49.5,142.1836c-7.4893,0-13.8164,4.0371-13.8164,8.8164s6.3271,8.8164,13.8164,8.8164,13.8164-4.0371,13.8164-8.8164-6.3271-8.8164-13.8164-8.8164Z"/><polygon class="cls-1" points="69.5 152 63.5 152 63.5 26 5.5 26 5.5 20 69.5 20 69.5 152"/></svg>