<?xml version="1.0" encoding="UTF-8"?><svg id="Layer_1" xmlns="http://www.w3.org/2000/svg" viewBox="0 0 99 204"><defs><style>.cls-1{fill:#00c22d;}.cls-2{fill:#fffdee;}</style></defs><rect class="cls-2" x="3" y="3" width="93" height="198" rx="10.3642" ry="10.3642"/><path class="cls-1" d="M85.6357,204H13.3643c-7.3691,0-13.3643-5.9951-13.3643-13.3643V13.3643C0,5.9951,5.9951,0,13.3643,0h72.2715c7.3691,0,13.3643,5.9951,13.3643,13.3643v177.2715c0,7.3691-5.9951,13.3643-13.3643,13.3643ZM13.3643,6c-4.0605,0-7.3643,3.3037-7.3643,7.3643v177.2715c0,4.0605,3.3037,7.3643,7.3643,7.3643h72.2715c4.0605,0,7.3643-3.3037,7.3643-7.3643V13.3643c0-4.0605-3.3037-7.3643-7.3643-7.3643H13.3643Z"/><rect x="6" y="35.5142" width="87" height="4.9717"/><rect x="6" y="63.5283" width="87" height="4.9434"/><rect x="6" y="91.5283" width="87" height="4.9434"/><rect x="6" y="119.5" width="87" height="5"/><rect x="6" y="147.5283" width="87" height="4.9434"/><ellipse class="cls-1" cx="51" cy="136" rx="17" ry="12"/><path class="cls-1" d="M51,151.1836c-11.3179,0-20.1836-6.6689-20.1836-15.1836s8.8657-15.1836,20.1836-15.1836,20.1836,6.6689,20.1836,15.1836-8.8652,15.1836-20.1836,15.1836ZM51,127.1836c-7.4893,0-13.8164,4.0371-13.8164,8.8164s6.3271,8.8164,13.8164,8.8164,13.8164-4.0371,13.8164-8.8164-6.3271-8.8164-13.8164-8.8164Z"/><polygon class="cls-1" points="71 136 65 136 65 22 94 22 94 28 71 28 71 136"/></svg>