<?xml version="1.0" encoding="UTF-8"?><svg id="Layer_1" xmlns="http://www.w3.org/2000/svg" viewBox="0 0 30 60"><defs><style>.cls-1{opacity:0;}.cls-1,.cls-2{fill:#50c8ea;}.cls-3,.cls-4,.cls-5{stroke:#000;stroke-miterlimit:10;}.cls-3,.cls-6{fill:#fffdee;}.cls-4,.cls-5{fill:#fff;}.cls-5{stroke-width:.7385px;}</style></defs><rect class="cls-6" width="30" height="60" rx="10.102" ry="10.102"/><line class="cls-5" y1="18.25" x2="29.8443" y2="18.25"/><line class="cls-5" y1="24.125" x2="30" y2="24.125"/><line class="cls-5" y1="30" x2="30" y2="30"/><line class="cls-5" x1="0" y1="35.875" x2="30" y2="35.875"/><line class="cls-5" y1="41.75" x2="30" y2="41.75"/><line class="cls-4" x1="19.25" y1="13.5" x2="28.75" y2="13.5"/><path class="cls-1" d="M5.051,58c-2.2336,0-4.051-3.6348-4.051-8.1016V10.1021C1,5.6348,2.8174,2,5.051,2h19.8982c2.2334,0,4.0508,3.6348,4.0508,8.1021v39.7964c0,4.4668-1.8174,8.1016-4.0508,8.1016H5.051Z"/><path class="cls-2" d="M24.949,4c1.6823,0,3.051,2.7373,3.051,6.102v39.796c0,3.3646-1.3687,6.102-3.051,6.102H5.051c-1.6823,0-3.051-2.7373-3.051-6.102V10.102c0-3.3646,1.3687-6.102,3.051-6.102h19.898M24.949,0H5.051C2.2614,0,0,4.5228,0,10.102v39.796c0,5.5792,2.2614,10.102,5.051,10.102h19.898c2.7896,0,5.051-4.5228,5.051-10.102V10.102c0-5.5792-2.2614-10.102-5.051-10.102h0Z"/><ellipse cx="15" cy="36" rx="4.5" ry="3.125"/><line class="cls-3" x1="19" y1="36" x2="19" y2="13"/></svg>