<?xml version="1.0" encoding="UTF-8"?><svg id="Layer_1" xmlns="http://www.w3.org/2000/svg" viewBox="0 0 200 200"><defs><style>.cls-1{fill:#1174b9;}.cls-2{fill:#fffdee;}</style></defs><path class="cls-2" d="M10.2207,2h179.5591c4.5369,0,8.2202,3.6834,8.2202,8.2202v179.5591c0,4.5371-3.6836,8.2207-8.2207,8.2207H10.2207c-4.5371,0-8.2207-3.6836-8.2207-8.2207V10.2207C2,5.6836,5.6836,2,10.2207,2Z"/><path class="cls-1" d="M189.7798,4c3.4299,0,6.2202,2.7904,6.2202,6.2203v179.5595c0,3.4299-2.7904,6.2202-6.2202,6.2202H10.2203c-3.4299,0-6.2203-2.7904-6.2203-6.2202V10.2203c0-3.4299,2.7904-6.2203,6.2203-6.2203h179.5595M189.7798,0H10.2203C4.5757,0,0,4.5757,0,10.2203v179.5595c0,5.6445,4.5757,10.2202,10.2203,10.2202h179.5595c5.6445,0,10.2202-4.5757,10.2202-10.2202V10.2203c0-5.6445-4.5757-10.2203-10.2202-10.2203h0Z"/><path d="M102.25,40.4111c2.499,0,4.5986,1.1016,6.3008,3.2998,1.6992,2.2012,3.8994,6.75,6.5996,13.6504,6.2998,16.3008,12.4502,41.8496,18.4502,76.6494.0986.4014.1494.9756.1494,1.7256s-.4756,1.5508-1.4248,2.3994c-.9512.8506-2.3018,1.2754-4.0498,1.2754-1.751,0-3.2246-.4248-4.4248-1.2754-1.2002-.8486-2.002-2.25-2.4004-4.2002-.4004-1.9492-1.1504-5.7744-2.25-11.4746-2.3994-12.6982-4.001-19.2988-4.7998-19.7998-1.2002-.6982-5.1748-1.4482-11.9248-2.25-6.75-.7998-11.2266-1.2002-13.4248-1.2002-2.2012,0-3.502.2012-3.9004.5996-1.7998,1.6016-4.252,13.751-7.3496,36.4502-.4014,1.9014-2.3018,2.8506-5.7002,2.8506-3.4004,0-5.0996-1.4492-5.0996-4.3506,0-7.2002,2.6484-20.9482,7.9492-41.25,5.2998-20.2988,9.6982-33.75,13.2002-40.3496,4.3994-8.499,9.0986-12.75,14.0996-12.75ZM101.6504,57.0605c-1.5,0-4.1016,4.4258-7.7998,13.2754-3.7012,8.8496-5.5498,14.3252-5.5498,16.4248,0,.502.0977.8506.2998,1.0498.7988.8018,3.9492,1.5,9.4502,2.1006,5.498.5996,9.1494.8994,10.9492.8994,1.8008,0,2.7988-.124,3-.375.1992-.248.3008-1.0498.3008-2.3994,0-1.3506-1.3506-6.8486-4.0508-16.5-2.6992-9.6494-4.9004-14.4756-6.5996-14.4756Z"/></svg>