<?xml version="1.0" encoding="UTF-8"?><svg id="Layer_1" xmlns="http://www.w3.org/2000/svg" viewBox="0 0 200 200"><defs><style>.cls-1{fill:#ab08ff;}.cls-2{fill:#fffdee;}</style></defs><path class="cls-2" d="M10.2207,2h179.5591c4.5369,0,8.2202,3.6834,8.2202,8.2202v179.5591c0,4.5371-3.6836,8.2207-8.2207,8.2207H10.2207c-4.5371,0-8.2207-3.6836-8.2207-8.2207V10.2207C2,5.6836,5.6836,2,10.2207,2Z"/><path class="cls-1" d="M189.7798,4c3.4299,0,6.2202,2.7904,6.2202,6.2203v179.5595c0,3.4299-2.7904,6.2202-6.2202,6.2202H10.2203c-3.4299,0-6.2203-2.7904-6.2203-6.2202V10.2203c0-3.4299,2.7904-6.2203,6.2203-6.2203h179.5595M189.7798,0H10.2203C4.5757,0,0,4.5757,0,10.2203v179.5595c0,5.6445,4.5757,10.2202,10.2203,10.2202h179.5595c5.6445,0,10.2202-4.5757,10.2202-10.2202V10.2203c0-5.6445-4.5757-10.2203-10.2202-10.2203h0Z"/><path d="M91.6758,138.9609l-19.3506-.4502c-1.1016-4.2002-1.75-23.0996-1.9492-56.7002v-10.6494c0-8.499.7988-14.9746,2.3994-19.4248,1.5986-4.4492,4.9502-8.0254,10.0498-10.7256,2.5996-1.2979,6.2256-1.9502,10.875-1.9502s8.2246.3008,10.7256.9004c6.6982,1.4014,11.2734,4.001,13.7246,7.7998,2.4492,3.8018,3.6748,8.9014,3.6748,15.2998,0,8.9023-2.3506,15.4502-7.0498,19.6504,2.4004.2998,4.7998,1.5,7.2002,3.5996,2.4004,2.1006,4.3496,4.252,5.8496,6.4502,2.5996,4.001,3.9004,9.4502,3.9004,16.3506,0,10.7998-3.2764,18.4756-9.8252,23.0244-6.5508,4.5518-16.626,6.8252-30.2246,6.8252ZM116.2002,97.7861c-1.0498-1.0498-2.625-2.0254-4.7246-2.9248-2.0996-.9004-5.126-1.3506-9.0752-1.3506s-10.6758.6514-20.1748,1.9502c0,15.5996.248,26.1514.75,31.6504,11.7002,0,19.8984-.7734,24.5996-2.3252,4.6992-1.5498,7.875-3.4502,9.5254-5.7002s2.4746-4.6504,2.4746-7.2002-.0254-4.3496-.0742-5.3994c-.0518-1.0508-.3516-2.499-.9004-4.3506-.5508-1.8486-1.3496-3.2998-2.4004-4.3496ZM82.376,65.9111l.2998,17.0996c.1992,0,1.8984-.2246,5.0996-.6748,3.1992-.4502,5.8994-.9238,8.1006-1.4248,10.0986-2.4004,15.1494-8.1494,15.1494-17.25,0-4.5-1.3262-7.7998-3.9746-9.9004-2.6514-2.0996-6.127-3.1494-10.4248-3.1494-5.4004,0-9.0518.9512-10.9502,2.8496-.8018.8018-1.4512,1.4766-1.9502,2.0254-.502.5508-.8506,1.4248-1.0498,2.625-.2021,1.1992-.3262,2.0508-.375,2.5498-.0518.501-.0518,1.4502,0,2.8496.0488,1.4014.0752,2.2012.0752,2.4004Z"/></svg>