<?xml version="1.0" encoding="UTF-8"?><svg id="Layer_1" xmlns="http://www.w3.org/2000/svg" viewBox="0 0 200 200"><defs><style>.cls-1{fill:#ff2376;}.cls-2{fill:#fffdee;}</style></defs><path class="cls-2" d="M10.2207,2h179.5591c4.5369,0,8.2202,3.6834,8.2202,8.2202v179.5591c0,4.5371-3.6836,8.2207-8.2207,8.2207H10.2207c-4.5371,0-8.2207-3.6836-8.2207-8.2207V10.2207C2,5.6836,5.6836,2,10.2207,2Z"/><path class="cls-1" d="M189.7798,4c3.4299,0,6.2202,2.7904,6.2202,6.2203v179.5595c0,3.4299-2.7904,6.2202-6.2202,6.2202H10.2203c-3.4299,0-6.2203-2.7904-6.2203-6.2202V10.2203c0-3.4299,2.7904-6.2203,6.2203-6.2203h179.5595M189.7798,0H10.2203C4.5757,0,0,4.5757,0,10.2203v179.5595c0,5.6445,4.5757,10.2202,10.2203,10.2202h179.5595c5.6445,0,10.2202-4.5757,10.2202-10.2202V10.2203c0-5.6445-4.5757-10.2203-10.2202-10.2203h0Z"/><path d="M109.3008,41.1611c6.6992,0,14.0996,1.3008,22.1992,3.8994,1.8008,1.4023,2.7012,2.9258,2.7012,4.5752,0,1.6504-.8262,3.1006-2.4746,4.3506-1.6504,1.251-3.5254,1.875-5.625,1.875-5.4004-1.3994-10.4512-2.1006-15.1504-2.1006-10.8003,0-19.0015,3.2021-24.6001,9.6006-5.6016,6.4004-8.4004,15.8994-8.4004,28.5s3.2998,22.4502,9.9004,29.5498c3.3984,3.7002,7.4482,5.5498,12.1494,5.5498,4.6987,0,12.1987-2.498,22.4995-7.5,3.6016-1.6992,6-2.5498,7.2012-2.5498,2.5996,0,3.9004,1.3496,3.9004,4.0498s-1.252,4.9502-3.75,6.75c-8.6016,4.5-15.3008,7.5254-20.1016,9.0752-4.7988,1.5518-8.9497,2.3252-12.4487,2.3252-7.2002,0-13.3506-2.6484-18.4502-7.9502-9.1006-9.7998-13.6504-23.1748-13.6504-40.125s4.3242-29.499,12.9756-37.6504c8.6484-8.1494,19.0234-12.2246,31.1245-12.2246Z"/></svg>