<?xml version="1.0" encoding="UTF-8"?><svg id="Layer_1" xmlns="http://www.w3.org/2000/svg" viewBox="0 0 200 200"><defs><style>.cls-1{fill:#fffdee;}.cls-2{fill:#ff8a20;}</style></defs><path class="cls-1" d="M10.2207,2h179.5591c4.5369,0,8.2202,3.6834,8.2202,8.2202v179.5591c0,4.5371-3.6836,8.2207-8.2207,8.2207H10.2207c-4.5371,0-8.2207-3.6836-8.2207-8.2207V10.2207C2,5.6836,5.6836,2,10.2207,2Z"/><path class="cls-2" d="M189.7798,4c3.4299,0,6.2202,2.7904,6.2202,6.2203v179.5595c0,3.4299-2.7904,6.2202-6.2202,6.2202H10.2203c-3.4299,0-6.2203-2.7904-6.2203-6.2202V10.2203c0-3.4299,2.7904-6.2203,6.2203-6.2203h179.5595M189.7798,0H10.2203C4.5757,0,0,4.5757,0,10.2203v179.5595c0,5.6445,4.5757,10.2202,10.2203,10.2202h179.5595c5.6445,0,10.2202-4.5757,10.2202-10.2202V10.2203c0-5.6445-4.5757-10.2203-10.2202-10.2203h0Z"/><path d="M73.2246,134.4609c-1.499-1.0996-2.249-2.3252-2.249-3.6748,0-1.3506.5479-2.4756,1.6494-3.375-1.9004-14.2998-2.8496-30.6982-2.8496-49.2002,0-5.5996.248-16.5.75-32.7002.499-1.5,1.5234-2.7979,3.0742-3.8994,1.5498-1.0996,3.0234-1.6504,4.4258-1.6504,1.3984,0,2.25.0518,2.5498.1504,14.2988,4,26.749,11.7256,37.3496,23.1748,10.5986,11.4512,16.1484,25.1768,16.6504,41.1748,0,17.6016-7.3008,28.6504-21.9004,33.1504-4.2002,1.3008-8.625,1.9492-13.2744,1.9492s-8.7266-.3486-12.2256-1.0498c.3984.7998.6006,1.875.6006,3.2256,0,1.3496-.8252,2.6484-2.4756,3.8994-1.6494,1.249-3.5996,1.875-5.8496,1.875s-3.6748-1.3496-4.2754-4.0498l-1.9502-9ZM82.2246,77.0107c0,17.501.999,34.1016,3,49.7998,2.4004.7012,6.4502,1.0508,12.1504,1.0508s11.1748-.9492,16.4248-2.8506c5.25-1.8984,8.0254-4.6992,8.3252-8.3994.2998-2.7988.4502-4.9502.4502-6.4502,0-12.999-3.4756-24.499-10.4248-34.5-6.9521-9.999-16.6758-17.5996-29.1758-22.7998-.501,11.8008-.75,19.8516-.75,24.1494Z"/></svg>