<?xml version="1.0" encoding="UTF-8"?><svg id="Layer_1" xmlns="http://www.w3.org/2000/svg" viewBox="0 0 200 200"><defs><style>.cls-1{fill:#fedb00;}.cls-2{fill:#fffdee;}</style></defs><path class="cls-2" d="M10.2207,2h179.5591c4.5369,0,8.2202,3.6834,8.2202,8.2202v179.5591c0,4.5371-3.6836,8.2207-8.2207,8.2207H10.2207c-4.5371,0-8.2207-3.6836-8.2207-8.2207V10.2207C2,5.6836,5.6836,2,10.2207,2Z"/><path class="cls-1" d="M189.7798,4c3.4299,0,6.2202,2.7904,6.2202,6.2203v179.5595c0,3.4299-2.7904,6.2202-6.2202,6.2202H10.2203c-3.4299,0-6.2203-2.7904-6.2203-6.2202V10.2203c0-3.4299,2.7904-6.2203,6.2203-6.2203h179.5595M189.7798,0H10.2203C4.5757,0,0,4.5757,0,10.2203v179.5595c0,5.6445,4.5757,10.2202,10.2203,10.2202h179.5595c5.6445,0,10.2202-4.5757,10.2202-10.2202V10.2203c0-5.6445-4.5757-10.2203-10.2202-10.2203h0Z"/><path d="M75.1006,87.6611c-1.4014-.9004-2.0996-2.1982-2.0996-3.9004,0-1.6992.5479-3.248,1.6494-4.6494-.4004-9.999-.5996-20.5508-.5996-31.6504.5996-2.4004,1.5234-4.1484,2.7744-5.25,1.25-1.0996,3.0752-1.7998,5.4756-2.0996,13.2002.5996,27.499.8994,42.8994.8994,3.7998.8018,5.7002,2.4521,5.7002,4.9502,0,4.2002-4.1016,6.6514-12.2998,7.3496-2.2012.1016-4.6006.1504-7.2002.1504h-9.75c-1.9004,0-7.1504-.3984-15.75-1.2002,0,12.502.1992,21.1006.6006,25.7998,5.2988.1016,15.499.1504,30.5996.1504,3.5996.7012,5.4004,2.3252,5.4004,4.875s-1.4512,4.5254-4.3506,5.9248c-.2998.2021-.8506.4014-1.6494.6006l-25.9502-.4502c-1.6006,0-2.9014.1006-3.9004.2998l.6006,25.7998c0,5.8008-.1504,9.9521-.4502,12.4502l34.7998-.4502c3.1992.502,4.7998,1.8516,4.7998,4.0498,0,1.5-.6748,3-2.0244,4.5-1.3506,1.5-2.9258,2.4521-4.7256,2.8506l-38.3994.5996c-2.3018,0-3.9004-.4238-4.8008-1.2744-.8994-.8486-1.3496-2.2734-1.3496-4.2754.3984-2.7988.5996-7.2988.5996-13.5v-10.5l-.5996-22.0498Z"/></svg>