<?xml version="1.0" encoding="UTF-8"?><svg id="Layer_1" xmlns="http://www.w3.org/2000/svg" viewBox="0 0 200 200"><defs><style>.cls-1{fill:#00c22d;}.cls-2{fill:#fffdee;}</style></defs><path class="cls-2" d="M10.2207,2h179.5591c4.5369,0,8.2202,3.6834,8.2202,8.2202v179.5591c0,4.5371-3.6836,8.2207-8.2207,8.2207H10.2207c-4.5371,0-8.2207-3.6836-8.2207-8.2207V10.2207C2,5.6836,5.6836,2,10.2207,2Z"/><path class="cls-1" d="M189.7798,4c3.4299,0,6.2202,2.7904,6.2202,6.2203v179.5595c0,3.4299-2.7904,6.2202-6.2202,6.2202H10.2203c-3.4299,0-6.2203-2.7904-6.2203-6.2202V10.2203c0-3.4299,2.7904-6.2203,6.2203-6.2203h179.5595M189.7798,0H10.2203C4.5757,0,0,4.5757,0,10.2203v179.5595c0,5.6445,4.5757,10.2202,10.2203,10.2202h179.5595c5.6445,0,10.2202-4.5757,10.2202-10.2202V10.2203c0-5.6445-4.5757-10.2203-10.2202-10.2203h0Z"/><path d="M102.0264,42.0605l16.6504-.2998c7.3984,0,11.0996,1.9502,11.0996,5.8506,0,1.4014-.2012,2.376-.5996,2.9248-.4014.5508-.7012.9746-.9004,1.2744-.2012.3008-.5996.5508-1.2002.75-1.2002.4014-2.2002.6523-3,.75-.8018.1016-1.3496.1504-1.6494.1504-1.1016.2012-2.9512.3516-5.5508.4502-2.6016.1006-6.375.1494-11.3242.1494s-11.0254-.1992-18.2256-.5996v27.5996h30.6006c1.0986,0,2.123.502,3.0742,1.5.9492,1.001,1.4258,2.1006,1.4258,3.3008,0,4.6006-1.9502,6.8994-5.8506,6.8994h-29.25l.6006,39.2998c0,5.1006-1.7256,7.6504-5.1758,7.6504s-5.4746-2.2988-6.0752-6.9004c-.2998-1.5-.4756-14.2236-.5244-38.1748-.0518-23.9482-.1758-37.7246-.375-41.3252-3.7012.4014-5.5498-1.6992-5.5498-6.2998,0-1.2002.499-2.5244,1.5-3.9746.998-1.4482,1.875-2.2246,2.625-2.3252.75-.0986,1.6992-.1504,2.8496-.1504,1.1484,0,3.9756.2021,8.4756.6006,6.1992.5996,11.6484.8994,16.3496.8994Z"/></svg>