<?xml version="1.0" encoding="UTF-8"?><svg id="Layer_1" xmlns="http://www.w3.org/2000/svg" viewBox="0 0 200 200"><defs><style>.cls-1{fill:#50c8ea;}.cls-2{fill:#fffdee;}</style></defs><path class="cls-2" d="M10.2207,2h179.5591c4.5369,0,8.2202,3.6834,8.2202,8.2202v179.5591c0,4.5371-3.6836,8.2207-8.2207,8.2207H10.2207c-4.5371,0-8.2207-3.6836-8.2207-8.2207V10.2207C2,5.6836,5.6836,2,10.2207,2Z"/><path class="cls-1" d="M189.7798,4c3.4299,0,6.2202,2.7904,6.2202,6.2203v179.5595c0,3.4299-2.7904,6.2202-6.2202,6.2202H10.2203c-3.4299,0-6.2203-2.7904-6.2203-6.2202V10.2203c0-3.4299,2.7904-6.2203,6.2203-6.2203h179.5595M189.7798,0H10.2203C4.5757,0,0,4.5757,0,10.2203v179.5595c0,5.6445,4.5757,10.2202,10.2203,10.2202h179.5595c5.6445,0,10.2202-4.5757,10.2202-10.2202V10.2203c0-5.6445-4.5757-10.2203-10.2202-10.2203h0Z"/><path d="M113.6504,39.6611c4.7998,0,9.5742,1.2002,14.3242,3.5996,4.749,2.4004,7.125,5.1006,7.125,8.1006,0,4.6006-1.9004,6.8994-5.6992,6.8994-1.4023,0-3.8516-.8994-7.3506-2.7002-3.501-1.7998-6.4502-2.6992-8.8496-2.6992-8.6016,0-15.7764,3.8506-21.5254,11.5498-5.751,7.7012-8.625,17.501-8.625,29.3994,0,8.9023,1.9502,16.7021,5.8506,23.4004,3.8994,6.7012,8.5234,10.0498,13.875,10.0498,5.3477,0,9.5479-1.7744,12.5996-5.3252,3.0488-3.5479,4.5752-7.5742,4.5752-12.0742,0-2.499-.1758-4.5752-.5254-6.2256-.3516-1.6494-1.2256-3.1494-2.625-4.5-1.4014-1.3496-3.251-2.0244-5.5498-2.0244-2.3018,0-4.4766-.5-6.5254-1.5-2.0508-.999-3.0742-2.3486-3.0742-4.0508,0-1.6992.499-3.2998,1.5-4.7998.998-1.5,2.3477-2.3994,4.0498-2.7002,6.7988,0,11.374.7012,13.7246,2.1006,2.3486,1.4014,4.125,2.5498,5.3252,3.4502,1.2002.8994,2.1982,2.3994,3,4.5.7988,2.0996,1.4248,3.8506,1.875,5.25.4502,1.4014.7734,3.6514.9746,6.75.1992,5.2002.3008,11.2754.3008,18.2246s-.502,11.2266-1.5,12.8252c-.9004,1.3008-2.4004,1.9756-4.5,2.0244-2.1006.0518-3.5508-.375-4.3506-1.2744-.8018-.9004-1.3008-2.8994-1.5-6-2.3994,2.0996-5.4258,3.876-9.0752,5.3252-3.6514,1.4502-6.876,2.1748-9.6748,2.1748-8.8008,0-16.2002-4.6738-22.2002-14.0254-6-9.3486-8.999-20.625-8.999-33.8252,0-6.998,1.1484-13.875,3.4492-20.625,2.2998-6.75,5.4004-12.4238,9.2998-17.0244,8.1992-9.499,18.3008-14.25,30.3008-14.25Z"/></svg>