<?xml version="1.0" encoding="UTF-8"?>
<svg id="Layer_1" xmlns="http://www.w3.org/2000/svg" version="1.1" viewBox="0 0 200 200">
  <!-- Generator: Adobe Illustrator 29.0.0, SVG Export Plug-In . SVG Version: 2.1.0 Build 186)  -->
  <defs>
    <style>
      .st0 {
        fill: #1174b9;
      }

      .st1 {
        fill: #ff2376;
      }

      .st2 {
        fill: #fffdee;
      }
    </style>
  </defs>
  <g>
    <rect class="st2" x="3.5" y="3.5" width="193" height="193" rx="7.3" ry="7.3"/>
    <path class="st1" d="M189.2,7c2.1,0,3.8,1.7,3.8,3.8v178.4c0,2.1-1.7,3.8-3.8,3.8H10.8c-2.1,0-3.8-1.7-3.8-3.8V10.8c0-2.1,1.7-3.8,3.8-3.8h178.4M189.2,0H10.8C4.8,0,0,4.8,0,10.8v178.4c0,6,4.8,10.8,10.8,10.8h178.4c6,0,10.8-4.8,10.8-10.8V10.8c0-6-4.8-10.8-10.8-10.8h0Z"/>
  </g>
  <g>
    <polygon class="st2" points="31.1 176 31.1 66.8 31.1 61.8 31.1 59.9 31.1 58 31.1 57 31.4 55.5 31.8 54 32.9 51.9 33.6 50.5 34.3 48.7 35.4 46.9 36.8 44.4 38.6 41.6 40.3 38.4 42.1 35.5 43.5 33 45.7 29.5 47.5 27 48.9 25.6 51.4 23.4 53.5 22.4 56.4 21.6 59.8 21.6 63.1 21.6 65.6 22.4 68.5 23.4 70.3 24.5 73.1 26.6 75.6 28.8 77.7 30.2 79.5 31.6 80.9 33 83.4 35.2 85.6 37.7 87.4 39.8 88.4 41.2 89.5 43 90.9 44.8 91.6 46.2 93.4 48.7 94.8 50.8 95.9 53.3 97 55.1 98 56.5 98.8 56.9 99.5 56.5 100.2 55.1 101.6 52.3 103 48.4 105.9 42.3 108.4 37 110.9 32.7 112.6 29.8 114.4 27.3 116.6 24.8 118.7 22 120.5 20.2 123.3 18.8 125.8 18.1 128.3 17.7 130.5 18.1 132.6 18.8 134.7 19.9 136.9 20.9 139.7 22 142.6 23.4 145.4 25.2 148.3 27.3 151.1 30.2 154.3 33.4 156.8 36.6 159.7 39.8 162.1 44.1 163.9 48.4 165.4 52.3 166.4 55.5 167.5 59.7 168.2 63.7 168.9 67.6 168.9 70.2 166.4 178.3 166.1 180.8 165 182.3 130.5 181.2 128.7 181.2 126.9 180.8 125.1 179.8 124.8 176.6 126.5 103.9 126.5 101.1 126.2 99.8 125.1 98.2 123 97.1 120.8 97.1 117.6 97.5 116.2 98.9 113.7 101.4 111.6 103.9 109.4 106.8 106.9 109.6 105.2 111.7 103 114.2 101.6 115.3 100.2 115.4 98.4 115.3 97 114.6 95.9 113.2 93.4 110.3 89.8 107.1 87 103.9 84.9 102.5 82 100.4 79.6 99.6 77.6 99.6 75.5 100 74.2 102.1 73.8 104.3 73.8 108.2 73.5 171.6 73.5 173.7 72.8 175.9 71.7 177.6 69.5 178.7 36.1 178 34.5 178 33.2 178 32.2 177.3 31.1 176"/>
    <path class="st0" d="M166.6,185.5l-36.2-1.1h-2l-2.6-.5-3.6-2.2-.6-5v-.2s1.8-72.6,1.8-72.6v-2.7c-.1,0-.4-.5-.4-.5l-.7-.3h-1.2l-1.9.2-3,3-2,2.3-2.2,3-2.5,2.8-1.8,2.1-2.4,2.8-2.5,1.9h-2.6c0,.1-2.6,0-2.6,0l-2.7-1.4-1.5-1.9-2.3-2.6-3.6-3.2-2.7-3-1.9-1.3-2.4-1.8-1.4-.4h-1.7c0,0-.2.4-.2.4l-.2,1.3v3.7l-.4,63.4v2.6l-1,3-1.7,2.9-3.7,1.8-34.2-.7h-3.8l-2.2-1.5-2.1-2.5V56.6l.9-3.7,1.9-3.8.8-1.9,1.2-2,1.5-2.6,1.7-2.8,1.8-3.3,1.7-2.8,1.4-2.5,2.3-3.8,1.9-2.7,1.8-1.8,2.8-2.4,2.8-1.4,3.6-.9h7.6l3.2.9,3.1,1.2,2.3,1.4,3,2.3,2.3,2,2.2,1.5,1.9,1.5,1.5,1.5,2.6,2.2,2.3,2.7,1.9,2.3,1.3,1.7,1,1.6,1.5,1.9.8,1.5,1.7,2.4,1.6,2.4.8,2v-.3c.1,0,1.6-4,1.6-4l2.8-6.1,2.6-5.6,2.5-4.4,1.9-3,2-2.7,2.1-2.4,2.2-2.9,2.3-2.3,3.6-1.8,3-.9,3.2-.5,2.9.5,2.6.9,4.3,2.2,3,1.1,3.1,1.6,3.1,1.9,3,2.3,6.4,6.4,2.6,3.3,3,3.4,2.8,4.7,1.9,4.6,1.5,4,1.1,3.4,1.1,4.5,1.5,8.1v3s-2.5,108.3-2.5,108.3l-.5,3.5-2.6,3.4ZM129,178h1.6s32.5,1,32.5,1v-.9c.1,0,2.6-107.9,2.6-107.9v-2.3l-1.4-7.4-1-4.1-1-3-1.4-3.8-1.7-4-2.2-3.8-2.8-3.1-2.4-3-5.8-5.8-2.6-1.9-2.6-1.6-2.6-1.3-3-1.1-4.1-2-1.7-.6-1.4-.2-1.8.3-2,.6-2.1,1.1-1.3,1.3-2.1,2.8-2,2.4-1.6,2.3-1.7,2.7-2.4,4.1-2.4,5.2-2.8,5.9-1.4,4-2.7,5.4-3.1,1.6-2.8-1.4-1.7-2.3-1.2-2-1-2.4-1.2-1.8-1.9-2.7-.7-1.3-1.3-1.7-1.1-1.8-.9-1.2-1.7-2.1-2-2.3-2.5-2.1-1.3-1.3-1.5-1.2-2.2-1.5-2.6-2.2-2.6-2-1.4-.8-2.5-.9-1.9-.6h-5.9l-2.1.5-1.5.7-2.1,1.8-1.2,1.2-1.6,2.2-2.1,3.4-1.5,2.6-1.7,2.8-1.8,3.3-1.7,2.8-1.4,2.5-.9,1.6-.7,1.8-1.6,3.2-.5,2.2v117.4h1.8s32.7.7,32.7.7l.6-.3.4-.7.4-1.3v-1.6l.4-63.4v-4.2l.5-3,2.4-3.9,3.8-.6h2.8l3.4,1,3.2,2.4,2.4,1.6,3,3.4,3.6,3.2,2.8,3.2.6.8h.1c0,0,.9.1.9.1h.3s.4-.3.4-.3l1.9-2.2,1.8-2.2,2.4-2.8,2.2-2.9,2.3-2.7,4.7-4.7,4.5-.5h3.1l3.6,1.8,1.8,2.7.7,2.1v3.4s-1.8,72.4-1.8,72.4l.2,1.4.9.2Z"/>
  </g>
</svg>