<?xml version="1.0" encoding="UTF-8"?>
<svg id="Layer_1" xmlns="http://www.w3.org/2000/svg" version="1.1" viewBox="0 0 200 200">
  <!-- Generator: Adobe Illustrator 29.0.0, SVG Export Plug-In . SVG Version: 2.1.0 Build 186)  -->
  <defs>
    <style>
      .st0 {
        fill: #1174b9;
      }

      .st1 {
        fill: #fffdee;
      }

      .st2 {
        fill: #ff8a20;
      }
    </style>
  </defs>
  <g>
    <rect class="st1" x="3.5" y="3.5" width="193" height="193" rx="7.1" ry="7.1"/>
    <path class="st2" d="M189.4,7c2,0,3.6,1.6,3.6,3.6v178.8c0,2-1.6,3.6-3.6,3.6H10.6c-2,0-3.6-1.6-3.6-3.6V10.6c0-2,1.6-3.6,3.6-3.6h178.8M189.4,0H10.6C4.7,0,0,4.7,0,10.6v178.8c0,5.8,4.7,10.6,10.6,10.6h178.8c5.8,0,10.6-4.7,10.6-10.6V10.6c0-5.8-4.7-10.6-10.6-10.6h0Z"/>
  </g>
  <g>
    <polygon class="st1" points="54.6 17.5 86.2 17.9 86.9 103.2 86.9 105.8 88 108.6 89.8 110 92.3 111.4 94.7 111.4 99.1 111.4 102.3 111.4 108 111.1 110.8 110.7 112.6 108.9 113 106.8 113 103.8 113.3 18.3 147.6 19.7 144 123.2 143.7 126.1 143 133.2 141.5 142.1 140.1 147.5 137.3 156 134.8 161.8 130.8 168.9 127.6 173.5 123 177.5 115.8 181 108.3 182.5 102.8 182.5 95.5 182.1 83 181 78.7 179.2 72.6 175.7 67.3 170 61.6 161 59.1 153.5 55.9 146.4 53.7 137.5 52.6 130.7 52.6 122.1 52.3 18.4 52.3 17.5 54.6 17.5"/>
    <path class="st0" d="M108.6,185.7h-6s-7.4-.4-7.4-.4l-13-1.1-4.9-2.1-6.7-3.9-5.9-6.3-6.1-9.5-2.6-7.7-3.3-7.3-2.3-9.5-1.1-7v-8.9l-.4-103.6v-4.1h5.6s34.7.4,34.7.4l.7,90.5.5,1.4.9.7,1.5.9h9l5.5-.3,1.7-.2.3-.3v-.9c.1,0,.1-2.7.1-2.7l.4-88.9,40.8,1.7-3.7,107-.4,2.8-.7,7.3-1.5,9.1-1.5,5.7-3,8.8-2.6,6-4,7.3-3.5,5.1-5.3,4.5-7.9,3.9-8.2,1.6ZM102.9,179.2h5.1l6.8-1.3,6.4-3.2,4-3.4,2.9-4.2,3.8-6.9,2.4-5.4,2.8-8.3,1.4-5.1,1.4-8.7.7-7.1.3-2.7,3.5-100.2-27.8-1.2-.3,82.2v3.2l-.6,3.4-3.3,3.3-4.1.5-5.9.4h-10.9l-3.5-2-2.7-2.1-1.6-4.1v-3.2l-.7-82.1-27.5-.3.3,101.3v8.4l1,6.4,2,8.5,3.2,7.2,2.4,7.1,5.3,8.3,4.8,5.2,5.5,3.2,3.6,1.5,11.9,1,7.2.4Z"/>
  </g>
</svg>