<?xml version="1.0" encoding="UTF-8"?>
<svg id="Layer_1" xmlns="http://www.w3.org/2000/svg" version="1.1" viewBox="0 0 200 200">
  <!-- Generator: Adobe Illustrator 29.0.0, SVG Export Plug-In . SVG Version: 2.1.0 Build 186)  -->
  <defs>
    <style>
      .st0 {
        fill: #1174b9;
      }

      .st1 {
        fill: #fedb00;
      }

      .st2 {
        fill: #fffdee;
      }
    </style>
  </defs>
  <g>
    <rect class="st2" x="3.4" y="3.5" width="193" height="193" rx="6.7" ry="6.7"/>
    <path class="st1" d="M189.7,7c1.8,0,3.2,1.4,3.2,3.2v179.6c0,1.8-1.4,3.2-3.2,3.2H10.1c-1.8,0-3.2-1.4-3.2-3.2V10.2c0-1.8,1.4-3.2,3.2-3.2h179.6M189.7,0H10.1C4.5,0,0,4.6,0,10.2v179.6c0,5.6,4.6,10.2,10.2,10.2h179.6c5.6,0,10.2-4.6,10.2-10.2V10.2c0-5.6-4.6-10.2-10.2-10.2h-.1Z"/>
  </g>
  <g>
    <polygon class="st2" points="52.4 129.3 53.1 165.5 54.6 166.9 56 168.3 57.5 169.4 58.6 170.5 59.6 171.6 60.7 172.6 61.8 173.7 63.7 174.8 65.1 175.5 66.6 176.6 68.7 177.6 70.9 178.4 73.1 179.1 75.3 179.8 77.5 180.5 79.7 180.9 81.5 181.2 83.7 181.6 85.9 181.9 88.4 182.3 92 182.3 94.8 182.3 97.5 182.3 100.7 182.3 102.6 182.3 104.4 181.9 107.3 181.6 109.9 180.9 112.4 180.1 115 179.1 117.2 178.4 119.7 176.9 123 174.8 125.2 173 127 171.2 128.8 169.4 131 166.6 133.5 163.3 135 161.2 137.6 157.3 139 154.7 140.5 151.9 142.3 146.9 143.4 143.7 144.5 140.4 145.6 135.8 146.3 131.5 147 127.6 147.4 124.7 147.7 120.8 147.7 116.6 147.4 113.6 147 109 146.7 106.4 145.6 100.4 144.8 97.9 143 93.9 141.9 91.8 139.4 87.5 137.2 85 134.3 82.1 129.2 78.5 124.4 75 121.5 72.8 116.8 70.7 113.9 69.6 108.4 68.9 105.2 68.5 101.5 67.8 99.3 66.4 96.4 64.2 92.8 61 92 58.9 92 55.6 94.2 52.1 96.4 51 99.3 50.6 101.6 50.6 103.7 50.6 105.9 51 108.8 51.4 110.6 52.1 112.8 52.8 116.8 54.2 119.4 54.9 124.1 56.7 126.3 57.4 131.7 59.2 135 60.3 137.6 61.4 139.7 62.1 143 56.4 144.1 53.5 144.5 51.7 145.2 46.7 145.2 44.2 145.2 38.8 145.6 34.5 145.2 30.6 144.5 27.4 143.4 22.7 141.9 17.7 95 18.1 85.5 19.9 79.7 21.7 74.6 24.5 69.1 27.7 65.8 31 63.7 34.2 60 39.9 58.6 44.6 56.7 52.1 56 59.2 55.6 65.3 55.6 71 57.8 77.8 60.4 84.3 62.6 88.2 66.9 93.6 74.9 97.5 80.8 99.7 85.9 101.1 89.5 101.1 95.7 101.4 100.4 102.2 104.1 103.2 106.2 104.7 108.1 106.4 109.5 108.2 110.2 110.4 110.6 112.5 111 116.1 111 119.7 110.6 123.6 109.5 126.5 108.1 129.3 105.9 132.2 102.6 135.4 99.7 137.2 96.4 138.6 93.1 139.4 88.4 140.1 84.4 139.7 80.8 139.4 77.5 138.6 73.1 137.6 68.7 135.8 64.7 134.7 61.8 133.3 58.6 132.2 54.9 130.8 52.4 129.3"/>
    <path class="st0" d="M102.9,185.5h-14.7l-2.9-.4-4.5-.7-1.8-.3-2.4-.4-9.2-3-2.7-1.3-1.5-1.1-1.4-.7-2.2-1.3-4.5-4.4-1.5-1.1-4-3.9-.9-43.1,7.4,4.1,3.3,1.3,3.4,1.1,2.8,1.4,3.9,1,4.3,1.8,4.1,1,3,.7,3.4.3,3.6.3,4.2-.6,2.9-.6,2.8-1.2,2.4-1.5,2.8-2.8,1.9-2.4,1.2-2.5.9-2.3.3-3.4v-3.3l-.3-3.3-.3-1.8-.5-1.4-1-1.2-1.5-1.4-1.5-1-3-.9-4.4-.7-5.9-.3h-4l-5.8-1.6-6.1-2.3-8.7-4.3-5-6.1-2.4-4.4-2.7-6.8-2.3-7.3v-6.4s.4-6.2.4-6.2l.8-7.4,1.9-7.9,1.6-5.1,3.9-6.2,2.4-3.5,3.8-3.7,5.9-3.5,5.4-3,6.3-1.9,9.9-1.9,49.8-.4,2.2,7.5,1.1,4.7.8,3.4.4,4.4-.4,4.4v8l-.8,5.4-.4,2-1.3,3.3-4.7,8.3-5-1.7-2.4-1-10.9-3.6-4.6-1.7-2.6-.7-4-1.4-2.3-.8-1.4-.6-2.6-.3-1.9-.3h-3.9l-2.2.3-.8.4-1.2,2v1.8l.3.8,2.9,2.6,2.7,2,1.6,1,2.9.6,3.2.4,5.8.8,3.5,1.3,5,2.3,3.2,2.4,4.7,3.5,5.3,3.7,3.3,3.2,2.4,2.7,2.8,4.7,1.1,2.3,1.9,4.2.9,3.1,1.1,6.2.4,2.7.4,4.6.4,3.2v4.6s-.4,4-.4,4l-.4,3-.7,3.9-.8,4.5-1.2,4.9-2.2,6.5-1.9,5.2-1.6,3.2-1.5,2.6-2.6,4-1.6,2.3-2.5,3.2-2.3,3-4,3.9-2.3,1.9-3.6,2.4-2.8,1.6-2.4.8-2.6,1.1-5.5,1.6-3,.4-2,.4ZM88.6,179.1h13.6l1.7-.3,2.7-.3,4.7-1.3,2.6-1.1,1.9-.6,2.2-1.2,3-2,1.9-1.6,3.4-3.3,2.1-2.7,2.5-3.1,1.4-2,2.5-3.8,1.4-2.4,1.3-2.6,1.7-4.8,2.1-6.3,1-4.4.7-4.2.7-3.8.3-2.7.3-3.7v-3.8l-.4-3-.4-4.5-.3-2.3-1.1-5.9-.6-2.1-1.7-3.7-1-2-2.3-4-1.9-2.2-2.6-2.6-5-3.5-4.7-3.6-2.6-1.9-4.3-2-2.5-.9-5.1-.7-3.5-.4-4.3-.8-2.9-1.9-3.1-2.3-4.3-3.8-1.2-3.4v-4.6l3.1-5.1,3.5-1.7,3.7-.5h4.8l2.4.4,3.3.4,2.1.8,2.2.7,3.9,1.4,2.7.8,4.7,1.8,11.1,3.6,1.9.8,1.8-3.2.9-2.4.3-1.4.7-4.7v-7.9s.4-4,.4-4l-.3-3.5-.7-3-1.1-4.5-.7-2.6-44.2.3-9,1.7-5.3,1.6-4.8,2.7-5.1,3-2.8,2.7-2,2.9-3.4,5.3-1.3,4.1-1.7,7.2-.7,6.9-.4,5.9v5.1l2,6.2,2.4,6.1,1.9,3.5,3.7,4.6,7.2,3.5,5.5,2,4.5,1.3h3.4s6.5.4,6.5.4l5,.7,4.3,1.3,2.9,1.9,2.2,2.1,1.9,2.4,1,2.9.4,2.6.4,3.9v3.9s-.4,4.4-.4,4.4l-1.4,3.6-1.6,3.1-2.5,3.3-3.7,3.6-3.4,2.1-3.8,1.7-3.8.8-5.1.8-4.4-.4-3.9-.4-3.6-.8-4.6-1.1-4.4-1.8-4.1-1.1-3-1.5-3.2-1.1-1.6-.6.6,29.5,1.8,1.8,1.5,1.1,4.2,4.2,1.4.8,1.6.8,1.5,1.1,1.7.8,8.3,2.7,2,.3,1.8.3,4.3.7,2.3.3Z"/>
  </g>
</svg>