<?xml version="1.0" encoding="UTF-8"?>
<svg id="Layer_1" xmlns="http://www.w3.org/2000/svg" version="1.1" viewBox="0 0 200 200">
  <!-- Generator: Adobe Illustrator 29.0.0, SVG Export Plug-In . SVG Version: 2.1.0 Build 186)  -->
  <defs>
    <style>
      .st0 {
        fill: #1174b9;
      }

      .st1 {
        fill: #00c22d;
      }

      .st2 {
        fill: #fffdee;
      }
    </style>
  </defs>
  <g>
    <rect class="st2" x="3.5" y="3.5" width="193" height="193" rx="6.9" ry="6.9"/>
    <path class="st1" d="M189.6,7c1.9,0,3.4,1.5,3.4,3.4v179.1c0,1.9-1.5,3.4-3.4,3.4H10.4c-1.9,0-3.4-1.5-3.4-3.4V10.4c0-1.9,1.5-3.4,3.4-3.4h179.1M189.6,0H10.4C4.7,0,0,4.7,0,10.4v179.1c0,5.8,4.7,10.4,10.4,10.4h179.1c5.8,0,10.4-4.7,10.4-10.4V10.4c0-5.8-4.7-10.4-10.4-10.4h.1Z"/>
  </g>
  <g>
    <path class="st2" d="M95.4,17.4h4.2l2.3.4,2.2.4,2.2.4,1.8.4,1.5.4,1.8.4,1.8.7,1.8.7,1.8.7,1.5.4,1.8,1.1,1.1.7,1.1,1.1,1.8,1.4,1.1,1.1,1.1,1.1,1.5,1.4,1.5,1.4,1.5,1.8,1.5,1.8,1.5,2.2,1.5,2.2,1.8,2.2,1.8,2.5,1.5,2.2,1.8,3.2,1.8,2.9,1.5,2.5,1.5,2.5,1.1,2.2.7,2.2.7,3.2.4,3.2.4,2.9.4,3.9.4,3.2.7,3.6.4,3.6.4,4.3.4,3.9v28.2l-.4,4.5-.7,3.6-.4,1.8-1.8,4.7-1.1,3.2-1.5,3.6-1.5,3.2-1.5,3.2-1.8,3.2-1.8,2.9-1.8,3.2-1.8,2.9-2.5,3.9-1.8,2.2-2.5,3.2-2.2,1.4-4,3.2-3.3,2.2-4,2.5-4.4,1.1-7.3,1.1-5.4.4h-3.7l-5-.4-3.6-1.1-4.7-1.4-5.1-1.8-4-2.2-2.9-2.2-5.1-4.7-3.3-3.2-2.5-4.3-1.8-3.6-2.2-3.9-1.8-5-.7-5.4-1.1-6.5-1.1-6.1-.7-3.9-.4-6.1v-5.6l-.4-3.7-.7-6.5-.4-5.4v-10.1l.4-5.4.4-3.9.7-6.1.4-3.9,1.1-7.2,1.5-4.7,1.8-8.2,3.3-5.7,2.9-6.1,2.9-3.2,1.8-2.5,6.5-5,4-2.5,5.1-2.9,5.8-2.9,4-1.4,5.2-.7ZM94.6,45l-1.1.7-1.5,1.1-1.8,1.8-.7.7-2.2,3.2-2.2,4.7-1.1,4.3-.4,4.7-.3,5,.4,4.7.7,4.3,2.2,3.2,1.5,2.5,3.3,1.8,2.6,1.1h2.4l3.3-.4,2.9-1.8,2.2-1.8,1.8-2.2,1.8-2.9,1.5-2.5,1.1-2.9.7-2.5.4-3.9v-3.6l-.4-3.9-.4-3.9-.4-3.2-.7-2.5-1.1-2.2-1.1-1.8-1.5-1.4-1.3-.7-2-.7-1.9-.3h-2.1l-1.8.3-1.8.4-1.1.7Z"/>
    <path class="st0" d="M99,185.9h-4.1s-5.3-.4-5.3-.4l-4-1.2-4.9-1.5-5.3-1.9-4.4-2.4-3.2-2.4-5.3-4.9-3.6-3.5-2.9-4.8-1.8-3.5-2.3-4.1-2-5.6-.8-5.7-1.1-6.4-1.1-6.1-.8-4.1-.4-6.5v-5.5l-.3-3.5-.7-6.6-.4-5.6v-10.3s.4-5.4.4-5.4l.4-4,.7-6.1.4-4.1,1.1-7.4,1.5-4.8,1.9-8.6,3.4-6.1,3.1-6.4,3.1-3.4,2-2.8,7.2-5.5,4.1-2.6,5.2-3,6-3,4.5-1.6,5.7-.8h4.7l7,1.1,2,.4,1.4.3,2,.4,5.5,2.2,1.7.4,2.4,1.4,1.4.9,1.2,1.2,1.8,1.4,5.3,5.3,3.2,4,2.8,4.2,1.9,2.2,1.9,2.6,1.6,2.4,1.8,3.2,1.8,2.9,3,5.2,1.2,2.4.9,2.7.8,3.4.4,3.4.4,3,.4,3.9.3,3.1.7,3.8.4,3.6.4,4.3.4,4.2v28.4s-.4,4.6-.4,4.6l-1.2,5.8-1.9,4.8-1.1,3.3-1.5,3.7-3,6.7-1.9,3.4-1.8,2.8-1.9,3.3-1.8,2.9-2.7,4.1-1.9,2.3-2.8,3.6-2.5,1.6-4.1,3.3-3.3,2.2-4.4,2.8-5.2,1.3-7.5,1.1-5.5.4ZM95.3,179.4h3.5l5.2-.3,7-1,3.7-.9,3.5-2.2,3.1-2,4.1-3.3,1.7-1.1,2.3-2.9,1.7-2,2.4-3.8,1.8-2.8,1.9-3.3,1.8-2.8,1.7-3,2.8-6.3,1.4-3.4,1.1-3.3,1.7-4.4,1-4.9.3-4.1v-27.9l-.3-3.8-.4-4.3-.3-3.4-.7-3.7-.4-3.3-.4-3.9-.4-2.9-.3-3.1-.7-2.9-.6-1.8-.9-1.9-2.8-4.9-1.9-3-1.7-3.1-1.3-2-1.7-2.4-1.8-2.2-2.9-4.3-2.7-3.3-4.8-4.8-1.8-1.4-1-1-.8-.5-1.3-.8-1.2-.3-5.4-2.1-1.7-.3-1.4-.3-1.7-.3-6.3-1h-3.7l-4.6.6-3.5,1.3-5.6,2.7-4.9,2.8-3.8,2.4-6,4.6-1.6,2.3-2.7,3-2.8,5.9-3,5.3-1.8,8-1.4,4.4-1,6.8-.4,3.9-.7,6.1-.4,3.9-.4,5.2v9.8l.4,5.2.7,6.4.4,4v5.5l.3,5.8.7,3.8,1.1,6.1,1.1,6.6.7,5,1.6,4.5,2.1,3.8,1.8,3.5,2.3,3.9,2.9,2.9,4.9,4.5,2.6,1.9,3.6,1.9,4.8,1.7,4.6,1.4,3.3,1,4.5.3ZM96.6,91.9h-3.3l-3.4-1.4-4.2-2.3-1.8-3.2-2.5-3.7-.9-5.3-.4-4.9.4-5.3.4-4.9,1.2-4.9,2.4-5.2,2.5-3.7,2.9-2.9,1.8-1.3,2.7-1.8,2.5-.5,2.1-.4h2.6l2.5.4,2.6.9,1.9,1.1,2,2,1.4,2.4,1.2,2.4.9,3.1.4,3.6.7,8.2v3.9s-.4,4.2-.4,4.2l-.9,3-1.2,3.1-1.6,2.8-1.9,3.1-2.1,2.5-2.6,2.1-3.7,2.3-4.2.5ZM94.6,85.5h1.6l2.3-.3,2.1-1.3,1.8-1.5,1.5-1.8,1.7-2.6,1.3-2.2.9-2.5.6-2.1.3-3.5v-3.3l-.7-7.7-.3-2.9-.6-2-.9-1.8-.8-1.3-.9-.9-.6-.4-1.5-.5-1.4-.2h-1.5l-1.5.3-1.2.2-1.6,1-1.2.9-2.1,2.1-1.9,2.8-1.9,4.2-.9,3.8-.4,4.4-.3,4.7.3,4.3.6,3.5,1.9,2.8,1,1.7,2.3,1.3,1.9.8Z"/>
  </g>
</svg>