<?xml version="1.0" encoding="UTF-8"?>
<svg id="Layer_1" xmlns="http://www.w3.org/2000/svg" version="1.1" viewBox="0 0 207 207">
  <!-- Generator: Adobe Illustrator 29.0.0, SVG Export Plug-In . SVG Version: 2.1.0 Build 186)  -->
  <defs>
    <style>
      .st0 {
        fill: #1174b9;
      }

      .st1 {
        stroke: #50c8ea;
        stroke-miterlimit: 10;
        stroke-width: 7px;
      }

      .st1, .st2 {
        fill: #fffdee;
      }
    </style>
  </defs>
  <rect class="st1" x="3.5" y="3.5" width="200" height="200" rx="10.4" ry="10.4"/>
  <g>
    <path class="st2" d="M125.3,21.1l4.3.7,3.9,2.5,3.2,2.9,5,5,4.6,6.8,1.4,5,.7,7.1.4,5.1v5.6l-.7,8.6-.7,5-3.2,8.9-2.9,4.6-3.9,5-3.2,3.2-3.6,2.5-6.8,4.1-5,2.7-5.7,3.2-3.6,1.8-3.6,1.4-4.3,1.8-2.5,1.8-.4,47.1-.7,5.3-1.4,4.6-2.1,3.9-3.9,2.1-2.5.7-4.3.4-7.1.7-8.2,1.4-6.8,1.8-3.6.7,1.1-158.7,2.1-3.6,63.8-1.8ZM96.7,47.9l.7,29.6.4,2.1.7,1.4,1.1,1.1,1.1.4h1.3l1.5-.7,8.2-6.1,2.1-2.1,2.5-3.2,2.9-4.6,2.1-4.3,1.1-4.3-.7-5-2.1-2.9-4.9-1.4h-17.9Z"/>
    <path class="st0" d="M55,189.1l1.1-163.5,3.5-5.8,65.9-1.8,5.2.9,4.7,3,3.5,3.2,5.2,5.2,5.1,7.5,1.6,5.8.8,7.5.4,5.4v5.8s-.7,8.7-.7,8.7l-.8,5.3-3.4,9.5-3.1,5.1-4.2,5.3-3.5,3.5-4,2.8-6.9,4.2-5,2.7-5.8,3.3-3.8,1.9-3.5,1.4-3.9,1.6-.9.6-.3,45.6-.8,5.8-1.6,5.2-2.7,5-5.1,2.8-3.1.9-4.6.4-7,.7-8,1.4-6.8,1.8-7.4,1.5ZM62.5,27.4l-1,153.9,6.6-1.7,8.4-1.5,7.2-.7,4-.3,1.9-.5,2.8-1.5,1.5-2.8,1.3-4.1.7-4.9.4-48.5,4.1-2.9,4.7-1.9,3.4-1.4,3.4-1.7,5.7-3.2,4.9-2.6,6.6-4,3.3-2.3,2.9-2.9,3.7-4.7,2.6-4.2,3-8.3.7-4.6.7-8.3v-5.3l-.3-5-.7-6.8-1.2-4.2-4.2-6.1-4.7-4.7-2.9-2.6-3.2-2-3.3-.6-61.8,1.7-.8,1.3ZM102.7,85.7h-2.5l-2.3-.8-2-2-1.2-2.3-.5-2.8v-.2s-.8-32.9-.8-32.9h21.7l6.3,1.9,3.3,4.4.9,6.4-1.3,5.2-2.4,4.8-2.9,4.8-2.7,3.5-2.5,2.5-8.7,6.4-2.5,1.1ZM101.2,79.1h.1c0,.1.6-.2.6-.2l7.7-5.7,1.8-1.8,2.3-2.9,2.7-4.4,1.9-3.8.8-3.3-.5-3.6-1-1.3-3.4-1h-14.2l.6,26.1.2,1.4.3.5Z"/>
  </g>
</svg>