<?xml version="1.0" encoding="UTF-8"?>
<svg id="Layer_1" xmlns="http://www.w3.org/2000/svg" version="1.1" viewBox="0 0 207 207">
  <!-- Generator: Adobe Illustrator 29.0.0, SVG Export Plug-In . SVG Version: 2.1.0 Build 186)  -->
  <defs>
    <style>
      .st0 {
        fill: #1174b9;
      }

      .st1 {
        stroke: #1174b9;
        stroke-miterlimit: 10;
        stroke-width: 7px;
      }

      .st1, .st2 {
        fill: #fffdee;
      }
    </style>
  </defs>
  <rect class="st1" x="3.5" y="3.5" width="200" height="200" rx="10.5" ry="10.5"/>
  <g>
    <polygon class="st2" points="61.7 26.5 57 177.6 57 179.4 57.4 181.2 58.1 182.6 59.2 184.1 61 185.5 62 185.9 141.3 182.6 143.5 182.3 145.7 180.8 148.5 176.9 149.6 174 150 170 148.9 137.7 148.2 135.9 146.4 133.7 143.1 132.6 109.5 133.3 106.6 133 104.4 131.5 102.2 130.1 101.1 126.9 103.5 25.9 103.5 24 103 22.6 101.1 21.5 98.6 21.1 66.8 21.8 65 21.8 63.5 21.8 62.1 22.2 61.7 23.3 61.7 26.5"/>
    <path class="st0" d="M61.5,189.1l-2.1-.8-2.6-2-1.5-2-1-2.1-.5-2.5v-2.2s4.7-151,4.7-151v-3.7l1.1-3.3,3.6-.9h3.6l32.1-.7,3.4.5,3.4,2,1.1,3.1v2.5s-2.3,100.4-2.3,100.4l.6,1.6,2.8,1.8,1.9.2,34-.7,4.7,1.5,2.7,3.3,1.1,2.8,1.1,33.1-.4,4.6-1.4,3.7-3.5,4.8-3.2,2.1-3.1.5h-.2s-79.9,3.3-79.9,3.3ZM61.5,181.8l1,.8,78.4-3.2,1.3-.2,1.1-.7,2.3-3.1.8-2.1.3-3.3-1.1-31.6-.3-.8-.9-1.1-1.8-.6-33.3.7-3.9-.5-5.9-3.9-1.6-4.8,2.4-101.5v-1.2h-.2c0-.1-1.6-.4-1.6-.4l-31.6.7h-1.8v1.5s-4.7,151-4.7,151v1.4l.2,1,.4.8.7.9Z"/>
  </g>
</svg>