<?xml version="1.0" encoding="UTF-8"?>
<svg id="Layer_1" xmlns="http://www.w3.org/2000/svg" version="1.1" viewBox="0 0 200 200">
  <!-- Generator: Adobe Illustrator 29.0.0, SVG Export Plug-In . SVG Version: 2.1.0 Build 186)  -->
  <defs>
    <style>
      .st0 {
        fill: #ab08ff;
      }

      .st1 {
        fill: #1174b9;
      }

      .st2 {
        fill: #fffdee;
      }
    </style>
  </defs>
  <g>
    <rect class="st2" x="3.5" y="3.5" width="193" height="193" rx="7" ry="7"/>
    <path class="st0" d="M189.5,7c1.9,0,3.5,1.6,3.5,3.5v179c0,1.9-1.6,3.5-3.5,3.5H10.5c-1.9,0-3.5-1.6-3.5-3.5V10.5c0-1.9,1.6-3.5,3.5-3.5h179M189.5,0H10.5C4.7,0,0,4.7,0,10.5v179c0,5.8,4.7,10.5,10.5,10.5h179c5.8,0,10.5-4.7,10.5-10.5V10.5c0-5.8-4.7-10.5-10.5-10.5h0Z"/>
  </g>
  <g>
    <path class="st2" d="M47.2,52l1.4-4,2.5-4.3,2.8-4,4.3-4,3.9-3.6,4.3-3.3,4.3-3.3,5-3.3,6.4-2.5,5.3-1.8,3.8-.7h13.6l6.4.4,6.4,1.1,5.3,1.4,5.3,2.2,3.9,2.2,3.6,2.2,5,3.6,2.8,2.5,3.6,4.3,2.5,4,2.1,4.7,1.8,3.6.7,2.5v5.4l-.4,113.3-.4,5.4-.7,2.9-1.1,1.8h-30.6l-1.8-.7-1.1-1.4-1.1-3.3-.4-2.2-2.5-41.3-.7-2.9-1.1-3.3-1.1-2.5-1.4-1.8-2.1-1.8-1.8-1.1-2.8-.7-2.8-.4-3.2.4-2.5,1.1-2.1,1.8-1.4,2.2-1.1,3.6-.7,2.9-.4,3.6-.4,4-2.8,29.7-.7,8-1.4,4.7-2.1,2.5-30.2.7-2.5-3.6-1.8-4-.7-3.6-.7-8.7,1.4-110.7ZM85.6,77.5h30l-.7-6.2v-9.5l-.2-3.3-.4-2.9-.7-1.8-.7-2.2-.7-1.8-1.1-1.1-1.4-1.4-1.8-.7-2.8-.7-2.1-.4h-2.8l-2.5.4-2.1.7-2.8,1.4-1.4,1.1-1.4,1.8-1.4,2.5-1.4,3.3-1.1,2.9-.7,2.5-.7,3.3-.4,3.3v8.7l1.4.2Z"/>
    <path class="st1" d="M49.9,186l-3.7-5.3-2.1-4.6-.8-4.2-.7-9v-.2s1.4-111.3,1.4-111.3l1.7-4.8,2.8-4.9,3-4.2,4.5-4.2,4.2-3.8,8.7-6.6,5.2-3.4,6.8-2.7,5.5-1.9,4.3-.8h14.1s6.6.4,6.6.4l6.9,1.2,5.5,1.5,5.7,2.3,4.2,2.3,3.8,2.3,5.2,3.8,3,2.7,3.8,4.7,2.7,4.3,2.2,4.9,1.9,3.8.9,3.2v5.9l-.4,113.4-.4,5.8-.9,3.6-2.2,3.8h-33l-3.2-1.3-1.9-2.6-1.3-4-.4-2.8-2.5-41-.6-2.5-1-3-.8-2-.9-1.2-1.7-1.4-1.2-.7-2.2-.6-2.3-.3-2.4.3-1.6.7-1.4,1.2-.9,1.4-.9,3.1-.6,2.6-.3,3.4-.4,4-2.8,29.7-.7,8.3-1.7,5.7-3.5,4.2-33.3.8ZM51.8,177.4l1.4,2,27.1-.6.8-.9,1.1-3.7.7-7.6,2.8-29.7.4-4,.4-3.9.8-3.3,1.2-4.1,1.9-3,2.8-2.4,3.4-1.5,4-.5,3.4.4,3.5.9,2.4,1.5,2.6,2.2,1.9,2.4,1.3,3.2,1.1,3.5.8,3.2,2.5,41.4.3,1.8.8,2.5.2.3.4.2h28.1l.5-2,.3-5,.4-113.2v-5l-.5-1.8-1.7-3.4-2-4.5-2.3-3.6-3.3-4-2.5-2.3-4.7-3.5-3.4-2.1-3.7-2-5-2-5-1.4-6.1-1-6.1-.3h-13.2l-3.3.6-5.1,1.7-6,2.4-4.6,3-8.3,6.4-3.8,3.5-4,3.8-2.6,3.6-2.3,3.9-1.1,3.2-1.4,110,.7,8.3.6,3.1,1.5,3.4ZM119.2,80.8h-33.8l-4.4-.6v-11.7l.4-3.6.8-3.6.8-2.8,1.1-3.1,1.6-3.6,1.5-2.8,1.8-2.3,2-1.5,3.3-1.7,2.6-.9,3.1-.4h3.3l2.6.5,3.1.8,2.6,1.1,3.4,3.5,1,2.6.7,2.1.8,2.1.4,3.6.2,3.5v9.3l1.1,9.6ZM87.4,74.3h24.7l-.3-2.7v-9.6l-.2-3.1-.3-2.4-.6-1.6-.7-2.1-.4-1.1-1.6-1.6-1-.4-2.5-.6-1.7-.3h-2.3l-2,.3-1.6.6-2.4,1.2-.9.7-1,1.3-1.2,2.2-1.3,3-1,2.7-.6,2.3-.7,3-.3,2.9v5.4Z"/>
  </g>
</svg>