<?xml version="1.0" encoding="UTF-8"?>
<svg id="Layer_1" xmlns="http://www.w3.org/2000/svg" version="1.1" viewBox="0 0 200 200">
  <!-- Generator: Adobe Illustrator 29.0.0, SVG Export Plug-In . SVG Version: 2.1.0 Build 186)  -->
  <defs>
    <style>
      .st0 {
        fill: #1174b9;
      }

      .st1 {
        fill: #ff2376;
      }

      .st2 {
        fill: #fffdee;
      }
    </style>
  </defs>
  <g>
    <rect class="st2" x="3.5" y="3.5" width="193" height="193" rx="7.3" ry="7.3"/>
    <path class="st1" d="M189.2,7c2.1,0,3.8,1.7,3.8,3.8v178.4c0,2.1-1.7,3.8-3.8,3.8H10.8c-2.1,0-3.8-1.7-3.8-3.8V10.8c0-2.1,1.7-3.8,3.8-3.8h178.4M189.2,0H10.8C4.8,0,0,4.8,0,10.8v178.4c0,6,4.8,10.8,10.8,10.8h178.4c6,0,10.8-4.8,10.8-10.8V10.8c0-6-4.8-10.8-10.8-10.8h0Z"/>
  </g>
  <g>
    <polygon class="st2" points="32 27.8 32 40.3 33.6 50.5 34.1 54.5 34.9 57.7 35.6 61.3 36.6 66.7 38.4 70.7 41 75.3 43.1 79.7 44.9 82.2 47.4 85.4 51.8 89.4 56.1 91.9 58.6 93.3 64.4 96.6 70.8 100.5 74.1 103.1 74.8 107.7 75.5 114.9 75.5 122.2 74.4 130.8 74.1 135.4 73.4 142.3 73 149.5 73.4 154.9 73.4 161 73 168.2 73 175.8 73 177.9 73.4 179.4 74.4 180.4 76.2 181.5 77.7 182.2 80.9 182.6 84 182.6 88.8 182.2 94.2 182.2 113.5 182.6 116.2 182.2 118.7 181.2 121.6 177.6 122.7 175.8 123 173.2 123 171.9 121.9 132.6 121.6 130.4 117.6 106.3 121.9 104.5 125.9 103.1 130.9 100.5 134.2 98.7 138.5 94.4 141 91.2 143.5 87.6 147.1 81.8 150.7 76.8 155.1 69.2 160.1 60.6 163.3 50.9 164.4 44.8 166.9 34.3 168 24.2 167.7 19.6 165.9 18.1 161.9 17.4 158.4 17.4 119.4 18.1 117.3 18.8 116.5 20.3 116.2 22.8 116.2 25.7 116.2 35.4 115.5 39 114.4 41.9 111.2 46.9 107.9 50.9 103.2 53 99.3 54.5 96 54.8 93.2 53.8 91.4 51.2 83.8 33.2 80.2 22.1 53.2 21 50 21.4 44.6 22.4 41.3 23.9 37.7 25.3 33.8 27.1 32 27.8"/>
    <path class="st0" d="M113.7,185.8h-.2s-19.3-.4-19.3-.4h-5.2l-5,.4h-3.2l-4-.4-2.2-1.1-2.1-1.3-2-2-.7-2.7v-10.3s.4-7.1.4-7.1v-5.9l-.4-5.5.4-7.6.7-6.8.4-4.8,1.1-8.3v-6.9l-.7-7-.5-3.3-2.1-1.6-6.3-3.8-5.7-3.2-2.5-1.5-4.6-2.7-4.8-4.4-2.8-3.6-1.9-2.7-2.3-4.5-2.6-4.8-2-4.3-1.9-9.3-.8-3.5-.5-3.9-1.7-10.4v-14.9l3.8-1.5,4-1.8,3.5-1.4,3.5-1.6,6-1.2,3.5-.4,29.5,1.2,4.3,13.2,7.4,17.5,1,1.4,1.2.5,2.1-.2,3.5-1.3,3.9-1.8,2.6-3.2,3-4.6.9-2.3.6-3v-12.5l.5-3.3,1.6-3.1,3.9-1.3,39.5-.7h3.8l5.1.9,3.5,2.8.5,6.4-1.1,10.6-2.5,10.5-1.1,6.3-3.4,10.3-5.2,8.9-4.4,7.7-3.6,5.1-3.6,5.8-2.6,3.7-2.6,3.4-4.8,4.8-3.8,2.1-5.2,2.6-4.1,1.5-1.9.8,3.9,24v.2s1.1,39.4,1.1,39.4v1.6l-.5,3.4-1.5,2.5-3.5,4.4-3.7,1.6-3.3.5ZM81.1,179.4h2.7l5-.4h5.5s19,.4,19,.4l2-.3,1.4-.6,2.2-2.8.6-1.1.2-1.6v-1.1l-1.1-39.1-.3-1.9-4.4-26.7,6.8-2.8,3.8-1.4,4.8-2.4,2.8-1.5,3.9-3.9,2.3-3,2.4-3.5,3.7-5.9,3.5-4.9,4.2-7.4,4.9-8.4,3.1-9.2,1.1-6.1,2.5-10.2,1-9.6-.2-3h0s-2.9-.6-2.9-.6h-3.2l-38.4.7h-.3c0,.1-.2,1.7-.2,1.7v12.7l-.8,4.2-1.3,3.4-3.5,5.5-3.8,4.7-5.6,2.6-4.3,1.6-4.4.5-4.5-1.7-2.6-3.6-7.8-18.6-2.9-9-24.5-1-2.9.3-4.9,1-3,1.3-3.5,1.4-3.8,1.7v10l1.6,10.1.5,3.8.7,3.2,1.7,8.6,1.6,3.5,2.5,4.7,2,4.1,1.6,2.3,2.3,3,3.9,3.5,4,2.3,2.5,1.4,5.8,3.3,6.6,4.1,4.4,3.4.9,6.1.7,7.5v7.5l-1.1,8.7-.4,4.7-.7,6.7-.3,6.9.4,5.4v6.3s-.4,7.1-.4,7.1v9.4s.2.2.2.2l1.4.8.8.4,2.5.3Z"/>
  </g>
</svg>