<?xml version="1.0" encoding="UTF-8"?><svg id="Layer_1" xmlns="http://www.w3.org/2000/svg" viewBox="0 0 92 200"><defs><style>.cls-1{fill:#1174b9;}.cls-2{fill:#fffdee;}</style></defs><rect class="cls-2" x="2" y="2" width="88" height="196" rx="8.4189" ry="8.4189"/><path class="cls-1" d="M81.5811,4c3.5394,0,6.4189,2.8795,6.4189,6.4189v179.1623c0,3.5394-2.8795,6.4189-6.4189,6.4189H10.4189c-3.5394,0-6.4189-2.8795-6.4189-6.4189V10.4189c0-3.5394,2.8795-6.4189,6.4189-6.4189h71.1623M81.5811,0H10.4189C4.6647,0,0,4.6647,0,10.4189v179.1623c0,5.7542,4.6647,10.4189,10.4189,10.4189h71.1623c5.7542,0,10.4189-4.6647,10.4189-10.4189V10.4189c0-5.7542-4.6647-10.4189-10.4189-10.4189h0Z"/><path d="M48.25,40.4111c2.5,0,4.5996,1.1016,6.3008,3.3003,1.6992,2.2007,3.9004,6.75,6.5996,13.6499,6.3008,16.3008,12.4512,41.8501,18.4512,76.6504.0977.4004.1484.9746.1484,1.7246s-.4746,1.5518-1.4238,2.4004c-.9512.8506-2.3027,1.2744-4.0508,1.2744-1.75,0-3.2246-.4238-4.4238-1.2744-1.2012-.8486-2.002-2.25-2.4004-4.2002-.4004-1.9502-1.1504-5.7754-2.25-11.4746-2.4004-12.6992-4.002-19.2988-4.8008-19.8008-1.1992-.6982-5.1738-1.4482-11.9238-2.25-6.7505-.7993-11.2271-1.1997-13.4263-1.1997-2.2012,0-3.502.2012-3.9004.5996-1.7988,1.6011-4.252,13.7515-7.3496,36.4507-.4004,1.9004-2.3008,2.8496-5.6992,2.8496-3.4014,0-5.1006-1.4482-5.1006-4.3496,0-7.2002,2.6484-20.9482,7.9502-41.2505,5.2988-20.2993,9.6973-33.75,13.1992-40.3501,4.4004-8.4985,9.0996-12.75,14.1001-12.75ZM47.6504,57.061c-1.5005,0-4.1021,4.4253-7.7993,13.2754-3.7012,8.8496-5.5508,14.3247-5.5508,16.4248,0,.5015.0977.8506.3008,1.0498.7988.8018,3.9492,1.5,9.4492,2.1001,5.4985.6001,9.1509.8999,10.9497.8999,1.8008,0,2.7988-.124,3-.375.1992-.248.3008-1.0498.3008-2.3999s-1.3496-6.8481-4.0508-16.5c-2.6992-9.6489-4.9004-14.4751-6.5996-14.4751Z"/></svg>