<?xml version="1.0" encoding="UTF-8"?><svg id="Layer_1" xmlns="http://www.w3.org/2000/svg" viewBox="0 0 92 200"><defs><style>.cls-1{fill:#ab08ff;}.cls-2{fill:#fffdee;}</style></defs><rect class="cls-2" x="2" y="2" width="88" height="196" rx="8.4189" ry="8.4189"/><path class="cls-1" d="M81.5811,4c3.5394,0,6.4189,2.8795,6.4189,6.4189v179.1623c0,3.5394-2.8795,6.4189-6.4189,6.4189H10.4189c-3.5394,0-6.4189-2.8795-6.4189-6.4189V10.4189c0-3.5394,2.8795-6.4189,6.4189-6.4189h71.1623M81.5811,0H10.4189C4.6647,0,0,4.6647,0,10.4189v179.1623c0,5.7542,4.6647,10.4189,10.4189,10.4189h71.1623c5.7542,0,10.4189-4.6647,10.4189-10.4189V10.4189c0-5.7542-4.6647-10.4189-10.4189-10.4189h0Z"/><path d="M37.6763,138.9619l-19.3516-.4502c-1.1016-4.2002-1.75-23.1006-1.9492-56.7007v-10.6499c0-8.4985.7988-14.9741,2.4004-19.4248,1.5977-4.4487,4.9492-8.0249,10.0488-10.7251,2.5996-1.2983,6.2266-1.9502,10.875-1.9502s8.2251.3003,10.7271.9004c6.6973,1.4014,11.2734,4.0005,13.7246,7.7998,2.4492,3.8018,3.6738,8.9014,3.6738,15.2998,0,8.9019-2.3496,15.4502-7.0488,19.6504,2.4004.2998,4.7988,1.5,7.1992,3.5996,2.4004,2.1001,4.3496,4.252,5.8496,6.4502,2.5996,4.001,3.9004,9.4507,3.9004,16.3501,0,10.7998-3.2754,18.4756-9.8242,23.0254-6.5508,4.5518-16.627,6.8252-30.2251,6.8252ZM62.2002,97.7861c-1.0488-1.0498-2.625-2.0249-4.7246-2.9248s-5.125-1.3501-9.0742-1.3501c-3.9517,0-10.6763.6514-20.1763,1.9502,0,15.6001.248,26.1519.75,31.6499,11.7012,0,19.8989-.7734,24.6001-2.3252,4.6992-1.5488,7.875-3.4492,9.5254-5.6992s2.4746-4.6504,2.4746-7.2002-.0254-4.3506-.0742-5.4004c-.0508-1.0498-.3516-2.498-.9004-4.3496-.5508-1.8496-1.3496-3.3003-2.4004-4.3506ZM28.3755,65.9111l.3008,17.1001c.1992,0,1.8984-.2251,5.0996-.6748,3.1992-.4502,5.8984-.9238,8.0996-1.4253,10.1001-2.3999,15.1509-8.1489,15.1509-17.25,0-4.5-1.3262-7.7998-3.9746-9.8999-2.6523-2.1001-6.1274-3.1499-10.4263-3.1499-5.4004,0-9.0508.9517-10.9492,2.8501-.8027.8013-1.4512,1.4766-1.9512,2.0249-.502.5508-.8496,1.4248-1.0488,2.625-.2031,1.1997-.3262,2.0508-.375,2.5498-.0527.5015-.0527,1.4507,0,2.8501.0488,1.4014.0742,2.2007.0742,2.3999Z"/></svg>