<?xml version="1.0" encoding="UTF-8"?><svg id="Layer_1" xmlns="http://www.w3.org/2000/svg" viewBox="0 0 92 200"><defs><style>.cls-1{fill:#ff2376;}.cls-2{fill:#fffdee;}</style></defs><rect class="cls-2" x="2" y="2" width="88" height="196" rx="8.4189" ry="8.4189"/><path class="cls-1" d="M81.5811,4c3.5394,0,6.4189,2.8795,6.4189,6.4189v179.1623c0,3.5394-2.8795,6.4189-6.4189,6.4189H10.4189c-3.5394,0-6.4189-2.8795-6.4189-6.4189V10.4189c0-3.5394,2.8795-6.4189,6.4189-6.4189h71.1623M81.5811,0H10.4189C4.6647,0,0,4.6647,0,10.4189v179.1623c0,5.7542,4.6647,10.4189,10.4189,10.4189h71.1623c5.7542,0,10.4189-4.6647,10.4189-10.4189V10.4189c0-5.7542-4.6647-10.4189-10.4189-10.4189h0Z"/><path d="M55.3008,41.1611c6.6992,0,14.0996,1.3008,22.1992,3.8999,1.8008,1.4019,2.7012,2.9253,2.7012,4.5752s-.8262,3.1006-2.4746,4.3501c-1.6504,1.2515-3.5254,1.875-5.625,1.875-5.4004-1.3994-10.4512-2.1001-15.1504-2.1001-10.8008,0-19.002,3.2017-24.5996,9.6001-5.6016,6.4009-8.4004,15.8999-8.4004,28.5s3.2988,22.4512,9.9004,29.5498c3.3984,3.7012,7.4473,5.5508,12.1484,5.5508s12.1992-2.499,22.5-7.5c3.6016-1.6992,6-2.5508,7.2012-2.5508,2.5996,0,3.9004,1.3506,3.9004,4.0508s-1.252,4.9492-3.75,6.75c-8.6016,4.5-15.3008,7.5254-20.1016,9.0742-4.7988,1.5518-8.9492,2.3252-12.4492,2.3252-7.1992,0-13.3496-2.6484-18.4492-7.9502-9.1016-9.7988-13.6509-23.1748-13.6509-40.125s4.3247-29.4985,12.9751-37.6499c8.6484-8.1494,19.0234-12.2251,31.125-12.2251Z"/></svg>