<?xml version="1.0" encoding="UTF-8"?><svg id="Layer_1" xmlns="http://www.w3.org/2000/svg" viewBox="0 0 92 200"><defs><style>.cls-1{fill:#fffdee;}.cls-2{fill:#ff8a20;}</style></defs><rect class="cls-1" x="2" y="2" width="88" height="196" rx="8.4189" ry="8.4189"/><path class="cls-2" d="M81.5811,4c3.5394,0,6.4189,2.8795,6.4189,6.4189v179.1623c0,3.5394-2.8795,6.4189-6.4189,6.4189H10.4189c-3.5394,0-6.4189-2.8795-6.4189-6.4189V10.4189c0-3.5394,2.8795-6.4189,6.4189-6.4189h71.1623M81.5811,0H10.4189C4.6647,0,0,4.6647,0,10.4189v179.1623c0,5.7542,4.6647,10.4189,10.4189,10.4189h71.1623c5.7542,0,10.4189-4.6647,10.4189-10.4189V10.4189c0-5.7542-4.6647-10.4189-10.4189-10.4189h0Z"/><path d="M17.0488,140.7253c-1.499-1.0996-2.249-2.3252-2.249-3.6758,0-1.3496.5483-2.4746,1.6494-3.375-1.9004-14.2988-2.8496-30.6982-2.8496-49.1997,0-5.5996.2485-16.5.75-32.7002.4995-1.5,1.5234-2.7983,3.0742-3.8999,1.5508-1.0991,3.0234-1.6499,4.4258-1.6499,1.3984,0,2.25.0513,2.5508.1499,14.2988,4.0005,26.748,11.7256,37.3496,23.1748,10.5977,11.4517,16.1484,25.1768,16.6504,41.1758,0,17.6016-7.3008,28.6494-21.9004,33.1494-4.2012,1.3008-8.625,1.9502-13.2754,1.9502s-8.7266-.3496-12.2246-1.0498c.3984.7988.5996,1.875.5996,3.2246,0,1.3506-.8242,2.6484-2.4746,3.9004-1.6504,1.249-3.5996,1.875-5.8496,1.875s-3.6758-1.3506-4.2754-4.0498l-1.9512-9ZM26.0488,83.2747c0,17.501,1,34.1021,3,49.8003,2.4004.7012,6.4512,1.0498,12.1504,1.0498s11.1758-.9492,16.4258-2.8496c5.25-1.8984,8.0254-4.6992,8.3242-8.4004.3008-2.7979.4512-4.9502.4512-6.4502,0-12.9985-3.4766-24.499-10.4258-34.5-6.9512-9.9985-16.6758-17.5991-29.1758-22.7998-.5,11.8008-.75,19.8516-.75,24.1499Z"/></svg>