<?xml version="1.0" encoding="UTF-8"?><svg id="Layer_1" xmlns="http://www.w3.org/2000/svg" viewBox="0 0 92 200"><defs><style>.cls-1{fill:#fedb00;}.cls-2{fill:#fffdee;}</style></defs><rect class="cls-2" x="2" y="2" width="88" height="196" rx="8.4189" ry="8.4189"/><path class="cls-1" d="M81.5811,4c3.5394,0,6.4189,2.8795,6.4189,6.4189v179.1623c0,3.5394-2.8795,6.4189-6.4189,6.4189H10.4189c-3.5394,0-6.4189-2.8795-6.4189-6.4189V10.4189c0-3.5394,2.8795-6.4189,6.4189-6.4189h71.1623M81.5811,0H10.4189C4.6647,0,0,4.6647,0,10.4189v179.1623c0,5.7542,4.6647,10.4189,10.4189,10.4189h71.1623c5.7542,0,10.4189-4.6647,10.4189-10.4189V10.4189c0-5.7542-4.6647-10.4189-10.4189-10.4189h0Z"/><path d="M21.1001,87.6611c-1.4009-.8999-2.0996-2.1982-2.0996-3.8999,0-1.6992.5483-3.2485,1.6504-4.6499-.4009-9.9985-.6001-20.5503-.6001-31.6499.6001-2.4004,1.5239-4.1484,2.7739-5.25,1.25-1.0996,3.0762-1.8003,5.4766-2.1001,13.1992.6001,27.4985.8999,42.8989.8999,3.8008.8018,5.7012,2.4517,5.7012,4.9502,0,4.1997-4.1016,6.6514-12.3008,7.3496-2.2012.1011-4.5996.1504-7.1992.1504h-9.75c-1.9009,0-7.1509-.3984-15.7505-1.2002,0,12.5015.1992,21.1006.5996,25.7998,5.2988.1011,15.5005.1504,30.6001.1504,3.5996.7007,5.4004,2.3247,5.4004,4.875s-1.4512,4.5254-4.3496,5.9248c-.3008.2017-.8516.4009-1.6504.6001l-25.9497-.4502c-1.6016,0-2.9023.1011-3.9004.3003l.5996,25.8003c0,5.8008-.1504,9.9512-.4492,12.4502l34.7993-.4502c3.1992.501,4.8008,1.8516,4.8008,4.0498,0,1.5-.6758,3-2.0254,4.5s-2.9258,2.4512-4.7246,2.8496l-38.4009.6006c-2.3008,0-3.9004-.4248-4.8008-1.2754-.8984-.8486-1.3496-2.2734-1.3496-4.2744.3984-2.7988.5996-7.2988.5996-13.5v-10.5l-.5996-22.0508Z"/></svg>