<?xml version="1.0" encoding="UTF-8"?><svg id="Layer_1" xmlns="http://www.w3.org/2000/svg" viewBox="0 0 92 200"><defs><style>.cls-1{fill:#00c22d;}.cls-2{fill:#fffdee;}</style></defs><rect class="cls-2" x="2" y="2" width="88" height="196" rx="8.4189" ry="8.4189"/><path class="cls-1" d="M81.5811,4c3.5394,0,6.4189,2.8795,6.4189,6.4189v179.1623c0,3.5394-2.8795,6.4189-6.4189,6.4189H10.4189c-3.5394,0-6.4189-2.8795-6.4189-6.4189V10.4189c0-3.5394,2.8795-6.4189,6.4189-6.4189h71.1623M81.5811,0H10.4189C4.6647,0,0,4.6647,0,10.4189v179.1623c0,5.7542,4.6647,10.4189,10.4189,10.4189h71.1623c5.7542,0,10.4189-4.6647,10.4189-10.4189V10.4189c0-5.7542-4.6647-10.4189-10.4189-10.4189h0Z"/><path d="M48.0254,42.061l16.6504-.2998c7.3984,0,11.0996,1.9502,11.0996,5.8501,0,1.4014-.2012,2.3765-.5996,2.9248-.4004.5508-.7012.9751-.9004,1.2749-.2012.3003-.5996.5508-1.1992.75-1.2012.4009-2.2012.6519-3,.75-.8027.1011-1.3496.1504-1.6504.1504-1.1016.2012-2.9512.3516-5.5508.4497-2.6016.1011-6.375.1499-11.3242.1499s-11.0259-.1992-18.2251-.5996v27.5996h30.6001c1.0996,0,2.123.502,3.0742,1.5.9492,1.001,1.4258,2.1001,1.4258,3.3003,0,4.6006-1.9492,6.8999-5.8496,6.8999h-29.2505l.5996,39.3003c0,5.0996-1.7246,7.6504-5.1758,7.6504-3.4492,0-5.4741-2.2998-6.0742-6.9004-.2998-1.5-.4756-14.2246-.5249-38.1753-.0518-23.9482-.1758-37.7251-.375-41.3252-3.7007.4009-5.5498-1.6992-5.5498-6.2998,0-1.2002.499-2.5244,1.5-3.9751.998-1.4482,1.875-2.2241,2.625-2.3247.75-.0986,1.6992-.1504,2.8496-.1504,1.1489,0,3.9751.2017,8.4751.6001,6.1992.6001,11.6484.8999,16.3501.8999Z"/></svg>