<?xml version="1.0" encoding="UTF-8"?><svg id="Layer_1" xmlns="http://www.w3.org/2000/svg" viewBox="0 0 92 200"><defs><style>.cls-1{fill:#50c8ea;}.cls-2{fill:#fffdee;}</style></defs><rect class="cls-2" x="2" y="2" width="88" height="196" rx="8.4189" ry="8.4189"/><path class="cls-1" d="M81.5811,4c3.5394,0,6.4189,2.8795,6.4189,6.4189v179.1623c0,3.5394-2.8795,6.4189-6.4189,6.4189H10.4189c-3.5394,0-6.4189-2.8795-6.4189-6.4189V10.4189c0-3.5394,2.8795-6.4189,6.4189-6.4189h71.1623M81.5811,0H10.4189C4.6647,0,0,4.6647,0,10.4189v179.1623c0,5.7542,4.6647,10.4189,10.4189,10.4189h71.1623c5.7542,0,10.4189-4.6647,10.4189-10.4189V10.4189c0-5.7542-4.6647-10.4189-10.4189-10.4189h0Z"/><path d="M59.6504,39.6611c4.8008,0,9.5742,1.2002,14.3242,3.6001s7.125,5.1001,7.125,8.1001c0,4.6006-1.9004,6.8999-5.6992,6.8999-1.4023,0-3.8516-.8999-7.3496-2.7002-3.502-1.7998-6.4512-2.6997-8.8496-2.6997-8.6016,0-15.7778,3.8506-21.5259,11.5498-5.752,7.7017-8.625,17.501-8.625,29.3999,0,8.9019,1.9492,16.7017,5.8496,23.4009,3.9004,6.7002,8.5234,10.0498,13.8755,10.0498,5.3477,0,9.5488-1.7744,12.5996-5.3252,3.0488-3.5488,4.5762-7.5752,4.5762-12.0752,0-2.498-.1758-4.5752-.5254-6.2246-.3516-1.6504-1.2266-3.1504-2.625-4.5005-1.4023-1.3501-3.252-2.0249-5.5508-2.0249-2.3008,0-4.4766-.4995-6.5254-1.5-2.0508-.9985-3.0742-2.3486-3.0742-4.0503,0-1.6992.5-3.2998,1.5-4.7998.998-1.5,2.3477-2.3999,4.0508-2.7002,6.7988,0,11.373.7012,13.7246,2.1001,2.3477,1.4019,4.125,2.5503,5.3242,3.4502,1.2012.8999,2.1992,2.3999,3,4.5.7988,2.1001,1.4258,3.8506,1.875,5.25.4512,1.4014.7734,3.6514.9746,6.75.1992,5.2012.3008,11.2764.3008,18.2256s-.502,11.2266-1.5,12.8242c-.9004,1.3008-2.4004,1.9766-4.5,2.0254-2.0996.0518-3.5508-.375-4.3496-1.2754-.8027-.8994-1.3008-2.8984-1.5-6-2.4004,2.1006-5.4258,3.877-9.0762,5.3252-3.6504,1.4512-6.875,2.1748-9.6738,2.1748-8.8013,0-16.2017-4.6729-22.2017-14.0244-6-9.3496-8.999-20.625-8.999-33.8257,0-6.998,1.1484-13.875,3.4502-20.625,2.2988-6.75,5.4004-12.4238,9.2988-17.0249,8.1992-9.499,18.3013-14.25,30.3013-14.25Z"/></svg>