<?xml version="1.0" encoding="UTF-8"?><svg id="Layer_1" xmlns="http://www.w3.org/2000/svg" viewBox="0 0 206 206"><defs><style>.cls-1{fill:#ff2376;}.cls-2{fill:#fffdee;}</style></defs><rect class="cls-2" x="3" y="3" width="200" height="200" rx="10.6708" ry="10.6708"/><path class="cls-1" d="M192.3291,206H13.6709C6.1328,206,0,199.8672,0,192.3291V13.6709C0,6.1328,6.1328,0,13.6709,0h178.6582C199.8672,0,206,6.1328,206,13.6709v178.6582c0,7.5381-6.1328,13.6709-13.6709,13.6709ZM13.6709,6c-4.2295,0-7.6709,3.4414-7.6709,7.6709v178.6582c0,4.2295,3.4414,7.6709,7.6709,7.6709h178.6582c4.2295,0,7.6709-3.4414,7.6709-7.6709V13.6709c0-4.2295-3.4414-7.6709-7.6709-7.6709H13.6709Z"/><rect x="6" y="35.75" width="194" height="5"/><rect x="6" y="63.5" width="194" height="5"/><rect x="6" y="91.25" width="194" height="5"/><rect x="6" y="119" width="194" height="5"/><rect x="6" y="146.75" width="194" height="5"/><ellipse class="cls-1" cx="100" cy="178.25" rx="17" ry="12"/><path class="cls-1" d="M100,193.4336c-11.3179,0-20.1836-6.6689-20.1836-15.1836s8.8657-15.1836,20.1836-15.1836,20.1836,6.6689,20.1836,15.1836-8.8652,15.1836-20.1836,15.1836ZM100,169.4336c-7.4893,0-13.8164,4.0371-13.8164,8.8164s6.3271,8.8164,13.8164,8.8164,13.8164-4.0371,13.8164-8.8164-6.3271-8.8164-13.8164-8.8164Z"/><rect class="cls-1" x="114" y="25.25" width="6" height="150"/><rect class="cls-1" x="70" y="174.75" width="60" height="6"/></svg>