<?xml version="1.0" encoding="UTF-8"?><svg id="Layer_1" xmlns="http://www.w3.org/2000/svg" viewBox="0 0 60 60"><defs><style>.cls-1{fill:#1174b9;}.cls-2,.cls-3{stroke:#000;stroke-miterlimit:10;}.cls-2,.cls-4,.cls-5{fill:#fffdee;}.cls-3{fill:#fff;}.cls-4{opacity:0;}</style></defs><rect class="cls-5" width="60" height="60" rx="10.102" ry="10.102"/><line class="cls-3" x1="2.5" y1="18.25" x2="57.2145" y2="18.25"/><line class="cls-3" x1="2.5" y1="24.125" x2="57.5" y2="24.125"/><line class="cls-3" x1="2.5" y1="30" x2="57.5" y2="30"/><line class="cls-3" x1="2.5" y1="35.875" x2="57.5" y2="35.875"/><line class="cls-3" x1="2.5" y1="41.75" x2="57.5" y2="41.75"/><rect class="cls-4" x="2" y="2" width="56" height="56" rx="8.1021" ry="8.1021"/><path class="cls-1" d="M49.898,4c3.3646,0,6.102,2.7373,6.102,6.102v39.796c0,3.3646-2.7373,6.102-6.102,6.102H10.102c-3.3646,0-6.102-2.7373-6.102-6.102V10.102c0-3.3646,2.7373-6.102,6.102-6.102h39.796M49.898,0H10.102C4.5228,0,0,4.5228,0,10.102v39.796c0,5.5792,4.5228,10.102,10.102,10.102h39.796c5.5792,0,10.102-4.5228,10.102-10.102V10.102c0-5.5792-4.5228-10.102-10.102-10.102h0Z"/><ellipse cx="30" cy="33" rx="4.5" ry="3.125"/><line class="cls-2" x1="33.9" y1="33" x2="33.9" y2="13"/></svg>