<?xml version="1.0" encoding="UTF-8"?><svg id="Layer_1" xmlns="http://www.w3.org/2000/svg" viewBox="0 0 200 200"><defs><style>.cls-1{fill:#fffdee;}.cls-2{fill:#ff8a20;}</style></defs><rect class="cls-1" x="3.5" y="3.5" width="193" height="193" rx="6.4971" ry="6.4971"/><path class="cls-2" d="M190.0032,7c1.6525,0,2.9968,1.3444,2.9968,2.9968v180.0063c0,1.6525-1.3444,2.9968-2.9968,2.9968H9.9968c-1.6525,0-2.9968-1.3444-2.9968-2.9968V9.9968c0-1.6525,1.3444-2.9968,2.9968-2.9968h180.0063M190.0032,0H9.9968C4.4757,0,0,4.4757,0,9.9968v180.0063c0,5.5211,4.4757,9.9968,9.9968,9.9968h180.0063c5.5211,0,9.9968-4.4758,9.9968-9.9968V9.9968c0-5.5211-4.4758-9.9968-9.9968-9.9968h0Z"/><path d="M72.501,122.4746c0,1-.4673,1.8672-1.3999,2.5996-.9346.7344-1.9673,1.0996-3.1001,1.0996-1.4673,0-2.2002-.665-2.2002-2-.2671-3.1328-.3999-15.5645-.3999-37.2993,0-2.1328,1.2827-3.8003,3.8501-5,2.5654-1.2002,6-1.8003,10.2998-1.8003s8.0654,1.0674,11.2998,3.2002c3.2334,2.1343,4.8506,4.6997,4.8506,7.6997,0,1.4673-.6348,3.1001-1.9004,4.9004-1.2666,1.7998-2.6172,3.2168-4.0498,4.25-1.4346,1.0337-3.4844,2.2837-6.1504,3.7505-2.667,1.4668-4.2998,2.2666-4.8994,2.3994,4.2002,2.667,7.9326,5.5674,11.2002,8.7002,3.2656,3.1348,4.8994,5.5996,4.8994,7.4004,0,1.7988-.7998,2.9668-2.3994,3.5-.4678.1338-1.0674.1992-1.8008.1992-.7344,0-1.667-.7148-2.7998-2.1504-1.1338-1.4316-3.2666-3.5-6.3994-6.1992-3.1348-2.7002-6.2349-5.1152-9.3003-7.25.1328,5.334.2656,9.2998.3999,11.9004v.0996ZM72.1011,101.5742c2.1997,0,5.4995-1.0825,9.8999-3.25,4.4004-2.1655,6.7002-4.1826,6.9004-6.0498,0-1.8003-1-3.1499-3-4.0503-2-.8999-4.1006-1.3496-6.3008-1.3496-2.5342,0-4.9995.2998-7.3994.8999-.0674,3.1997-.1001,7.7998-.1001,13.7998Z"/><path d="M113.0996,103.6738l.2002,13.1006c0,1.7344-.0342,2.667-.0996,2.7998l17.2998-.2998c1.9326.2002,2.9004,1.0342,2.9004,2.5,0,2.7998-1.3008,4.2002-3.9004,4.2002l-19.5996.1992c-1.2002,0-2.085-.415-2.6504-1.25-.5674-.832-.8848-1.7148-.9502-2.6494-.0674-.9326-.0996-1.9658-.0996-3.1006v-16.5996c-.8672-.4648-1.2998-1.166-1.2998-2.1001,0-.9326.3652-1.7656,1.0996-2.5-.2002-5.1997-.2998-9.9326-.2998-14.1997,0-2.4658,1.5-3.7329,4.5-3.8003h2.7998l17.5.3003h.0996c2.1328.2671,3.2002,1.2671,3.2002,3,0,1.3345-.3994,2.2344-1.2002,2.6997-1.7344.9346-5.8994,1.4004-12.5,1.4004-2.4668,0-4.9336-.1001-7.3994-.3003,0,6,.0322,9.3672.0996,10.1001,2.6006.0674,7.7002.1001,15.2998.1001,2.0664.2671,3.1006,1.1997,3.1006,2.7998,0,.8003-.335,1.5674-1,2.3008-.667.7344-1.3848,1.1494-2.1504,1.25-.7666.0996-2.3994.1494-4.8994.1494s-5.8506-.0322-10.0508-.1006Z"/></svg>