<?xml version="1.0" encoding="UTF-8"?><svg id="Layer_1" xmlns="http://www.w3.org/2000/svg" viewBox="0 0 200 200"><defs><style>.cls-1{fill:#fedb00;}.cls-2{fill:#fffdee;}</style></defs><rect class="cls-2" x="3.5" y="3.5" width="193" height="193" rx="6.4971" ry="6.4971"/><path class="cls-1" d="M190.0032,7c1.6525,0,2.9968,1.3444,2.9968,2.9968v180.0063c0,1.6525-1.3444,2.9968-2.9968,2.9968H9.9968c-1.6525,0-2.9968-1.3444-2.9968-2.9968V9.9968c0-1.6525,1.3444-2.9968,2.9968-2.9968h180.0063M190.0032,0H9.9968C4.4757,0,0,4.4757,0,9.9968v180.0063c0,5.5211,4.4757,9.9968,9.9968,9.9968h180.0063c5.5211,0,9.9968-4.4758,9.9968-9.9968V9.9968c0-5.5211-4.4758-9.9968-9.9968-9.9968h0Z"/><path d="M109.8008,77.6738c1.9316,0,2.9004.9346,2.9004,2.7998.1992,11.8672.2988,25.7002.2988,41.5,0,1.0674-.3848,2.0342-1.1504,2.9004-.7656.8672-1.9844,1.2998-3.6484,1.2998-1.668,0-2.5-1.0996-2.5-3.2998,0-7.0654-.0508-12.3154-.1504-15.75-.0996-3.4326-.1504-7.1504-.1504-11.1504-2.4668,3-4.8501,5.1006-7.1499,6.2998-2.2998,1.2002-5.3496,1.8008-9.1504,1.8008s-6.7666-1.0332-8.8994-3.1006c0,11.9346-.0674,18.9346-.2002,21-.1348,2.7998-1.7002,4.2002-4.7002,4.2002-1.7998,0-2.6997-.9658-2.6997-2.9004l.2998-18.5v-19.6997c0-.9326.3657-1.8325,1.1001-2.6997.7329-.8657,1.583-1.3003,2.5498-1.3003.9658,0,1.833.2173,2.6006.6499.7656.4346,1.1826,1.0845,1.25,1.9502.1328,3.3999,1.1152,6.4346,2.9492,9.1001,1.833,2.667,3.916,4,6.25,4,6.7334,0,11.3999-3.6328,13.9995-10.8999.1328-.333.416-1.2002.8516-2.6001.4316-1.3999.7812-2.3657,1.0488-2.8999.2656-.5332.7832-1.1157,1.5508-1.75.7656-.6328,1.6816-.9502,2.75-.9502Z"/><path d="M122.5996,126.1738c-1.8672,0-2.7988-.7998-2.7988-2.4004l.4004-40.6997c0-.9326.332-1.6826,1-2.25.6641-.5654,1.4824-.8501,2.4492-.8501.9648,0,1.8008.2344,2.5.7002.6992.4673,1.082,1.25,1.1504,2.3501.0645,1.1001.0996,3.5498.0996,7.3501,0,17.7998-.1348,28.6338-.4004,32.5-.0664.8672-.584,1.6338-1.5488,2.2998-.9688.667-1.918,1-2.8516,1Z"/></svg>