<?xml version="1.0" encoding="UTF-8"?><svg id="Layer_1" xmlns="http://www.w3.org/2000/svg" viewBox="0 0 200 200"><defs><style>.cls-1{fill:#00c22d;}.cls-2{fill:#fffdee;}</style></defs><rect class="cls-2" x="3.5" y="3.5" width="193" height="193" rx="6.5015" ry="6.5015"/><path class="cls-1" d="M189.9987,7c1.655,0,3.0013,1.3464,3.0013,3.0013v179.9973c0,1.655-1.3464,3.0013-3.0013,3.0013H10.0013c-1.655,0-3.0013-1.3464-3.0013-3.0013V10.0013c0-1.655,1.3464-3.0013,3.0013-3.0013h179.9973M189.9987,0H10.0013C4.4777,0,0,4.4777,0,10.0013v179.9973c0,5.5236,4.4777,10.0013,10.0013,10.0013h179.9973c5.5236,0,10.0013-4.4778,10.0013-10.0013V10.0013c0-5.5236-4.4778-10.0013-10.0013-10.0013h0Z"/><path d="M85.3008,105.0742h-12.3994c0,6.1992.0996,11.7344.2998,16.5996,0,3.1348-1.0342,4.7002-3.0996,4.7002-2.0674,0-3.2676-1.2656-3.6006-3.7998-.1338-.6006-.2002-3.333-.2002-8.2002v-15.8003c0-5.7329-.0342-9.4653-.0996-11.1997-1.7344-.2002-2.5996-1.4658-2.5996-3.8003,0-.5327.2998-1.1997.8994-2,.7998-1,1.6162-1.5,2.4502-1.5.833,0,2.333.1001,4.5.3003,2.166.1997,7.1152.2998,14.8496.2998,3.8672,0,5.8008,1.0674,5.8008,3.2002,0,1.667-.5352,2.6343-1.5996,2.8999-.334.1343-.5684.25-.7012.3501-.1328.0996-.4336.167-.8984.1997-.4688.0347-.7344.0503-.8008.0503-.334.1343-1.1172.2344-2.3496.2998-1.2344.0674-2.9355.1001-5.1006.1001-2.167,0-4.75-.1001-7.75-.3003v10.8003h13.001c.5996,0,1.1992.3345,1.7988,1,.5996.667.9004,1.4497.9004,2.3501,0,.8994-.2852,1.7002-.8496,2.3994-.5684.7002-1.3848,1.0508-2.4512,1.0508Z"/><path d="M106.501,123.4736c-.2676,1.667-1.4502,2.5-3.5498,2.5s-3.1504-.8652-3.1504-2.5996c0-3.9326,1.9326-11.9326,5.7998-24,1.7334-5.5332,3.666-10.1328,5.8008-13.8003,2.1328-3.6655,4.1992-5.5,6.1992-5.5,1.0664,0,2,.6343,2.8008,1.8999.7998,1.2676,2.25,4.1504,4.3496,8.6504s3.8496,9.2671,5.25,14.2998c1.4004,5.0342,2.9326,11.1846,4.5996,18.4502,0,.8672-.2998,1.5498-.8994,2.0498-.6006.5-1.335.75-2.2002.75-2.1348,0-3.4668-.9326-4-2.7998l-3.5-13.7002c-5.8672,0-10.5674-.4658-14.0996-1.4004-2,7.335-3.1348,12.4004-3.4004,15.2002ZM117.3008,89.2739c-2.2002,3.7344-4,7.8999-5.3994,12.4995,2.9326.8008,6.3994,1.2002,10.3994,1.2002-1.2666-4.5996-2.9346-9.1655-5-13.6997Z"/></svg>