<?xml version="1.0" encoding="UTF-8"?><svg id="Layer_1" xmlns="http://www.w3.org/2000/svg" viewBox="0 0 200 200"><defs><style>.cls-1{fill:#50c8ea;}.cls-2{fill:#fffdee;}</style></defs><path class="cls-2" d="M10.1455,196.5c-3.6646,0-6.6455-2.9814-6.6455-6.6455V10.0254c0-3.5981,2.9272-6.5254,6.5254-6.5254h179.8291c3.6641,0,6.6455,2.981,6.6455,6.6455v179.709c0,3.6641-2.9814,6.6455-6.6455,6.6455H10.1455Z"/><path class="cls-1" d="M189.8546,7c1.7344,0,3.1454,1.411,3.1454,3.1454v179.7092c0,1.7344-1.411,3.1454-3.1454,3.1454H10.1454c-1.7344,0-3.1454-1.411-3.1454-3.1454V10.0255c0-1.6683,1.3573-3.0255,3.0255-3.0255h179.829M189.8546,0H10.0255C4.4886,0,0,4.4886,0,10.0255v179.829c0,5.6032,4.5423,10.1454,10.1454,10.1454h179.7092c5.6032,0,10.1454-4.5423,10.1454-10.1454V10.1454c0-5.6032-4.5423-10.1454-10.1454-10.1454h0Z"/><path d="M61.5005,91.2744c0-3.1328,1.6001-5.8159,4.7998-8.0503,3.2002-2.2324,7.1157-3.3496,11.75-3.3496s8.1504.5996,10.5498,1.7998c2.4004,1.2002,3.6006,2.7344,3.6006,4.6001,0,.8672-.2842,1.5845-.8506,2.1499-.5664.5674-1.25.8501-2.0498.8501s-2.3838-.5327-4.75-1.6001c-2.3672-1.0654-4.5-1.6001-6.3999-1.6001s-3.8999.5171-6,1.5503c-2.1001,1.0342-3.1499,2.3169-3.1499,3.8496,0,1.5347,1.2656,2.9004,3.7998,4.1001,2.5332,1.2002,5.5332,2.2344,9,3.1001,3.4658.8672,5.7832,1.7173,6.9502,2.5503,1.166.834,2,1.5,2.5,2s1.0156,1.4668,1.5498,2.9004c.5332,1.4336.7998,3.2832.7998,5.5488,0,4.8672-1.584,8.4844-4.75,10.8506-3.167,2.3672-6.9336,3.5498-11.2998,3.5498s-8.1172-.6992-11.25-2.0996c-3.1343-1.4004-4.6997-3.1328-4.6997-5.2002,0-1.0654.4497-2.0156,1.3501-2.8506.8999-.832,1.8496-1.0488,2.8496-.6494,6.2656,2.4678,10.2002,3.7002,11.8003,3.7002,2.8657,0,5.0659-.7158,6.6001-2.1504,1.5322-1.4326,2.2998-3.25,2.2998-5.4492,0-2.2012-.8672-3.8828-2.5996-5.0508-1.7344-1.166-3.8174-2.0156-6.2505-2.5498-2.4341-.5322-4.8672-1.1328-7.2998-1.7998-2.4346-.666-4.5171-1.833-6.25-3.5005-1.7344-1.6655-2.6001-4.0654-2.6001-7.1997Z"/><path d="M121.1992,80.4741c4.9336,0,8.916,1.9004,11.9512,5.7002,3.0312,3.7998,4.5488,9,4.5488,15.6001s-1.666,12.2998-5,17.1006c-3.334,4.7988-7.5664,7.1992-12.6992,7.1992-5.5996,0-10.168-2.4004-13.7012-7.1992-3.5332-4.8008-5.2993-10.666-5.2993-17.6006s1.8325-12.1328,5.5005-15.6001c3.666-3.4658,8.5645-5.2002,14.6992-5.2002ZM130.5,102.875c0-5.3335-.7676-9.2505-2.3008-11.7505s-4.2344-3.75-8.0996-3.75c-3.8672,0-6.8672,1.1841-9,3.5498-2.1348,2.3672-3.1992,5.7344-3.1992,10.1001s1.1328,8.417,3.3984,12.1494c2.2656,3.7344,5.4004,5.6006,9.4004,5.6006,2.2656,0,4.2012-.9658,5.8008-2.8994,2.666-3.334,4-7.666,4-13Z"/></svg>