<?xml version="1.0" encoding="UTF-8"?><svg id="Layer_1" xmlns="http://www.w3.org/2000/svg" viewBox="0 0 200 200"><defs><style>.cls-1{fill:#1174b9;}.cls-2{fill:#fffdee;}</style></defs><rect class="cls-2" x="3.5" y="3.5" width="193" height="193" rx="6.4922" ry="6.4922"/><path class="cls-1" d="M190.0077,7c1.65,0,2.9923,1.3424,2.9923,2.9923v180.0153c0,1.65-1.3424,2.9923-2.9923,2.9923H9.9923c-1.65,0-2.9923-1.3424-2.9923-2.9923V9.9923c0-1.65,1.3424-2.9923,2.9923-2.9923h180.0153M190.0077,0H9.9923C4.4737,0,0,4.4737,0,9.9923v180.0153c0,5.5186,4.4737,9.9923,9.9923,9.9923h180.0153c5.5186,0,9.9923-4.4737,9.9923-9.9923V9.9923c0-5.5186-4.4737-9.9923-9.9923-9.9923h0Z"/><path d="M78.8008,126.2744l-9.5-.1006c-1.667,0-2.5996-.5-2.7998-1.5-.3994-2.7998-.5996-7.165-.5996-13.0996l.7002-29c0-1.666,1.2656-2.5,3.7998-2.5,1.2656,0,2.2998.2998,3.0996.8994.7998.6006,1.2002,1.4346,1.2002,2.5-.1348,2.8008-.5,6.668-1.0996,11.6006-.7344,6.4668-1.1006,11.1846-1.1006,14.1494,0,2.9678.1006,6.5176.2998,10.6504l14.7998-.9004c2.2012,0,3.3008,1.1348,3.3008,3.4004,0,1.8672-.6992,2.9346-2.0996,3.2002-3,.4668-6.335.7002-10.001.7002Z"/><path d="M104,123.4736c-.2676,1.668-1.4502,2.5-3.5498,2.5s-3.1504-.8652-3.1504-2.5996c0-3.9326,1.9326-11.9326,5.7998-24,1.7334-5.5332,3.666-10.1328,5.8008-13.7998,2.1328-3.666,4.1992-5.5,6.1992-5.5,1.0664,0,2,.6338,2.8008,1.8994.7998,1.2676,2.25,4.1504,4.3496,8.6504s3.8496,9.2676,5.25,14.2998c1.4004,5.0342,2.9326,11.1846,4.5996,18.4502,0,.8672-.2998,1.5498-.8994,2.0498-.6006.5-1.335.75-2.2002.75-2.1348,0-3.4668-.9326-4-2.7998l-3.5-13.7002c-5.8672,0-10.5674-.4658-14.0996-1.3994-2,7.334-3.1348,12.3994-3.4004,15.1992ZM114.7998,89.2744c-2.2002,3.7344-4,7.8994-5.3994,12.5,2.9326.7998,6.3994,1.1992,10.3994,1.1992-1.2666-4.5996-2.9346-9.165-5-13.6992Z"/></svg>