<?xml version="1.0" encoding="UTF-8"?><svg id="Layer_1" xmlns="http://www.w3.org/2000/svg" viewBox="0 0 200 200"><defs><style>.cls-1{fill:#ab08ff;}.cls-2{fill:#fffdee;}</style></defs><rect class="cls-2" x="3.5" y="3.5" width="193" height="193" rx="6.4873" ry="6.4873"/><path class="cls-1" d="M190.0128,7c1.6472,0,2.9872,1.3401,2.9872,2.9873v180.0255c0,1.6472-1.3401,2.9872-2.9872,2.9872H9.9873c-1.6472,0-2.9873-1.3401-2.9873-2.9872V9.9873c0-1.6472,1.3401-2.9873,2.9873-2.9873h180.0255M190.0128,0H9.9873C4.4715,0,0,4.4715,0,9.9873v180.0255c0,5.5158,4.4715,9.9872,9.9873,9.9872h180.0255c5.5158,0,9.9872-4.4715,9.9872-9.9872V9.9873c0-5.5158-4.4715-9.9873-9.9872-9.9873h0Z"/><path d="M95,86.0742l-.1992,23.7002c0,4.9346.0645,9.2666.1992,13,.0664,1-.3496,1.8174-1.25,2.4502-.9004.6348-1.8164.9492-2.75.9492-1.7334,0-2.5996-.9316-2.5996-2.7988-.1992-7.2656-.2998-14.1836-.2998-20.75s.2002-11.9834.6006-16.2505c-4,.334-8.0674.5-12.2002.5-2.0674,0-3.1006-.8657-3.1006-2.6001,0-.8003.3828-1.6001,1.1504-2.3999.7656-.8003,1.6152-1.2329,2.5498-1.3003l31.2002-1c1.7988.3999,2.6992,1.2671,2.6992,2.6001,0,2.7344-3.1348,4.1001-9.4004,4.1001l-6.5996-.2002Z"/><path d="M120.0996,126.1738c-1.8672,0-2.7998-.7988-2.7998-2.3994l.4004-40.7002c0-.9326.333-1.6826,1-2.25.665-.5654,1.4824-.8501,2.4502-.8501.9648,0,1.7998.2344,2.5.7002.6992.4673,1.082,1.25,1.1494,2.3501.0654,1.1001.1006,3.5498.1006,7.3501,0,17.7993-.1348,28.6343-.4004,32.5005-.0674.8672-.584,1.6338-1.5498,2.2988-.9678.668-1.917,1-2.8506,1Z"/></svg>