<?xml version="1.0" encoding="UTF-8"?><svg id="Layer_1" xmlns="http://www.w3.org/2000/svg" viewBox="0 0 200 200"><defs><style>.cls-1{fill:#ff2376;}.cls-2{fill:#fffdee;}</style></defs><path class="cls-2" d="M10.0034,3.5h179.9932c3.5893,0,6.5034,2.9141,6.5034,6.5034v179.9927c0,3.5896-2.9143,6.5039-6.5039,6.5039H10.0039c-3.5896,0-6.5039-2.9143-6.5039-6.5039V10.0034c0-3.5893,2.9141-6.5034,6.5034-6.5034Z"/><path class="cls-1" d="M189.9964,7c1.6562,0,3.0036,1.3474,3.0036,3.0036v179.9928c0,1.6562-1.3474,3.0036-3.0036,3.0036H10.0036c-1.6562,0-3.0036-1.3474-3.0036-3.0036V10.0036c0-1.6562,1.3474-3.0036,3.0036-3.0036h179.9928M189.9964,0H10.0036C4.4788,0,0,4.4788,0,10.0036v179.9928c0,5.5248,4.4788,10.0036,10.0036,10.0036h179.9928c5.5248,0,10.0036-4.4787,10.0036-10.0036V10.0036c0-5.5248-4.4787-10.0036-10.0036-10.0036h0Z"/><path d="M62.001,123.5742c-.8672-.666-1.2998-1.3506-1.2998-2.0508,0-.6992.2324-1.3496.6992-1.9492-.667-5.1328-1.1338-11.0664-1.3994-17.8008-.2676-6.7324-.4004-10.5498-.4004-11.4497s.0156-1.8657.0498-2.8999c.0332-1.0327.1836-2.1826.4502-3.4502.4658-2.5327,2-3.7998,4.6006-3.7998,6.8643,0,13.4814,3.1001,19.8486,9.2998,6.3672,6.2002,9.5508,12.9346,9.5508,20.2002,0,5.4668-1.6992,9.584-5.0996,12.3496-3.4004,2.7676-8.0352,4.1504-13.9004,4.1504-1.1348,0-2.7344-.1328-4.7998-.4004,0,1.0664-.4346,2-1.2998,2.8008-.8672.7998-1.8672,1.1992-3,1.1992-1.7344,0-2.7676-.8672-3.1006-2.5996l-.8994-3.5996ZM67.1006,87.5737c-.0674.7344-.0996,2-.0996,3.8003s.1826,5.7842.5498,11.9502c.3652,6.167.8496,11.417,1.4502,15.75.5322.1338,2.5996.1992,6.1992.1992,7.8008,0,11.7012-2.1992,11.7012-6.5996,0-5.5996-1.7852-10.5996-5.3516-15-3.5664-4.3999-8.3828-7.7656-14.4492-10.1001Z"/><path d="M123.1992,80.4736c4.9326,0,8.915,1.9004,11.9502,5.7002,3.0322,3.7998,4.5498,9,4.5498,15.5996s-1.667,12.3008-5,17.1006c-3.335,4.7998-7.5674,7.2002-12.7002,7.2002-5.5996,0-10.167-2.4004-13.7002-7.2002-3.5342-4.7998-5.2998-10.666-5.2998-17.6006s1.833-12.1323,5.5-15.5996c3.666-3.4658,8.5654-5.2002,14.7002-5.2002ZM132.499,102.874c0-5.333-.7676-9.25-2.2998-11.75-1.5342-2.5-4.2344-3.75-8.1006-3.75s-6.8672,1.1841-9,3.5498c-2.1338,2.3672-3.1992,5.7344-3.1992,10.0996s1.1328,8.418,3.3994,12.1504c2.2656,3.7344,5.4004,5.5996,9.4004,5.5996,2.2656,0,4.2002-.9648,5.7998-2.8994,2.666-3.333,4-7.666,4-13Z"/></svg>